0
SECTION
2
ENTITIES
0
LWPOLYLINE
8
LOGO
90
545
70
1
10
6.6581
20
3.7884
10
7.0349
20
3.7884
10
7.0428
20
3.7805
10
7.0742
20
3.7805
10
7.0821
20
3.7726
10
7.1527
20
3.7726
10
7.1606
20
3.7648
10
7.1998
20
3.7648
10
7.2077
20
3.7569
10
7.2391
20
3.7569
10
7.2469
20
3.7491
10
7.2705
20
3.7491
10
7.2783
20
3.7412
10
7.2940
20
3.7412
10
7.3019
20
3.7334
10
7.3176
20
3.7334
10
7.3255
20
3.7255
10
7.3490
20
3.7255
10
7.3569
20
3.7177
10
7.3726
20
3.7177
10
7.3804
20
3.7098
10
7.4040
20
3.7098
10
7.4275
20
3.6941
10
7.4432
20
3.6941
10
7.4511
20
3.6863
10
7.4668
20
3.6863
10
7.4746
20
3.6784
10
7.4825
20
3.6784
10
7.4903
20
3.6706
10
7.4982
20
3.6706
10
7.5060
20
3.6627
10
7.5139
20
3.6627
10
7.5217
20
3.6549
10
7.5296
20
3.6549
10
7.5374
20
3.6470
10
7.5610
20
3.6392
10
7.5767
20
3.6235
10
7.5924
20
3.6235
10
7.6081
20
3.6078
10
7.6160
20
3.6078
10
7.6238
20
3.5999
10
7.6317
20
3.5999
10
7.6474
20
3.5842
10
7.6552
20
3.5842
10
7.6866
20
3.5528
10
7.6945
20
3.5528
10
7.7259
20
3.5214
10
7.7337
20
3.5214
10
7.7848
20
3.4704
10
7.7848
20
3.4625
10
7.8319
20
3.4154
10
7.8319
20
3.4076
10
7.8476
20
3.3918
10
7.8476
20
3.3840
10
7.8711
20
3.3604
10
7.8711
20
3.3526
10
7.8790
20
3.3447
10
7.8868
20
3.3212
10
7.9025
20
3.3055
10
7.9025
20
3.2898
10
7.9182
20
3.2662
10
7.9182
20
3.2505
10
7.9261
20
3.2427
10
7.9261
20
3.2348
10
7.9418
20
3.2113
10
7.9418
20
3.1956
10
7.9575
20
3.1720
10
7.9575
20
3.1563
10
7.9653
20
3.1485
10
7.9653
20
3.1249
10
7.9732
20
3.1170
10
7.9732
20
3.0935
10
7.9811
20
3.0856
10
7.9811
20
3.0464
10
7.9889
20
3.0385
10
7.9889
20
3.0071
10
7.9968
20
2.9993
10
7.9968
20
2.7323
10
7.9889
20
2.7245
10
7.9889
20
2.6617
10
7.9811
20
2.6538
10
7.9811
20
2.6067
10
7.9732
20
2.5988
10
7.9732
20
2.5439
10
7.9653
20
2.5360
10
7.9653
20
2.4968
10
7.9575
20
2.4889
10
7.9575
20
2.4418
10
7.9496
20
2.4340
10
7.9496
20
2.4183
10
7.9418
20
2.4104
10
7.9418
20
2.3319
10
7.9339
20
2.3240
10
7.9339
20
2.2691
10
7.9261
20
2.2612
10
7.9261
20
2.2298
10
7.9182
20
2.2220
10
7.9182
20
2.1513
10
7.9104
20
2.1435
10
7.9104
20
2.1278
10
7.9025
20
2.1199
10
7.9025
20
2.0492
10
7.8947
20
2.0414
10
7.8947
20
2.0178
10
7.8868
20
2.0100
10
7.8868
20
1.9629
10
7.8790
20
1.9550
10
7.8790
20
1.9315
10
7.8711
20
1.9236
10
7.8711
20
1.8608
10
7.8633
20
1.8530
10
7.8633
20
1.8294
10
7.8554
20
1.8215
10
7.8554
20
1.7666
10
7.8476
20
1.7587
10
7.8476
20
1.7430
10
7.8397
20
1.7352
10
7.8397
20
1.6724
10
7.8319
20
1.6645
10
7.8319
20
1.6331
10
7.8240
20
1.6253
10
7.8240
20
1.5703
10
7.8162
20
1.5624
10
7.8162
20
1.5389
10
7.8083
20
1.5310
10
7.8083
20
1.4682
10
7.8005
20
1.4604
10
7.8005
20
1.4447
10
7.7926
20
1.4368
10
7.7926
20
1.3897
10
7.7848
20
1.3819
10
7.7848
20
1.3505
10
7.7769
20
1.3426
10
7.7769
20
1.2955
10
7.7691
20
1.2876
10
7.7691
20
1.2484
10
7.7612
20
1.2405
10
7.7612
20
1.2013
10
7.7534
20
1.1934
10
7.7534
20
1.1385
10
7.7455
20
1.1306
10
7.7455
20
1.0914
10
7.7377
20
1.0835
10
7.7377
20
1.0442
10
7.7259
20
1.0246
10
7.1920
20
1.0246
10
7.1802
20
1.0364
10
7.1802
20
1.0600
10
7.1881
20
1.0678
10
7.1881
20
1.1149
10
7.1959
20
1.1228
10
7.1959
20
1.1542
10
7.2038
20
1.1620
10
7.2038
20
1.2170
10
7.2116
20
1.2248
10
7.2116
20
1.2562
10
7.2195
20
1.2641
10
7.2195
20
1.3348
10
7.2273
20
1.3426
10
7.2273
20
1.3583
10
7.2352
20
1.3662
10
7.2352
20
1.4133
10
7.2234
20
1.4172
10
7.2195
20
1.4054
10
7.1449
20
1.3308
10
7.1370
20
1.3308
10
7.1331
20
1.3191
10
7.0978
20
1.2837
10
7.0899
20
1.2837
10
7.0349
20
1.2288
10
7.0271
20
1.2288
10
6.9957
20
1.1974
10
6.9878
20
1.1974
10
6.9721
20
1.1817
10
6.9643
20
1.1817
10
6.9407
20
1.1581
10
6.9329
20
1.1581
10
6.9250
20
1.1502
10
6.9015
20
1.1424
10
6.8858
20
1.1267
10
6.8779
20
1.1267
10
6.8701
20
1.1188
10
6.8465
20
1.1110
10
6.8308
20
1.0953
10
6.8151
20
1.0953
10
6.8073
20
1.0874
10
6.7994
20
1.0874
10
6.7601
20
1.0639
10
6.7444
20
1.0639
10
6.7209
20
1.0482
10
6.7052
20
1.0482
10
6.6973
20
1.0403
10
6.6816
20
1.0403
10
6.6738
20
1.0325
10
6.6581
20
1.0325
10
6.6345
20
1.0168
10
6.6031
20
1.0168
10
6.5953
20
1.0089
10
6.5717
20
1.0089
10
6.5639
20
1.0011
10
6.5482
20
1.0011
10
6.5403
20
0.9932
10
6.5010
20
0.9932
10
6.4932
20
0.9854
10
6.4618
20
0.9854
10
6.4539
20
0.9775
10
6.2734
20
0.9775
10
6.2655
20
0.9697
10
6.2498
20
0.9697
10
6.2419
20
0.9775
10
6.1163
20
0.9775
10
6.1085
20
0.9854
10
6.0692
20
0.9854
10
6.0614
20
0.9932
10
6.0300
20
0.9932
10
6.0221
20
1.0011
10
5.9985
20
1.0011
10
5.9907
20
1.0089
10
5.9593
20
1.0089
10
5.9514
20
1.0168
10
5.9357
20
1.0168
10
5.9279
20
1.0246
10
5.9122
20
1.0246
10
5.9043
20
1.0325
10
5.8886
20
1.0325
10
5.8808
20
1.0403
10
5.8494
20
1.0403
10
5.8101
20
1.0639
10
5.7944
20
1.0639
10
5.7866
20
1.0717
10
5.7787
20
1.0717
10
5.7394
20
1.0953
10
5.7237
20
1.0953
10
5.7159
20
1.1031
10
5.7080
20
1.1031
10
5.7002
20
1.1110
10
5.6766
20
1.1188
10
5.6609
20
1.1345
10
5.6531
20
1.1345
10
5.6374
20
1.1502
10
5.6295
20
1.1502
10
5.6060
20
1.1738
10
5.5981
20
1.1738
10
5.5667
20
1.2052
10
5.5589
20
1.2052
10
5.5000
20
1.2641
10
5.5000
20
1.2719
10
5.4607
20
1.3112
10
5.4607
20
1.3191
10
5.4450
20
1.3348
10
5.4372
20
1.3583
10
5.4215
20
1.3740
10
5.4215
20
1.3819
10
5.4058
20
1.4054
10
5.4058
20
1.4211
10
5.3979
20
1.4290
10
5.3979
20
1.4368
10
5.3822
20
1.4525
10
5.3822
20
1.4604
10
5.3744
20
1.4682
10
5.3744
20
1.4839
10
5.3587
20
1.5075
10
5.3587
20
1.5232
10
5.3508
20
1.5310
10
5.3508
20
1.5546
10
5.3429
20
1.5624
10
5.3429
20
1.6017
10
5.3351
20
1.6096
10
5.3351
20
1.6331
10
5.3272
20
1.6410
10
5.3272
20
1.7038
10
5.3194
20
1.7116
10
5.3194
20
1.8844
10
5.3272
20
1.8922
10
5.3272
20
1.9629
10
5.3351
20
1.9707
10
5.3351
20
1.9943
10
5.3429
20
2.0021
10
5.3429
20
2.0414
10
5.3508
20
2.0492
10
5.3508
20
2.0728
10
5.3665
20
2.0964
10
5.3665
20
2.1199
10
5.3744
20
2.1278
10
5.3744
20
2.1435
10
5.3901
20
2.1592
10
5.3901
20
2.1749
10
5.3979
20
2.1827
10
5.3979
20
2.1906
10
5.4058
20
2.1984
10
5.4058
20
2.2063
10
5.4136
20
2.2141
10
5.4136
20
2.2220
10
5.4215
20
2.2298
10
5.4215
20
2.2377
10
5.4293
20
2.2455
10
5.4293
20
2.2534
10
5.4372
20
2.2612
10
5.4450
20
2.2848
10
5.4607
20
2.3005
10
5.4607
20
2.3083
10
5.4764
20
2.3240
10
5.4764
20
2.3319
10
5.5078
20
2.3633
10
5.5078
20
2.3712
10
5.5392
20
2.4026
10
5.5392
20
2.4104
10
5.5510
20
2.4222
10
5.5589
20
2.4222
10
5.6374
20
2.5007
10
5.6452
20
2.5007
10
5.6766
20
2.5321
10
5.6845
20
2.5321
10
5.7080
20
2.5557
10
5.7316
20
2.5635
10
5.7473
20
2.5792
10
5.7630
20
2.5792
10
5.7866
20
2.6028
10
5.8023
20
2.6028
10
5.8101
20
2.6106
10
5.8180
20
2.6106
10
5.8337
20
2.6263
10
5.8494
20
2.6263
10
5.8886
20
2.6499
10
5.9043
20
2.6499
10
5.9279
20
2.6656
10
5.9436
20
2.6656
10
5.9828
20
2.6891
10
6.0064
20
2.6891
10
6.0143
20
2.6970
10
6.0378
20
2.6970
10
6.0614
20
2.7127
10
6.0771
20
2.7127
10
6.0849
20
2.7205
10
6.1085
20
2.7205
10
6.1320
20
2.7362
10
6.1791
20
2.7362
10
6.1870
20
2.7441
10
6.2184
20
2.7441
10
6.2262
20
2.7520
10
6.2419
20
2.7520
10
6.2498
20
2.7598
10
6.3048
20
2.7598
10
6.3126
20
2.7677
10
6.3833
20
2.7677
10
6.3911
20
2.7755
10
6.4618
20
2.7755
10
6.4696
20
2.7834
10
6.4932
20
2.7834
10
6.5010
20
2.7912
10
6.8387
20
2.7912
10
6.8465
20
2.7991
10
6.9800
20
2.7991
10
6.9878
20
2.7912
10
7.0035
20
2.7912
10
7.0114
20
2.7991
10
7.0821
20
2.7991
10
7.0899
20
2.7912
10
7.0978
20
2.7991
10
7.1527
20
2.7991
10
7.1606
20
2.7912
10
7.1763
20
2.7912
10
7.1841
20
2.7991
10
7.4040
20
2.7991
10
7.4157
20
2.8108
10
7.4157
20
2.8579
10
7.4079
20
2.8658
10
7.4079
20
2.9129
10
7.4000
20
2.9208
10
7.4000
20
2.9365
10
7.3922
20
2.9443
10
7.3922
20
2.9757
10
7.3843
20
2.9836
10
7.3843
20
2.9993
10
7.3686
20
3.0228
10
7.3686
20
3.0385
10
7.3529
20
3.0542
10
7.3529
20
3.0699
10
7.3451
20
3.0778
10
7.3451
20
3.0856
10
7.3215
20
3.1092
10
7.3215
20
3.1170
10
7.2744
20
3.1642
10
7.2705
20
3.1759
10
7.2626
20
3.1759
10
7.2391
20
3.1995
10
7.2312
20
3.1995
10
7.2077
20
3.2230
10
7.1841
20
3.2309
10
7.1684
20
3.2466
10
7.1527
20
3.2466
10
7.1449
20
3.2544
10
7.1370
20
3.2544
10
7.1292
20
3.2623
10
7.1135
20
3.2623
10
7.0899
20
3.2780
10
7.0742
20
3.2780
10
7.0664
20
3.2859
10
7.0428
20
3.2859
10
7.0349
20
3.2937
10
7.0114
20
3.2937
10
7.0035
20
3.3016
10
6.9800
20
3.3016
10
6.9721
20
3.3094
10
6.9407
20
3.3094
10
6.9329
20
3.3173
10
6.6424
20
3.3173
10
6.6345
20
3.3094
10
6.5953
20
3.3094
10
6.5874
20
3.3016
10
6.5167
20
3.3016
10
6.5089
20
3.2937
10
6.4853
20
3.2937
10
6.4775
20
3.2859
10
6.4304
20
3.2859
10
6.4225
20
3.2780
10
6.3990
20
3.2780
10
6.3911
20
3.2702
10
6.3676
20
3.2702
10
6.3597
20
3.2623
10
6.3440
20
3.2623
10
6.3362
20
3.2544
10
6.3126
20
3.2544
10
6.2891
20
3.2387
10
6.2655
20
3.2387
10
6.2576
20
3.2309
10
6.2419
20
3.2309
10
6.2341
20
3.2230
10
6.2184
20
3.2230
10
6.2105
20
3.2152
10
6.1948
20
3.2152
10
6.1870
20
3.2073
10
6.1713
20
3.2073
10
6.1634
20
3.1995
10
6.1556
20
3.1995
10
6.1477
20
3.1916
10
6.1399
20
3.1916
10
6.1320
20
3.1838
10
6.1242
20
3.1838
10
6.0849
20
3.1602
10
6.0692
20
3.1602
10
6.0457
20
3.1445
10
6.0300
20
3.1445
10
6.0221
20
3.1367
10
6.0143
20
3.1367
10
5.9985
20
3.1210
10
5.9828
20
3.1210
10
5.9750
20
3.1131
10
5.9671
20
3.1131
10
5.9514
20
3.0974
10
5.9436
20
3.0974
10
5.9357
20
3.0896
10
5.9279
20
3.0896
10
5.8886
20
3.0660
10
5.8729
20
3.0660
10
5.8651
20
3.0582
10
5.8454
20
3.0778
10
5.8454
20
3.0856
10
5.8140
20
3.1249
10
5.8062
20
3.1485
10
5.7826
20
3.1720
10
5.7826
20
3.1877
10
5.7748
20
3.1956
10
5.7748
20
3.2034
10
5.7591
20
3.2191
10
5.7591
20
3.2270
10
5.7512
20
3.2348
10
5.7512
20
3.2427
10
5.7355
20
3.2584
10
5.7355
20
3.2662
10
5.7277
20
3.2741
10
5.7198
20
3.2976
10
5.7041
20
3.3133
10
5.7041
20
3.3212
10
5.6963
20
3.3290
10
5.6963
20
3.3369
10
5.6884
20
3.3447
10
5.6884
20
3.3526
10
5.6806
20
3.3604
10
5.6727
20
3.3840
10
5.6492
20
3.4076
10
5.6492
20
3.4154
10
5.6413
20
3.4233
10
5.6413
20
3.4468
10
5.6452
20
3.4507
10
5.6688
20
3.4586
10
5.6923
20
3.4821
10
5.7002
20
3.4821
10
5.7394
20
3.5135
10
5.7552
20
3.5135
10
5.7709
20
3.5293
10
5.7866
20
3.5293
10
5.8023
20
3.5450
10
5.8101
20
3.5450
10
5.8180
20
3.5528
10
5.8258
20
3.5528
10
5.8337
20
3.5607
10
5.8415
20
3.5607
10
5.8494
20
3.5685
10
5.8572
20
3.5685
10
5.8965
20
3.5921
10
5.9122
20
3.5921
10
5.9200
20
3.5999
10
5.9279
20
3.5999
10
5.9357
20
3.6078
10
5.9436
20
3.6078
10
5.9828
20
3.6313
10
5.9985
20
3.6313
10
6.0064
20
3.6392
10
6.0221
20
3.6392
10
6.0457
20
3.6549
10
6.0614
20
3.6549
10
6.0692
20
3.6627
10
6.0849
20
3.6627
10
6.0928
20
3.6706
10
6.1085
20
3.6706
10
6.1320
20
3.6863
10
6.1556
20
3.6863
10
6.1634
20
3.6941
10
6.1870
20
3.6941
10
6.1948
20
3.7020
10
6.2105
20
3.7020
10
6.2184
20
3.7098
10
6.2341
20
3.7098
10
6.2419
20
3.7177
10
6.2655
20
3.7177
10
6.2734
20
3.7255
10
6.2969
20
3.7255
10
6.3048
20
3.7334
10
6.3362
20
3.7334
10
6.3440
20
3.7412
10
6.3676
20
3.7412
10
6.3754
20
3.7491
10
6.3990
20
3.7491
10
6.4068
20
3.7569
10
6.4382
20
3.7569
10
6.4461
20
3.7648
10
6.5010
20
3.7648
10
6.5089
20
3.7726
10
6.5167
20
3.7648
10
6.5246
20
3.7648
10
6.5325
20
3.7726
10
6.5953
20
3.7726
10
6.6031
20
3.7805
10
6.6502
20
3.7805
0
LWPOLYLINE
8
LOGO
90
244
70
1
10
6.6188
20
2.3672
10
6.6110
20
2.3594
10
6.5010
20
2.3594
10
6.4932
20
2.3515
10
6.4696
20
2.3515
10
6.4618
20
2.3437
10
6.4147
20
2.3437
10
6.4068
20
2.3358
10
6.3676
20
2.3358
10
6.3597
20
2.3280
10
6.3440
20
2.3280
10
6.3362
20
2.3201
10
6.3205
20
2.3201
10
6.3126
20
2.3123
10
6.2969
20
2.3123
10
6.2891
20
2.3044
10
6.2655
20
2.3044
10
6.2576
20
2.2966
10
6.2498
20
2.2966
10
6.2419
20
2.2887
10
6.2341
20
2.2887
10
6.1948
20
2.2652
10
6.1791
20
2.2652
10
6.1713
20
2.2573
10
6.1556
20
2.2573
10
6.1320
20
2.2338
10
6.1242
20
2.2338
10
6.0928
20
2.2023
10
6.0849
20
2.2023
10
6.0535
20
2.1709
10
6.0417
20
2.1670
10
6.0417
20
2.1592
10
5.9946
20
2.1121
10
5.9946
20
2.1042
10
5.9789
20
2.0885
10
5.9789
20
2.0806
10
5.9711
20
2.0728
10
5.9711
20
2.0649
10
5.9475
20
2.0257
10
5.9475
20
2.0100
10
5.9397
20
2.0021
10
5.9397
20
1.9864
10
5.9318
20
1.9786
10
5.9318
20
1.9472
10
5.9240
20
1.9393
10
5.9240
20
1.9079
10
5.9161
20
1.9001
10
5.9161
20
1.8294
10
5.9240
20
1.8215
10
5.9240
20
1.7901
10
5.9318
20
1.7823
10
5.9318
20
1.7587
10
5.9397
20
1.7509
10
5.9397
20
1.7352
10
5.9475
20
1.7273
10
5.9475
20
1.7038
10
5.9554
20
1.6959
10
5.9554
20
1.6881
10
5.9632
20
1.6802
10
5.9711
20
1.6567
10
5.9868
20
1.6410
10
5.9868
20
1.6331
10
5.9946
20
1.6253
10
5.9750
20
1.6135
10
5.9436
20
1.6135
10
5.9357
20
1.6056
10
5.8965
20
1.6056
10
5.8886
20
1.5978
10
5.8651
20
1.5978
10
5.8572
20
1.5899
10
5.8337
20
1.5899
10
5.8258
20
1.5821
10
5.8101
20
1.5821
10
5.8023
20
1.5742
10
5.7787
20
1.5742
10
5.7709
20
1.5664
10
5.7630
20
1.5664
10
5.7552
20
1.5585
10
5.7394
20
1.5585
10
5.7316
20
1.5507
10
5.7080
20
1.5507
10
5.7002
20
1.5428
10
5.6923
20
1.5428
10
5.6845
20
1.5350
10
5.6766
20
1.5350
10
5.6688
20
1.5271
10
5.6452
20
1.5193
10
5.6295
20
1.5036
10
5.6217
20
1.5036
10
5.6060
20
1.4879
10
5.5981
20
1.4879
10
5.5863
20
1.4761
10
5.5863
20
1.4682
10
5.5549
20
1.4368
10
5.5549
20
1.4290
10
5.5471
20
1.4211
10
5.5471
20
1.3976
10
5.5392
20
1.3897
10
5.5471
20
1.3819
10
5.5471
20
1.3583
10
5.5549
20
1.3505
10
5.5549
20
1.3426
10
5.5785
20
1.3191
10
5.5785
20
1.3112
10
5.6060
20
1.2837
10
5.6295
20
1.2759
10
5.6452
20
1.2602
10
5.6531
20
1.2602
10
5.6923
20
1.2366
10
5.7080
20
1.2366
10
5.7316
20
1.2209
10
5.7552
20
1.2209
10
5.7630
20
1.2131
10
5.7787
20
1.2131
10
5.7944
20
1.1974
10
5.8180
20
1.1974
10
5.8258
20
1.1895
10
5.8494
20
1.1895
10
5.8572
20
1.1817
10
5.8729
20
1.1817
10
5.8808
20
1.1738
10
5.9122
20
1.1738
10
5.9200
20
1.1659
10
5.9750
20
1.1659
10
5.9828
20
1.1581
10
6.0064
20
1.1581
10
6.0143
20
1.1502
10
6.0535
20
1.1502
10
6.0614
20
1.1424
10
6.1870
20
1.1424
10
6.1948
20
1.1345
10
6.2576
20
1.1345
10
6.2655
20
1.1267
10
6.3597
20
1.1267
10
6.3676
20
1.1345
10
6.4461
20
1.1345
10
6.4539
20
1.1424
10
6.5639
20
1.1424
10
6.5717
20
1.1502
10
6.5953
20
1.1502
10
6.6031
20
1.1581
10
6.6659
20
1.1581
10
6.6738
20
1.1659
10
6.7209
20
1.1659
10
6.7287
20
1.1738
10
6.7523
20
1.1738
10
6.7601
20
1.1817
10
6.7758
20
1.1817
10
6.7837
20
1.1895
10
6.7994
20
1.1895
10
6.8073
20
1.1974
10
6.8308
20
1.1974
10
6.8387
20
1.2052
10
6.8544
20
1.2052
10
6.8779
20
1.2209
10
6.8936
20
1.2209
10
6.9015
20
1.2288
10
6.9172
20
1.2288
10
6.9329
20
1.2445
10
6.9407
20
1.2445
10
6.9486
20
1.2523
10
6.9721
20
1.2602
10
6.9957
20
1.2837
10
7.0035
20
1.2837
10
7.0546
20
1.3348
10
7.0546
20
1.3426
10
7.0624
20
1.3505
10
7.0624
20
1.3662
10
7.0703
20
1.3740
10
7.0703
20
1.4211
10
7.0624
20
1.4290
10
7.0624
20
1.4368
10
7.0389
20
1.4604
10
7.0389
20
1.4682
10
7.0114
20
1.4957
10
7.0035
20
1.4957
10
6.9878
20
1.5114
10
6.9800
20
1.5114
10
6.9721
20
1.5193
10
6.9486
20
1.5271
10
6.9329
20
1.5428
10
6.9250
20
1.5428
10
6.9172
20
1.5507
10
6.9015
20
1.5507
10
6.8936
20
1.5585
10
6.8701
20
1.5664
10
6.8661
20
1.5782
10
6.8858
20
1.5899
10
6.8936
20
1.5899
10
6.9093
20
1.6056
10
6.9172
20
1.6056
10
6.9407
20
1.6292
10
6.9486
20
1.6292
10
6.9721
20
1.6527
10
6.9800
20
1.6527
10
6.9957
20
1.6684
10
7.0035
20
1.6684
10
7.0349
20
1.6999
10
7.0428
20
1.6999
10
7.0546
20
1.7116
10
7.0546
20
1.7195
10
7.0664
20
1.7313
10
7.0742
20
1.7313
10
7.1095
20
1.7666
10
7.1095
20
1.7744
10
7.1331
20
1.7980
10
7.1331
20
1.8058
10
7.1802
20
1.8530
10
7.1802
20
1.8608
10
7.1959
20
1.8765
10
7.1959
20
1.8844
10
7.2038
20
1.8922
10
7.2116
20
1.9158
10
7.2273
20
1.9315
10
7.2273
20
1.9393
10
7.2430
20
1.9629
10
7.2430
20
1.9786
10
7.2509
20
1.9864
10
7.2509
20
1.9943
10
7.2666
20
2.0178
10
7.2666
20
2.0335
10
7.2823
20
2.0571
10
7.2823
20
2.0728
10
7.2901
20
2.0806
10
7.2901
20
2.0964
10
7.2980
20
2.1042
10
7.2980
20
2.1278
10
7.3137
20
2.1513
10
7.3137
20
2.1906
10
7.3215
20
2.1984
10
7.3215
20
2.2220
10
7.3294
20
2.2298
10
7.3294
20
2.2612
10
7.3372
20
2.2691
10
7.3372
20
2.2926
10
7.3451
20
2.3005
10
7.3451
20
2.3319
10
7.3529
20
2.3397
10
7.3529
20
2.3476
10
7.3412
20
2.3594
10
7.2940
20
2.3594
10
7.2862
20
2.3672
10
7.2783
20
2.3594
10
7.2705
20
2.3672
0
LWPOLYLINE
8
LOGO
90
470
70
1
10
11.7930
20
3.7884
10
12.1541
20
3.7884
10
12.1620
20
3.7805
10
12.1777
20
3.7805
10
12.1855
20
3.7726
10
12.1934
20
3.7805
10
12.2012
20
3.7726
10
12.2562
20
3.7726
10
12.2640
20
3.7648
10
12.3112
20
3.7648
10
12.3190
20
3.7569
10
12.3347
20
3.7569
10
12.3426
20
3.7491
10
12.3583
20
3.7491
10
12.3661
20
3.7412
10
12.3975
20
3.7412
10
12.4211
20
3.7255
10
12.4368
20
3.7255
10
12.4446
20
3.7177
10
12.4682
20
3.7177
10
12.4760
20
3.7098
10
12.4839
20
3.7098
10
12.5074
20
3.6941
10
12.5231
20
3.6941
10
12.5310
20
3.6863
10
12.5546
20
3.6863
10
12.5703
20
3.6706
10
12.5781
20
3.6706
10
12.5860
20
3.6627
10
12.6017
20
3.6627
10
12.6409
20
3.6313
10
12.6566
20
3.6313
10
12.6723
20
3.6156
10
12.6802
20
3.6156
10
12.7194
20
3.5842
10
12.7351
20
3.5842
10
12.7430
20
3.5764
10
12.7508
20
3.5764
10
12.7822
20
3.5450
10
12.7901
20
3.5450
10
12.8058
20
3.5293
10
12.8294
20
3.5214
10
12.9236
20
3.4272
10
12.9314
20
3.4272
10
12.9746
20
3.3840
10
12.9746
20
3.3761
10
12.9864
20
3.3644
10
12.9942
20
3.3644
10
13.0060
20
3.3526
10
13.0060
20
3.3447
10
13.0296
20
3.3212
10
13.0296
20
3.3133
10
13.0453
20
3.2976
10
13.0453
20
3.2898
10
13.0610
20
3.2741
10
13.0610
20
3.2662
10
13.0767
20
3.2505
10
13.0767
20
3.2427
10
13.1002
20
3.2191
10
13.1081
20
3.1956
10
13.1238
20
3.1799
10
13.1238
20
3.1720
10
13.1316
20
3.1642
10
13.1395
20
3.1406
10
13.1552
20
3.1249
10
13.1552
20
3.1092
10
13.1630
20
3.1013
10
13.1709
20
3.0778
10
13.1866
20
3.0621
10
13.1866
20
3.0542
10
13.1945
20
3.0464
10
13.1945
20
3.0307
10
13.2180
20
2.9914
10
13.2180
20
2.9600
10
13.2259
20
2.9522
10
13.2259
20
2.9443
10
13.2337
20
2.9365
10
13.2337
20
2.9208
10
13.2416
20
2.9129
10
13.2416
20
2.8894
10
13.2494
20
2.8815
10
13.2494
20
2.8579
10
13.2651
20
2.8344
10
13.2651
20
2.8108
10
13.2730
20
2.8030
10
13.2730
20
2.7794
10
13.2808
20
2.7716
10
13.2808
20
2.7480
10
13.2887
20
2.7402
10
13.2887
20
2.7245
10
13.2965
20
2.7166
10
13.2965
20
2.6695
10
13.3044
20
2.6617
10
13.3044
20
2.6146
10
13.3122
20
2.6067
10
13.3122
20
2.5596
10
13.3201
20
2.5517
10
13.3201
20
2.2298
10
13.3122
20
2.2220
10
13.3122
20
2.1906
10
13.3004
20
2.1788
10
11.2119
20
2.1788
10
11.2080
20
2.1749
10
11.2080
20
2.1278
10
11.2159
20
2.1199
10
11.2159
20
2.0806
10
11.2237
20
2.0728
10
11.2237
20
2.0492
10
11.2394
20
2.0257
10
11.2394
20
1.9943
10
11.2473
20
1.9864
10
11.2473
20
1.9707
10
11.2551
20
1.9629
10
11.2551
20
1.9550
10
11.2630
20
1.9472
10
11.2630
20
1.9315
10
11.2708
20
1.9236
10
11.2708
20
1.9001
10
11.2787
20
1.8922
10
11.2787
20
1.8844
10
11.2865
20
1.8765
10
11.2944
20
1.8530
10
11.3258
20
1.8137
10
11.3336
20
1.7901
10
11.3572
20
1.7666
10
11.3572
20
1.7587
10
11.3808
20
1.7352
10
11.3808
20
1.7273
10
11.4632
20
1.6449
10
11.4710
20
1.6449
10
11.4867
20
1.6292
10
11.4946
20
1.6292
10
11.5182
20
1.6056
10
11.5260
20
1.6056
10
11.5574
20
1.5742
10
11.5653
20
1.5742
10
11.5731
20
1.5664
10
11.5888
20
1.5664
10
11.5967
20
1.5585
10
11.6045
20
1.5585
10
11.6202
20
1.5428
10
11.6359
20
1.5428
10
11.6595
20
1.5193
10
11.6830
20
1.5193
10
11.7066
20
1.5036
10
11.7223
20
1.5036
10
11.7301
20
1.4957
10
11.7458
20
1.4957
10
11.7537
20
1.4879
10
11.7773
20
1.4879
10
11.7851
20
1.4800
10
11.8008
20
1.4800
10
11.8087
20
1.4722
10
11.8479
20
1.4722
10
11.8558
20
1.4643
10
11.8793
20
1.4643
10
11.8872
20
1.4565
10
12.2012
20
1.4565
10
12.2091
20
1.4643
10
12.2483
20
1.4643
10
12.2562
20
1.4722
10
12.2876
20
1.4722
10
12.2955
20
1.4800
10
12.3112
20
1.4800
10
12.3190
20
1.4879
10
12.3347
20
1.4879
10
12.3426
20
1.4957
10
12.3583
20
1.4957
10
12.3661
20
1.5036
10
12.3740
20
1.5036
10
12.3818
20
1.5114
10
12.3975
20
1.5114
10
12.4054
20
1.5193
10
12.4132
20
1.5193
10
12.4211
20
1.5271
10
12.4289
20
1.5271
10
12.4368
20
1.5350
10
12.4446
20
1.5350
10
12.4525
20
1.5428
10
12.4760
20
1.5507
10
12.4917
20
1.5664
10
12.4996
20
1.5664
10
12.5074
20
1.5742
10
12.5310
20
1.5821
10
12.5546
20
1.6056
10
12.5624
20
1.6056
10
12.5781
20
1.6213
10
12.5860
20
1.6213
10
12.6095
20
1.6449
10
12.6174
20
1.6449
10
12.6645
20
1.6920
10
12.6723
20
1.6920
10
12.7077
20
1.7273
10
12.7077
20
1.7352
10
12.7548
20
1.7823
10
12.7548
20
1.7901
10
12.8058
20
1.8412
10
12.8137
20
1.8412
10
12.8451
20
1.8098
10
12.8529
20
1.8098
10
12.9079
20
1.7627
10
12.9236
20
1.7627
10
12.9550
20
1.7313
10
12.9628
20
1.7313
10
12.9864
20
1.7077
10
12.9942
20
1.7077
10
13.0178
20
1.6841
10
13.0256
20
1.6841
10
13.0806
20
1.6370
10
13.1042
20
1.6292
10
13.1591
20
1.5821
10
13.1748
20
1.5821
10
13.1945
20
1.5624
10
13.1866
20
1.5389
10
13.1630
20
1.5153
10
13.1630
20
1.5075
10
13.1316
20
1.4761
10
13.1316
20
1.4682
10
13.1002
20
1.4368
10
13.1002
20
1.4290
10
13.0531
20
1.3819
10
13.0531
20
1.3740
10
12.9864
20
1.3073
10
12.9785
20
1.3073
10
12.9471
20
1.2759
10
12.9393
20
1.2759
10
12.9000
20
1.2366
10
12.8922
20
1.2366
10
12.8765
20
1.2209
10
12.8686
20
1.2209
10
12.8294
20
1.1895
10
12.8058
20
1.1817
10
12.7822
20
1.1581
10
12.7744
20
1.1581
10
12.7665
20
1.1502
10
12.7430
20
1.1424
10
12.7273
20
1.1267
10
12.7116
20
1.1267
10
12.7037
20
1.1188
10
12.6959
20
1.1188
10
12.6802
20
1.1031
10
12.6645
20
1.1031
10
12.6409
20
1.0874
10
12.6252
20
1.0874
10
12.6174
20
1.0796
10
12.6095
20
1.0796
10
12.6017
20
1.0717
10
12.5860
20
1.0717
10
12.5624
20
1.0560
10
12.5388
20
1.0560
10
12.5153
20
1.0403
10
12.4996
20
1.0403
10
12.4917
20
1.0325
10
12.4682
20
1.0325
10
12.4603
20
1.0246
10
12.4368
20
1.0246
10
12.4289
20
1.0168
10
12.4132
20
1.0168
10
12.4054
20
1.0089
10
12.3661
20
1.0089
10
12.3583
20
1.0011
10
12.3269
20
1.0011
10
12.3190
20
0.9932
10
12.2719
20
0.9932
10
12.2640
20
0.9854
10
12.2405
20
0.9854
10
12.2326
20
0.9775
10
12.0992
20
0.9775
10
12.0913
20
0.9697
10
12.0678
20
0.9697
10
12.0599
20
0.9775
10
12.0442
20
0.9775
10
12.0364
20
0.9697
10
12.0207
20
0.9697
10
12.0128
20
0.9775
10
11.8165
20
0.9775
10
11.8087
20
0.9854
10
11.7851
20
0.9854
10
11.7773
20
0.9932
10
11.7301
20
0.9932
10
11.7223
20
1.0011
10
11.7066
20
1.0011
10
11.6987
20
1.0089
10
11.6516
20
1.0089
10
11.6438
20
1.0168
10
11.6281
20
1.0168
10
11.6202
20
1.0246
10
11.5967
20
1.0246
10
11.5888
20
1.0325
10
11.5653
20
1.0325
10
11.5574
20
1.0403
10
11.5260
20
1.0403
10
11.5182
20
1.0482
10
11.5025
20
1.0482
10
11.4789
20
1.0639
10
11.4632
20
1.0639
10
11.4553
20
1.0717
10
11.4396
20
1.0717
10
11.4161
20
1.0874
10
11.3925
20
1.0874
10
11.3768
20
1.1031
10
11.3611
20
1.1031
10
11.3454
20
1.1188
10
11.3219
20
1.1188
10
11.2983
20
1.1424
10
11.2826
20
1.1424
10
11.2748
20
1.1502
10
11.2669
20
1.1502
10
11.2276
20
1.1817
10
11.2041
20
1.1895
10
11.1648
20
1.2209
10
11.1570
20
1.2209
10
11.1491
20
1.2288
10
11.1413
20
1.2288
10
11.1256
20
1.2445
10
11.1177
20
1.2445
10
11.0706
20
1.2916
10
11.0471
20
1.2994
10
11.0274
20
1.3191
10
11.0274
20
1.3269
10
11.0157
20
1.3387
10
11.0078
20
1.3387
10
10.9882
20
1.3583
10
10.9882
20
1.3662
10
10.9764
20
1.3701
10
10.9568
20
1.3897
10
10.9568
20
1.3976
10
10.9175
20
1.4368
10
10.9175
20
1.4447
10
10.8861
20
1.4761
10
10.8861
20
1.4839
10
10.8743
20
1.4957
10
10.8626
20
1.4996
10
10.8626
20
1.5075
10
10.8469
20
1.5232
10
10.8469
20
1.5310
10
10.8154
20
1.5703
10
10.8076
20
1.5939
10
10.7919
20
1.6096
10
10.7840
20
1.6331
10
10.7605
20
1.6567
10
10.7605
20
1.6724
10
10.7526
20
1.6802
10
10.7526
20
1.6881
10
10.7291
20
1.7273
10
10.7291
20
1.7430
10
10.7134
20
1.7587
10
10.7134
20
1.7744
10
10.7055
20
1.7823
10
10.7055
20
1.7980
10
10.6820
20
1.8373
10
10.6820
20
1.8530
10
10.6741
20
1.8608
10
10.6741
20
1.8765
10
10.6584
20
1.9001
10
10.6584
20
1.9236
10
10.6506
20
1.9315
10
10.6506
20
1.9629
10
10.6427
20
1.9707
10
10.6427
20
1.9864
10
10.6349
20
1.9943
10
10.6349
20
2.0178
10
10.6270
20
2.0257
10
10.6270
20
2.0492
10
10.6192
20
2.0571
10
10.6192
20
2.1042
10
10.6113
20
2.1121
10
10.6113
20
2.1592
10
10.6035
20
2.1670
10
10.6035
20
2.1984
10
10.5956
20
2.2063
10
10.5956
20
2.3083
10
10.5878
20
2.3162
10
10.5878
20
2.4968
10
10.5956
20
2.5046
10
10.5956
20
2.5831
10
10.6035
20
2.5910
10
10.6035
20
2.6460
10
10.6113
20
2.6538
10
10.6113
20
2.6852
10
10.6192
20
2.6931
10
10.6192
20
2.7166
10
10.6270
20
2.7245
10
10.6270
20
2.7637
10
10.6349
20
2.7716
10
10.6349
20
2.7794
10
10.6427
20
2.7873
10
10.6427
20
2.8030
10
10.6506
20
2.8108
10
10.6506
20
2.8422
10
10.6663
20
2.8658
10
10.6663
20
2.8815
10
10.6741
20
2.8894
10
10.6741
20
2.9129
10
10.6820
20
2.9208
10
10.6820
20
2.9365
10
10.7055
20
2.9757
10
10.7055
20
2.9914
10
10.7134
20
2.9993
10
10.7134
20
3.0150
10
10.7291
20
3.0307
10
10.7291
20
3.0464
10
10.7369
20
3.0542
10
10.7369
20
3.0621
10
10.7448
20
3.0699
10
10.7448
20
3.0778
10
10.7526
20
3.0856
10
10.7605
20
3.1092
10
10.7762
20
3.1249
10
10.7762
20
3.1406
10
10.8076
20
3.1799
10
10.8076
20
3.1877
10
10.8154
20
3.1956
10
10.8154
20
3.2034
10
10.8311
20
3.2191
10
10.8311
20
3.2270
10
10.8547
20
3.2505
10
10.8547
20
3.2584
10
10.8940
20
3.2976
10
10.8940
20
3.3055
10
10.9175
20
3.3290
10
10.9175
20
3.3369
10
10.9489
20
3.3683
10
10.9489
20
3.3761
10
10.9843
20
3.4115
10
10.9921
20
3.4115
10
11.0471
20
3.4664
10
11.0549
20
3.4664
10
11.1020
20
3.5135
10
11.1099
20
3.5135
10
11.1648
20
3.5607
10
11.1884
20
3.5685
10
11.2276
20
3.5999
10
11.2355
20
3.5999
10
11.2434
20
3.6078
10
11.2591
20
3.6078
10
11.2748
20
3.6235
10
11.2826
20
3.6235
10
11.2905
20
3.6313
10
11.2983
20
3.6313
10
11.3062
20
3.6392
10
11.3140
20
3.6392
10
11.3219
20
3.6470
10
11.3297
20
3.6470
10
11.3376
20
3.6549
10
11.3454
20
3.6549
10
11.3533
20
3.6627
10
11.3611
20
3.6627
10
11.4004
20
3.6863
10
11.4161
20
3.6863
10
11.4239
20
3.6941
10
11.4396
20
3.6941
10
11.4632
20
3.7098
10
11.4789
20
3.7098
10
11.4867
20
3.7177
10
11.5025
20
3.7177
10
11.5260
20
3.7334
10
11.5496
20
3.7334
10
11.5574
20
3.7412
10
11.5810
20
3.7412
10
11.5888
20
3.7491
10
11.6124
20
3.7491
10
11.6202
20
3.7569
10
11.6438
20
3.7569
10
11.6516
20
3.7648
10
11.6752
20
3.7648
10
11.6830
20
3.7726
10
11.7616
20
3.7726
10
11.7694
20
3.7805
10
11.7851
20
3.7805
0
LWPOLYLINE
8
LOGO
90
170
70
1
10
11.9107
20
3.3251
10
11.9029
20
3.3173
10
11.8636
20
3.3173
10
11.8558
20
3.3094
10
11.8008
20
3.3094
10
11.7930
20
3.3016
10
11.7616
20
3.3016
10
11.7537
20
3.2937
10
11.7380
20
3.2937
10
11.7301
20
3.2859
10
11.7144
20
3.2859
10
11.7066
20
3.2780
10
11.6909
20
3.2780
10
11.6830
20
3.2702
10
11.6752
20
3.2702
10
11.6516
20
3.2544
10
11.6359
20
3.2544
10
11.6281
20
3.2466
10
11.6202
20
3.2466
10
11.6124
20
3.2387
10
11.5888
20
3.2309
10
11.5731
20
3.2152
10
11.5496
20
3.2073
10
11.5339
20
3.1916
10
11.5260
20
3.1916
10
11.5103
20
3.1759
10
11.5025
20
3.1759
10
11.4632
20
3.1367
10
11.4553
20
3.1367
10
11.4436
20
3.1249
10
11.4436
20
3.1170
10
11.4122
20
3.0856
10
11.4122
20
3.0778
10
11.4004
20
3.0739
10
11.3808
20
3.0542
10
11.3808
20
3.0464
10
11.3572
20
3.0228
10
11.3493
20
2.9993
10
11.3258
20
2.9757
10
11.3258
20
2.9679
10
11.3179
20
2.9600
10
11.3179
20
2.9522
10
11.3101
20
2.9443
10
11.3101
20
2.9365
10
11.3022
20
2.9286
10
11.3022
20
2.9208
10
11.2944
20
2.9129
10
11.2944
20
2.9051
10
11.2708
20
2.8658
10
11.2708
20
2.8501
10
11.2630
20
2.8422
10
11.2630
20
2.8265
10
11.2551
20
2.8187
10
11.2551
20
2.8108
10
11.2473
20
2.8030
10
11.2473
20
2.7873
10
11.2394
20
2.7794
10
11.2394
20
2.7480
10
11.2316
20
2.7402
10
11.2316
20
2.7245
10
11.2237
20
2.7166
10
11.2237
20
2.7009
10
11.2159
20
2.6931
10
11.2159
20
2.6695
10
11.2080
20
2.6617
10
11.2080
20
2.6146
10
11.2119
20
2.6106
10
11.4632
20
2.6106
10
11.4750
20
2.5988
10
11.4750
20
2.4026
10
11.4867
20
2.3908
10
11.5025
20
2.3908
10
11.5142
20
2.4026
10
11.5142
20
2.5046
10
11.5064
20
2.5125
10
11.5064
20
2.5753
10
11.5142
20
2.5831
10
11.5142
20
2.6067
10
11.5182
20
2.6106
10
12.1227
20
2.6106
10
12.1345
20
2.5988
10
12.1345
20
2.3633
10
12.1384
20
2.3594
10
12.1620
20
2.3594
10
12.1659
20
2.3633
10
12.1659
20
2.5988
10
12.1777
20
2.6106
10
12.3112
20
2.6106
10
12.3308
20
2.5988
10
12.3308
20
2.5674
10
12.3386
20
2.5596
10
12.3386
20
2.3005
10
12.3504
20
2.2887
10
12.3583
20
2.2887
10
12.3700
20
2.3005
10
12.3700
20
2.4497
10
12.3622
20
2.4575
10
12.3700
20
2.4654
10
12.3622
20
2.4732
10
12.3622
20
2.4811
10
12.3700
20
2.4889
10
12.3622
20
2.4968
10
12.3622
20
2.5517
10
12.3700
20
2.5596
10
12.3700
20
2.6067
10
12.3740
20
2.6106
10
12.6959
20
2.6106
10
12.6998
20
2.6146
10
12.6998
20
2.6224
10
12.7077
20
2.6303
10
12.7077
20
2.6460
10
12.6998
20
2.6538
10
12.6998
20
2.6852
10
12.6920
20
2.6931
10
12.6920
20
2.7245
10
12.6841
20
2.7323
10
12.6841
20
2.7559
10
12.6763
20
2.7637
10
12.6763
20
2.7951
10
12.6684
20
2.8030
10
12.6684
20
2.8108
10
12.6605
20
2.8187
10
12.6605
20
2.8344
10
12.6527
20
2.8422
10
12.6527
20
2.8658
10
12.6370
20
2.8815
10
12.6370
20
2.8894
10
12.6213
20
2.9129
10
12.6213
20
2.9286
10
12.6134
20
2.9365
10
12.6134
20
2.9443
10
12.5977
20
2.9600
10
12.5977
20
2.9679
10
12.5899
20
2.9757
10
12.5820
20
2.9993
10
12.5663
20
3.0150
10
12.5663
20
3.0228
10
12.5428
20
3.0464
10
12.5428
20
3.0542
10
12.5192
20
3.0778
10
12.5192
20
3.0856
10
12.4878
20
3.1170
10
12.4878
20
3.1249
10
12.4760
20
3.1367
10
12.4682
20
3.1367
10
12.4525
20
3.1524
10
12.4446
20
3.1524
10
12.4132
20
3.1838
10
12.4054
20
3.1838
10
12.3661
20
3.2152
10
12.3583
20
3.2152
10
12.3504
20
3.2230
10
12.3269
20
3.2309
10
12.3112
20
3.2466
10
12.3033
20
3.2466
10
12.2955
20
3.2544
10
12.2719
20
3.2544
10
12.2326
20
3.2780
10
12.2169
20
3.2780
10
12.2091
20
3.2859
10
12.1934
20
3.2859
10
12.1855
20
3.2937
10
12.1698
20
3.2937
10
12.1620
20
3.3016
10
12.1384
20
3.3016
10
12.1306
20
3.3094
10
12.0913
20
3.3094
10
12.0835
20
3.3173
10
12.0207
20
3.3173
10
12.0128
20
3.3251
0
LWPOLYLINE
8
LOGO
90
9
70
1
10
11.0785
20
3.0660
10
11.0667
20
3.0542
10
11.0667
20
2.3869
10
11.0785
20
2.3751
10
11.0863
20
2.3751
10
11.0981
20
2.3869
10
11.0981
20
3.0464
10
11.0902
20
3.0542
10
11.0902
20
3.0621
0
LWPOLYLINE
8
LOGO
90
8
70
1
10
10.9136
20
2.3358
10
10.9018
20
2.3162
10
10.9018
20
1.8294
10
10.9214
20
1.8098
10
10.9332
20
1.8215
10
10.9332
20
2.3083
10
10.9411
20
2.3162
10
10.9293
20
2.3358
0
LWPOLYLINE
8
LOGO
90
11
70
1
10
10.7644
20
2.7834
10
10.7526
20
2.7716
10
10.7526
20
2.2063
10
10.7566
20
2.2023
10
10.7723
20
2.2023
10
10.7840
20
2.2141
10
10.7840
20
2.3712
10
10.7762
20
2.3790
10
10.7762
20
2.6303
10
10.7840
20
2.6381
10
10.7840
20
2.7637
0
LWPOLYLINE
8
LOGO
90
8
70
1
10
12.8843
20
2.8540
10
12.8725
20
2.8422
10
12.8725
20
2.3947
10
12.8843
20
2.3829
10
12.8922
20
2.3829
10
12.9039
20
2.3947
10
12.9039
20
2.8422
10
12.8922
20
2.8540
0
LWPOLYLINE
8
LOGO
90
8
70
1
10
11.2434
20
3.5371
10
11.2316
20
3.5253
10
11.2316
20
3.1092
10
11.2434
20
3.0974
10
11.2512
20
3.0974
10
11.2630
20
3.1092
10
11.2630
20
3.5253
10
11.2512
20
3.5371
0
LWPOLYLINE
8
LOGO
90
9
70
1
10
12.6959
20
3.4743
10
12.6841
20
3.4547
10
12.6920
20
3.4468
10
12.6920
20
3.0228
10
12.7037
20
3.0111
10
12.7116
20
3.0111
10
12.7155
20
3.0150
10
12.7155
20
3.4704
10
12.7116
20
3.4743
0
LWPOLYLINE
8
LOGO
90
9
70
1
10
13.0649
20
3.0503
10
13.0531
20
3.0385
10
13.0531
20
2.7009
10
13.0570
20
2.6970
10
13.0728
20
2.6970
10
13.0845
20
2.7088
10
13.0845
20
3.0307
10
13.0767
20
3.0385
10
13.0767
20
3.0464
0
LWPOLYLINE
8
LOGO
90
8
70
1
10
12.3347
20
3.7098
10
12.3229
20
3.6902
10
12.3229
20
3.3918
10
12.3426
20
3.3722
10
12.3504
20
3.3722
10
12.3543
20
3.3761
10
12.3543
20
3.7059
10
12.3504
20
3.7098
0
LWPOLYLINE
8
LOGO
90
8
70
1
10
11.6281
20
3.7020
10
11.6163
20
3.6902
10
11.6163
20
3.4154
10
11.6281
20
3.3958
10
11.6438
20
3.3958
10
11.6477
20
3.3997
10
11.6477
20
3.6902
10
11.6359
20
3.7020
0
LWPOLYLINE
8
LOGO
90
8
70
1
10
12.8843
20
3.2780
10
12.8725
20
3.2584
10
12.8725
20
3.0228
10
12.8843
20
3.0111
10
12.9000
20
3.0111
10
12.9039
20
3.0150
10
12.9039
20
3.2662
10
12.8922
20
3.2780
0
LWPOLYLINE
8
LOGO
90
8
70
1
10
11.9735
20
3.6706
10
11.9618
20
3.6588
10
11.9618
20
3.4625
10
11.9735
20
3.4507
10
11.9814
20
3.4507
10
11.9932
20
3.4625
10
11.9932
20
3.6588
10
11.9814
20
3.6706
0
LWPOLYLINE
8
LOGO
90
7
70
1
10
11.4396
20
3.5293
10
11.4279
20
3.5175
10
11.4279
20
3.3133
10
11.4318
20
3.3094
10
11.4475
20
3.3094
10
11.4514
20
3.3133
10
11.4514
20
3.5253
0
LWPOLYLINE
8
LOGO
90
7
70
1
10
11.9735
20
2.4065
10
11.9618
20
2.3947
10
11.9618
20
2.2534
10
11.9657
20
2.2495
10
11.9814
20
2.2495
10
11.9853
20
2.2534
10
11.9853
20
2.3947
0
LWPOLYLINE
8
LOGO
90
444
70
1
10
1.3348
20
3.7884
10
1.7273
20
3.7884
10
1.7352
20
3.7805
10
1.7666
20
3.7805
10
1.7744
20
3.7726
10
1.8451
20
3.7726
10
1.8530
20
3.7648
10
1.8922
20
3.7648
10
1.9001
20
3.7569
10
1.9315
20
3.7569
10
1.9393
20
3.7491
10
1.9629
20
3.7491
10
1.9707
20
3.7412
10
1.9864
20
3.7412
10
1.9943
20
3.7334
10
2.0257
20
3.7334
10
2.0335
20
3.7255
10
2.0492
20
3.7255
10
2.0571
20
3.7177
10
2.0728
20
3.7177
10
2.0806
20
3.7098
10
2.0964
20
3.7098
10
2.1042
20
3.7020
10
2.1199
20
3.7020
10
2.1435
20
3.6863
10
2.1670
20
3.6863
10
2.1749
20
3.6784
10
2.1906
20
3.6784
10
2.2063
20
3.6627
10
2.2141
20
3.6627
10
2.2220
20
3.6549
10
2.2455
20
3.6470
10
2.2612
20
3.6313
10
2.2769
20
3.6313
10
2.2848
20
3.6235
10
2.2926
20
3.6235
10
2.3083
20
3.6078
10
2.3319
20
3.5999
10
2.3476
20
3.5842
10
2.3555
20
3.5842
10
2.3790
20
3.5607
10
2.3869
20
3.5607
10
2.4183
20
3.5293
10
2.4261
20
3.5293
10
2.4536
20
3.5018
10
2.4536
20
3.4939
10
2.4654
20
3.4900
10
2.4771
20
3.4782
10
2.4771
20
3.4704
10
2.5164
20
3.4311
10
2.5164
20
3.4233
10
2.5321
20
3.4076
10
2.5321
20
3.3997
10
2.5635
20
3.3683
10
2.5714
20
3.3447
10
2.5871
20
3.3290
10
2.5871
20
3.3133
10
2.5949
20
3.3055
10
2.5949
20
3.2976
10
2.6185
20
3.2584
10
2.6185
20
3.2427
10
2.6263
20
3.2348
10
2.6263
20
3.2270
10
2.6342
20
3.2191
10
2.6342
20
3.2034
10
2.6499
20
3.1799
10
2.6499
20
3.1563
10
2.6577
20
3.1485
10
2.6577
20
3.1327
10
2.6656
20
3.1249
10
2.6656
20
3.1013
10
2.6734
20
3.0935
10
2.6734
20
3.0542
10
2.6813
20
3.0464
10
2.6813
20
3.0150
10
2.6891
20
3.0071
10
2.6891
20
2.7009
10
2.6813
20
2.6931
10
2.6813
20
2.6538
10
2.6734
20
2.6460
10
2.6734
20
2.5753
10
2.6656
20
2.5674
10
2.6656
20
2.5282
10
2.6577
20
2.5203
10
2.6577
20
2.4575
10
2.6499
20
2.4497
10
2.6499
20
2.4261
10
2.6420
20
2.4183
10
2.6420
20
2.3555
10
2.6342
20
2.3476
10
2.6342
20
2.3319
10
2.6263
20
2.3240
10
2.6263
20
2.2848
10
2.6185
20
2.2769
10
2.6185
20
2.2220
10
2.6106
20
2.2141
10
2.6106
20
2.1513
10
2.6028
20
2.1435
10
2.6028
20
2.1278
10
2.5949
20
2.1199
10
2.5949
20
2.0728
10
2.5871
20
2.0649
10
2.5871
20
2.0335
10
2.5753
20
2.0218
10
2.3712
20
2.0218
10
2.3515
20
2.0335
10
2.3515
20
2.0492
10
2.3437
20
2.0571
10
2.3633
20
2.0846
10
2.4340
20
2.0846
10
2.4536
20
2.1042
10
2.4536
20
2.1121
10
2.4614
20
2.1199
10
2.4614
20
2.1435
10
2.4536
20
2.1513
10
2.4536
20
2.1670
10
2.4261
20
2.1866
10
2.2534
20
2.1866
10
2.2455
20
2.1945
10
2.1592
20
2.1945
10
2.1513
20
2.1866
10
2.1435
20
2.1945
10
2.1278
20
2.1945
10
2.1199
20
2.1866
10
2.1042
20
2.1866
10
2.0964
20
2.1945
10
2.0885
20
2.1866
10
2.0806
20
2.1945
10
2.0728
20
2.1866
10
2.0649
20
2.1866
10
2.0571
20
2.1945
10
2.0257
20
2.1945
10
2.0178
20
2.1866
10
2.0061
20
2.1984
10
2.0061
20
2.2063
10
2.0218
20
2.2298
10
2.0218
20
2.2691
10
2.0296
20
2.2769
10
2.0296
20
2.3005
10
2.0375
20
2.3083
10
2.0375
20
2.3555
10
2.0335
20
2.3594
10
2.0021
20
2.3594
10
1.9943
20
2.3672
10
1.3269
20
2.3672
10
1.3191
20
2.3594
10
1.2091
20
2.3594
10
1.2013
20
2.3515
10
1.1699
20
2.3515
10
1.1620
20
2.3437
10
1.1228
20
2.3437
10
1.1149
20
2.3358
10
1.0678
20
2.3358
10
1.0600
20
2.3280
10
1.0442
20
2.3280
10
1.0364
20
2.3201
10
1.0207
20
2.3201
10
1.0128
20
2.3123
10
0.9893
20
2.3123
10
0.9657
20
2.2966
10
0.9422
20
2.2966
10
0.9029
20
2.2730
10
0.8872
20
2.2730
10
0.8794
20
2.2652
10
0.8715
20
2.2652
10
0.8637
20
2.2573
10
0.8401
20
2.2495
10
0.8244
20
2.2338
10
0.8009
20
2.2259
10
0.7852
20
2.2102
10
0.7773
20
2.2102
10
0.7537
20
2.1866
10
0.7459
20
2.1866
10
0.7027
20
2.1435
10
0.7027
20
2.1356
10
0.6713
20
2.1042
10
0.6713
20
2.0964
10
0.6635
20
2.0885
10
0.6635
20
2.0728
10
0.6556
20
2.0649
10
0.6477
20
2.0414
10
0.6281
20
2.0218
10
0.4397
20
2.0218
10
0.4318
20
2.0296
10
0.4083
20
2.0296
10
0.3965
20
2.0414
10
0.3965
20
2.0728
10
0.4083
20
2.0846
10
0.4161
20
2.0846
10
0.4240
20
2.0924
10
0.4946
20
2.0924
10
0.5143
20
2.1121
10
0.5143
20
2.1513
10
0.5064
20
2.1592
10
0.5064
20
2.1670
10
0.4868
20
2.1788
10
0.1649
20
2.1788
10
0.1570
20
2.1709
10
0.1492
20
2.1788
10
0.0864
20
2.1788
10
0.0824
20
2.1827
10
0.0824
20
2.1984
10
0.0903
20
2.2063
10
0.0903
20
2.2141
10
0.0981
20
2.2220
10
0.1060
20
2.2455
10
0.1217
20
2.2612
10
0.1295
20
2.2848
10
0.1453
20
2.3005
10
0.1531
20
2.3240
10
0.1845
20
2.3555
10
0.1845
20
2.3633
10
0.2316
20
2.4104
10
0.2316
20
2.4183
10
0.2434
20
2.4222
10
0.3219
20
2.5007
10
0.3298
20
2.5007
10
0.3612
20
2.5321
10
0.3690
20
2.5321
10
0.3847
20
2.5478
10
0.3926
20
2.5478
10
0.4161
20
2.5714
10
0.4318
20
2.5714
10
0.4397
20
2.5792
10
0.4475
20
2.5792
10
0.4632
20
2.5949
10
0.4711
20
2.5949
10
0.4789
20
2.6028
10
0.4868
20
2.6028
10
0.4946
20
2.6106
10
0.5182
20
2.6185
10
0.5339
20
2.6342
10
0.5496
20
2.6342
10
0.5889
20
2.6577
10
0.6046
20
2.6577
10
0.6124
20
2.6656
10
0.6281
20
2.6656
10
0.6674
20
2.6891
10
0.6909
20
2.6891
10
0.6988
20
2.6970
10
0.7145
20
2.6970
10
0.7223
20
2.7048
10
0.7459
20
2.7048
10
0.7616
20
2.7205
10
0.7930
20
2.7205
10
0.8166
20
2.7362
10
0.8480
20
2.7362
10
0.8558
20
2.7441
10
0.8872
20
2.7441
10
0.8951
20
2.7520
10
0.9265
20
2.7520
10
0.9343
20
2.7598
10
0.9814
20
2.7598
10
0.9893
20
2.7677
10
1.0364
20
2.7677
10
1.0442
20
2.7755
10
1.1228
20
2.7755
10
1.1306
20
2.7834
10
1.1620
20
2.7834
10
1.1699
20
2.7912
10
1.5232
20
2.7912
10
1.5310
20
2.7991
10
1.5389
20
2.7991
10
1.5467
20
2.7912
10
1.5782
20
2.7912
10
1.5860
20
2.7991
10
1.5939
20
2.7912
10
1.6017
20
2.7912
10
1.6096
20
2.7991
10
1.8137
20
2.7991
10
1.8215
20
2.7912
10
1.9943
20
2.7912
10
2.0021
20
2.7991
10
2.1042
20
2.7991
10
2.1081
20
2.8030
10
2.1081
20
2.8658
10
2.1003
20
2.8736
10
2.1003
20
2.9208
10
2.0924
20
2.9286
10
2.0924
20
2.9443
10
2.0846
20
2.9522
10
2.0846
20
2.9836
10
2.0767
20
2.9914
10
2.0767
20
3.0228
10
2.0610
20
3.0385
10
2.0610
20
3.0464
10
2.0532
20
3.0542
10
2.0532
20
3.0699
10
2.0375
20
3.0856
10
2.0375
20
3.0935
10
2.0139
20
3.1170
10
2.0139
20
3.1249
10
1.9550
20
3.1838
10
1.9472
20
3.1838
10
1.8922
20
3.2309
10
1.8844
20
3.2309
10
1.8765
20
3.2387
10
1.8687
20
3.2387
10
1.8294
20
3.2623
10
1.8058
20
3.2623
10
1.7823
20
3.2780
10
1.7666
20
3.2780
10
1.7587
20
3.2859
10
1.7430
20
3.2859
10
1.7352
20
3.2937
10
1.7116
20
3.2937
10
1.7038
20
3.3016
10
1.6645
20
3.3016
10
1.6567
20
3.3094
10
1.6174
20
3.3094
10
1.6096
20
3.3173
10
1.3191
20
3.3173
10
1.3112
20
3.3094
10
1.2719
20
3.3094
10
1.2641
20
3.3016
10
1.1934
20
3.3016
10
1.1856
20
3.2937
10
1.1699
20
3.2937
10
1.1620
20
3.2859
10
1.1149
20
3.2859
10
1.1071
20
3.2780
10
1.0835
20
3.2780
10
1.0757
20
3.2702
10
1.0521
20
3.2702
10
1.0442
20
3.2623
10
1.0285
20
3.2623
10
1.0207
20
3.2544
10
0.9971
20
3.2544
10
0.9893
20
3.2466
10
0.9736
20
3.2466
10
0.9500
20
3.2309
10
0.9265
20
3.2309
10
0.9186
20
3.2230
10
0.9029
20
3.2230
10
0.8951
20
3.2152
10
0.8872
20
3.2152
10
0.8794
20
3.2073
10
0.8637
20
3.2073
10
0.8558
20
3.1995
10
0.8480
20
3.1995
10
0.8401
20
3.1916
10
0.8323
20
3.1916
10
0.7930
20
3.1681
10
0.7773
20
3.1681
10
0.7380
20
3.1445
10
0.7223
20
3.1445
10
0.7145
20
3.1367
10
0.7066
20
3.1367
10
0.6909
20
3.1210
10
0.6831
20
3.1210
10
0.6752
20
3.1131
10
0.6674
20
3.1131
10
0.6595
20
3.1053
10
0.6517
20
3.1053
10
0.6438
20
3.0974
10
0.6360
20
3.0974
10
0.6281
20
3.0896
10
0.6203
20
3.0896
10
0.6124
20
3.0817
10
0.6046
20
3.0817
10
0.5653
20
3.0582
10
0.5496
20
3.0582
10
0.5378
20
3.0699
10
0.5300
20
3.0935
10
0.5064
20
3.1170
10
0.5064
20
3.1327
10
0.4986
20
3.1406
10
0.4986
20
3.1485
10
0.4829
20
3.1642
10
0.4750
20
3.1877
10
0.4593
20
3.2034
10
0.4593
20
3.2191
10
0.4515
20
3.2270
10
0.4515
20
3.2348
10
0.4358
20
3.2505
10
0.4358
20
3.2584
10
0.4201
20
3.2741
10
0.4122
20
3.2976
10
0.3965
20
3.3133
10
0.3965
20
3.3290
10
0.3886
20
3.3369
10
0.3886
20
3.3447
10
0.3729
20
3.3604
10
0.3729
20
3.3683
10
0.3651
20
3.3761
10
0.3651
20
3.3840
10
0.3415
20
3.4233
10
0.3415
20
3.4468
10
0.3455
20
3.4507
10
0.3533
20
3.4507
10
0.3690
20
3.4664
10
0.3769
20
3.4664
10
0.4083
20
3.4978
10
0.4161
20
3.4978
10
0.4240
20
3.5057
10
0.4397
20
3.5057
10
0.4632
20
3.5293
10
0.4789
20
3.5293
10
0.4868
20
3.5371
10
0.4946
20
3.5371
10
0.5103
20
3.5528
10
0.5261
20
3.5528
10
0.5339
20
3.5607
10
0.5418
20
3.5607
10
0.5575
20
3.5764
10
0.5732
20
3.5764
10
0.5810
20
3.5842
10
0.5889
20
3.5842
10
0.6281
20
3.6078
10
0.6438
20
3.6078
10
0.6674
20
3.6235
10
0.6831
20
3.6235
10
0.7223
20
3.6470
10
0.7380
20
3.6470
10
0.7459
20
3.6549
10
0.7537
20
3.6549
10
0.7616
20
3.6627
10
0.7773
20
3.6627
10
0.8009
20
3.6784
10
0.8244
20
3.6784
10
0.8323
20
3.6863
10
0.8480
20
3.6863
10
0.8558
20
3.6941
10
0.8715
20
3.6941
10
0.8794
20
3.7020
10
0.8951
20
3.7020
10
0.9029
20
3.7098
10
0.9186
20
3.7098
10
0.9265
20
3.7177
10
0.9500
20
3.7177
10
0.9579
20
3.7255
10
0.9814
20
3.7255
10
0.9893
20
3.7334
10
1.0207
20
3.7334
10
1.0285
20
3.7412
10
1.0678
20
3.7412
10
1.0914
20
3.7569
10
1.1228
20
3.7569
10
1.1306
20
3.7648
10
1.2170
20
3.7648
10
1.2248
20
3.7726
10
1.2876
20
3.7726
10
1.2955
20
3.7805
10
1.3269
20
3.7805
0
LWPOLYLINE
8
LOGO
90
453
70
1
10
8.9429
20
3.7255
10
9.0292
20
3.7255
10
9.0410
20
3.7138
10
9.0410
20
3.6981
10
9.0332
20
3.6902
10
9.0332
20
3.6431
10
9.0253
20
3.6352
10
9.0253
20
3.5960
10
9.0175
20
3.5881
10
9.0175
20
3.5489
10
9.0096
20
3.5410
10
9.0096
20
3.4939
10
9.0017
20
3.4861
10
9.0017
20
3.4547
10
8.9939
20
3.4468
10
8.9939
20
3.3997
10
9.0057
20
3.3879
10
9.0135
20
3.3879
10
9.0332
20
3.4154
10
9.0332
20
3.4625
10
9.0410
20
3.4704
10
9.0410
20
3.5018
10
9.0489
20
3.5096
10
9.0489
20
3.5489
10
9.0567
20
3.5567
10
9.0567
20
3.6117
10
9.0646
20
3.6195
10
9.0646
20
3.6588
10
9.0724
20
3.6667
10
9.0724
20
3.6902
10
9.0803
20
3.6981
10
9.0803
20
3.7138
10
9.0842
20
3.7177
10
9.0920
20
3.7177
10
9.0999
20
3.7255
10
9.2098
20
3.7255
10
9.2216
20
3.7138
10
9.2216
20
3.7059
10
9.2137
20
3.6981
10
9.2137
20
3.6509
10
9.2059
20
3.6431
10
9.2059
20
3.6117
10
9.1980
20
3.6038
10
9.1980
20
3.5489
10
9.1902
20
3.5410
10
9.1902
20
3.5018
10
9.1823
20
3.4939
10
9.1823
20
3.4782
10
9.1941
20
3.4664
10
9.2098
20
3.4664
10
9.2216
20
3.4782
10
9.2216
20
3.5253
10
9.2294
20
3.5332
10
9.2294
20
3.5489
10
9.2373
20
3.5567
10
9.2373
20
3.5960
10
9.2451
20
3.6038
10
9.2451
20
3.6588
10
9.2530
20
3.6667
10
9.2530
20
3.6902
10
9.2608
20
3.6981
10
9.2608
20
3.7138
10
9.2726
20
3.7255
10
9.5082
20
3.7255
10
9.5199
20
3.7138
10
9.5199
20
3.6667
10
9.5121
20
3.6588
10
9.5121
20
3.6195
10
9.5042
20
3.6117
10
9.5042
20
3.5881
10
9.4964
20
3.5803
10
9.4964
20
3.5332
10
9.4885
20
3.5253
10
9.4885
20
3.5018
10
9.4807
20
3.4939
10
9.4807
20
3.4468
10
9.4728
20
3.4390
10
9.4728
20
3.3997
10
9.4650
20
3.3918
10
9.4650
20
3.3604
10
9.4571
20
3.3526
10
9.4571
20
3.3133
10
9.4493
20
3.3055
10
9.4493
20
3.2662
10
9.4532
20
3.2623
10
9.4611
20
3.2623
10
9.4885
20
3.2898
10
9.4885
20
3.2976
10
9.5042
20
3.3133
10
9.5042
20
3.3212
10
9.5592
20
3.3761
10
9.5592
20
3.3840
10
9.6416
20
3.4664
10
9.6495
20
3.4664
10
9.6966
20
3.5135
10
9.7045
20
3.5135
10
9.7359
20
3.5450
10
9.7437
20
3.5450
10
9.7594
20
3.5607
10
9.7673
20
3.5607
10
9.8065
20
3.5999
10
9.8222
20
3.5999
10
9.8301
20
3.6078
10
9.8379
20
3.6078
10
9.8536
20
3.6235
10
9.8615
20
3.6235
10
9.8772
20
3.6392
10
9.9007
20
3.6470
10
9.9047
20
3.6431
10
9.9047
20
3.6117
10
9.8968
20
3.6038
10
9.8968
20
3.5646
10
9.8890
20
3.5567
10
9.8890
20
3.5018
10
9.8811
20
3.4939
10
9.8811
20
3.4547
10
9.8733
20
3.4468
10
9.8733
20
3.4076
10
9.8654
20
3.3997
10
9.8654
20
3.3447
10
9.8576
20
3.3369
10
9.8576
20
3.3055
10
9.8497
20
3.2976
10
9.8497
20
3.2584
10
9.8419
20
3.2505
10
9.8419
20
3.2113
10
9.8340
20
3.2034
10
9.8340
20
3.1563
10
9.8262
20
3.1485
10
9.8262
20
3.1249
10
9.8065
20
3.1053
10
9.7987
20
3.1053
10
9.7751
20
3.0817
10
9.7673
20
3.0817
10
9.7516
20
3.0660
10
9.7437
20
3.0660
10
9.6731
20
3.0032
10
9.6613
20
3.0071
10
9.6613
20
3.0307
10
9.6691
20
3.0385
10
9.6691
20
3.0856
10
9.6770
20
3.0935
10
9.6770
20
3.1485
10
9.6848
20
3.1563
10
9.6848
20
3.1877
10
9.6927
20
3.1956
10
9.6927
20
3.2348
10
9.7005
20
3.2427
10
9.7005
20
3.2898
10
9.7084
20
3.2976
10
9.7084
20
3.3369
10
9.6966
20
3.3487
10
9.6888
20
3.3487
10
9.6770
20
3.3369
10
9.6770
20
3.3133
10
9.6691
20
3.3055
10
9.6691
20
3.2662
10
9.6613
20
3.2584
10
9.6613
20
3.2191
10
9.6534
20
3.2113
10
9.6534
20
3.1799
10
9.6456
20
3.1720
10
9.6456
20
3.1249
10
9.6377
20
3.1170
10
9.6377
20
3.0699
10
9.6299
20
3.0621
10
9.6299
20
3.0385
10
9.6220
20
3.0307
10
9.6220
20
2.9836
10
9.6142
20
2.9757
10
9.6142
20
2.9443
10
9.5985
20
2.9286
10
9.5985
20
2.9208
10
9.5749
20
2.8972
10
9.5749
20
2.8894
10
9.5435
20
2.8579
10
9.5356
20
2.8344
10
9.5121
20
2.8108
10
9.5121
20
2.8030
10
9.4964
20
2.7873
10
9.4964
20
2.7794
10
9.4885
20
2.7716
10
9.4885
20
2.7637
10
9.4807
20
2.7559
10
9.4807
20
2.7480
10
9.4728
20
2.7402
10
9.4650
20
2.7166
10
9.4414
20
2.6931
10
9.4414
20
2.6852
10
9.4257
20
2.6617
10
9.4257
20
2.6460
10
9.4179
20
2.6381
10
9.4179
20
2.6303
10
9.3943
20
2.5910
10
9.3943
20
2.5753
10
9.3865
20
2.5674
10
9.3865
20
2.5596
10
9.3786
20
2.5517
10
9.3786
20
2.5439
10
9.3551
20
2.5046
10
9.3551
20
2.4811
10
9.3472
20
2.4732
10
9.3472
20
2.4575
10
9.3394
20
2.4497
10
9.3394
20
2.4340
10
9.3315
20
2.4261
10
9.3315
20
2.4026
10
9.3158
20
2.3790
10
9.3158
20
2.3397
10
9.3001
20
2.3162
10
9.3001
20
2.2848
10
9.2923
20
2.2769
10
9.2923
20
2.2377
10
9.2844
20
2.2298
10
9.2844
20
2.1906
10
9.2766
20
2.1827
10
9.2766
20
2.1513
10
9.2687
20
2.1435
10
9.2687
20
2.1121
10
9.2608
20
2.1042
10
9.2608
20
2.0649
10
9.2530
20
2.0571
10
9.2530
20
2.0178
10
9.2451
20
2.0100
10
9.2451
20
1.9629
10
9.2373
20
1.9550
10
9.2373
20
1.9158
10
9.2294
20
1.9079
10
9.2294
20
1.8687
10
9.2216
20
1.8608
10
9.2216
20
1.8294
10
9.2137
20
1.8215
10
9.2137
20
1.7666
10
9.2059
20
1.7587
10
9.2059
20
1.7352
10
9.1980
20
1.7273
10
9.1980
20
1.6959
10
9.1902
20
1.6881
10
9.1902
20
1.6488
10
9.1823
20
1.6410
10
9.1823
20
1.5860
10
9.1745
20
1.5782
10
9.1745
20
1.5467
10
9.1666
20
1.5389
10
9.1666
20
1.4918
10
9.1588
20
1.4839
10
9.1588
20
1.4604
10
9.1509
20
1.4525
10
9.1509
20
1.3897
10
9.1431
20
1.3819
10
9.1431
20
1.3662
10
9.1352
20
1.3583
10
9.1352
20
1.2876
10
9.1274
20
1.2798
10
9.1274
20
1.2562
10
9.1195
20
1.2484
10
9.1195
20
1.2091
10
9.1117
20
1.2013
10
9.1117
20
1.1699
10
9.1038
20
1.1620
10
9.1038
20
1.1228
10
9.0960
20
1.1149
10
9.0960
20
1.0757
10
9.0881
20
1.0678
10
9.0881
20
1.0364
10
9.0763
20
1.0246
10
8.9900
20
1.0246
10
8.9782
20
1.0364
10
8.9860
20
1.0442
10
8.9860
20
1.0757
10
8.9939
20
1.0835
10
8.9939
20
1.1228
10
9.0017
20
1.1306
10
9.0017
20
1.1856
10
8.9978
20
1.1895
10
8.9821
20
1.1895
10
8.9703
20
1.1777
10
8.9703
20
1.1542
10
8.9625
20
1.1463
10
8.9625
20
1.1071
10
8.9546
20
1.0992
10
8.9546
20
1.0600
10
8.9468
20
1.0521
10
8.9468
20
1.0285
10
8.9429
20
1.0246
10
8.8094
20
1.0246
10
8.8055
20
1.0285
10
8.8055
20
1.0521
10
8.8133
20
1.0600
10
8.8133
20
1.0992
10
8.8212
20
1.1071
10
8.8212
20
1.1385
10
8.8290
20
1.1463
10
8.8290
20
1.1934
10
8.8369
20
1.2013
10
8.8369
20
1.2484
10
8.8447
20
1.2562
10
8.8447
20
1.3112
10
8.8408
20
1.3151
10
8.8251
20
1.3151
10
8.8133
20
1.3033
10
8.8133
20
1.2876
10
8.8055
20
1.2798
10
8.8055
20
1.2248
10
8.7976
20
1.2170
10
8.7976
20
1.1856
10
8.7898
20
1.1777
10
8.7898
20
1.1463
10
8.7819
20
1.1385
10
8.7819
20
1.0914
10
8.7741
20
1.0835
10
8.7741
20
1.0364
10
8.7623
20
1.0246
10
8.6367
20
1.0246
10
8.6249
20
1.0364
10
8.6327
20
1.0442
10
8.6327
20
1.0757
10
8.6406
20
1.0835
10
8.6406
20
1.1149
10
8.6484
20
1.1228
10
8.6484
20
1.1856
10
8.6445
20
1.1895
10
8.6288
20
1.1895
10
8.6170
20
1.1777
10
8.6170
20
1.1463
10
8.6092
20
1.1385
10
8.6092
20
1.0992
10
8.6013
20
1.0914
10
8.6013
20
1.0600
10
8.5935
20
1.0521
10
8.5935
20
1.0285
10
8.5895
20
1.0246
10
8.4561
20
1.0246
10
8.4521
20
1.0285
10
8.4521
20
1.0757
10
8.4600
20
1.0835
10
8.4600
20
1.1228
10
8.4678
20
1.1306
10
8.4678
20
1.1699
10
8.4757
20
1.1777
10
8.4757
20
1.2091
10
8.4835
20
1.2170
10
8.4835
20
1.2562
10
8.4914
20
1.2641
10
8.4914
20
1.3033
10
8.4993
20
1.3112
10
8.4993
20
1.3426
10
8.5071
20
1.3505
10
8.5071
20
1.3897
10
8.5150
20
1.3976
10
8.5150
20
1.4447
10
8.5228
20
1.4525
10
8.5228
20
1.4918
10
8.5307
20
1.4996
10
8.5307
20
1.5310
10
8.5385
20
1.5389
10
8.5385
20
1.5860
10
8.5464
20
1.5939
10
8.5464
20
1.6174
10
8.5542
20
1.6253
10
8.5542
20
1.6724
10
8.5621
20
1.6802
10
8.5621
20
1.7116
10
8.5699
20
1.7195
10
8.5699
20
1.7587
10
8.5778
20
1.7666
10
8.5778
20
1.7823
10
8.5856
20
1.7901
10
8.5856
20
1.8215
10
8.5935
20
1.8294
10
8.5935
20
1.8844
10
8.6013
20
1.8922
10
8.6013
20
1.9158
10
8.6092
20
1.9236
10
8.6092
20
1.9786
10
8.6170
20
1.9864
10
8.6170
20
2.0100
10
8.6249
20
2.0178
10
8.6249
20
2.0806
10
8.6327
20
2.0885
10
8.6327
20
2.1121
10
8.6406
20
2.1199
10
8.6406
20
2.1749
10
8.6484
20
2.1827
10
8.6484
20
2.1984
10
8.6563
20
2.2063
10
8.6563
20
2.2612
10
8.6641
20
2.2691
10
8.6641
20
2.2848
10
8.6720
20
2.2926
10
8.6720
20
2.3555
10
8.6798
20
2.3633
10
8.6798
20
2.4026
10
8.6877
20
2.4104
10
8.6877
20
2.4497
10
8.6955
20
2.4575
10
8.6955
20
2.4889
10
8.7034
20
2.4968
10
8.7034
20
2.5439
10
8.7112
20
2.5517
10
8.7112
20
2.5910
10
8.7191
20
2.5988
10
8.7191
20
2.6303
10
8.7269
20
2.6381
10
8.7269
20
2.6695
10
8.7348
20
2.6774
10
8.7348
20
2.7245
10
8.7426
20
2.7323
10
8.7426
20
2.7637
10
8.7505
20
2.7716
10
8.7505
20
2.8030
10
8.7584
20
2.8108
10
8.7584
20
2.8422
10
8.7662
20
2.8501
10
8.7662
20
2.8972
10
8.7741
20
2.9051
10
8.7741
20
2.9443
10
8.7819
20
2.9522
10
8.7819
20
2.9914
10
8.7898
20
2.9993
10
8.7898
20
3.0464
10
8.7976
20
3.0542
10
8.7976
20
3.0778
10
8.8055
20
3.0856
10
8.8055
20
3.1406
10
8.8133
20
3.1485
10
8.8133
20
3.1799
10
8.8212
20
3.1877
10
8.8212
20
3.2270
10
8.8290
20
3.2348
10
8.8290
20
3.2584
10
8.8369
20
3.2662
10
8.8369
20
3.3133
10
8.8447
20
3.3212
10
8.8447
20
3.3683
10
8.8526
20
3.3761
10
8.8526
20
3.3997
10
8.8604
20
3.4076
10
8.8604
20
3.4468
10
8.8683
20
3.4547
10
8.8683
20
3.5018
10
8.8761
20
3.5096
10
8.8761
20
3.5489
10
8.8840
20
3.5567
10
8.8840
20
3.5881
10
8.8918
20
3.5960
10
8.8918
20
3.6431
10
8.8997
20
3.6509
10
8.8997
20
3.6745
10
8.9075
20
3.6824
10
8.9075
20
3.7138
10
8.9115
20
3.7177
10
8.9350
20
3.7177
0
LWPOLYLINE
8
LOGO
90
71
70
1
10
9.0135
20
2.4065
10
8.9939
20
2.3869
10
8.9939
20
2.3397
10
8.9860
20
2.3319
10
8.9860
20
2.3162
10
8.9782
20
2.3083
10
8.9782
20
2.2534
10
8.9703
20
2.2455
10
8.9703
20
2.2141
10
8.9625
20
2.2063
10
8.9625
20
2.1592
10
8.9546
20
2.1513
10
8.9546
20
2.1199
10
8.9468
20
2.1121
10
8.9468
20
2.0649
10
8.9389
20
2.0571
10
8.9389
20
2.0335
10
8.9311
20
2.0257
10
8.9311
20
1.9786
10
8.9232
20
1.9707
10
8.9232
20
1.9393
10
8.9154
20
1.9315
10
8.9154
20
1.8844
10
8.9075
20
1.8765
10
8.9075
20
1.8373
10
8.8997
20
1.8294
10
8.8997
20
1.7901
10
8.8918
20
1.7823
10
8.8918
20
1.7430
10
8.8840
20
1.7352
10
8.8840
20
1.6802
10
8.8761
20
1.6724
10
8.8761
20
1.6410
10
8.8683
20
1.6331
10
8.8683
20
1.6017
10
8.8800
20
1.5899
10
8.8879
20
1.5899
10
8.9075
20
1.6174
10
8.9075
20
1.6488
10
8.9154
20
1.6567
10
8.9154
20
1.7038
10
8.9232
20
1.7116
10
8.9232
20
1.7587
10
8.9311
20
1.7666
10
8.9311
20
1.7901
10
8.9389
20
1.7980
10
8.9389
20
1.8451
10
8.9468
20
1.8530
10
8.9468
20
1.9079
10
8.9546
20
1.9158
10
8.9546
20
1.9472
10
8.9625
20
1.9550
10
8.9625
20
1.9943
10
8.9703
20
2.0021
10
8.9703
20
2.0414
10
8.9782
20
2.0492
10
8.9782
20
2.0885
10
8.9860
20
2.0964
10
8.9860
20
2.1121
10
8.9939
20
2.1199
10
8.9939
20
2.1749
10
9.0017
20
2.1827
10
9.0017
20
2.2220
10
9.0096
20
2.2298
10
9.0096
20
2.2691
10
9.0175
20
2.2769
10
9.0175
20
2.3162
10
9.0253
20
2.3240
10
9.0253
20
2.3712
10
9.0332
20
2.3790
10
9.0332
20
2.3869
0
LWPOLYLINE
8
LOGO
90
40
70
1
10
8.7152
20
1.7077
10
8.7034
20
1.6959
10
8.7034
20
1.6488
10
8.6955
20
1.6410
10
8.6955
20
1.6174
10
8.6877
20
1.6096
10
8.6877
20
1.5782
10
8.6798
20
1.5703
10
8.6798
20
1.5310
10
8.6720
20
1.5232
10
8.6720
20
1.4918
10
8.6641
20
1.4839
10
8.6641
20
1.4368
10
8.6563
20
1.4290
10
8.6563
20
1.3897
10
8.6484
20
1.3819
10
8.6484
20
1.3348
10
8.6406
20
1.3269
10
8.6406
20
1.2798
10
8.6445
20
1.2759
10
8.6602
20
1.2759
10
8.6720
20
1.2876
10
8.6720
20
1.3112
10
8.6798
20
1.3191
10
8.6798
20
1.3662
10
8.6877
20
1.3740
10
8.6877
20
1.4054
10
8.6955
20
1.4133
10
8.6955
20
1.4525
10
8.7034
20
1.4604
10
8.7034
20
1.4996
10
8.7112
20
1.5075
10
8.7112
20
1.5467
10
8.7191
20
1.5546
10
8.7191
20
1.5860
10
8.7269
20
1.5939
10
8.7269
20
1.6410
10
8.7348
20
1.6488
10
8.7348
20
1.7038
10
8.7309
20
1.7077
0
LWPOLYLINE
8
LOGO
90
37
70
1
10
8.9978
20
3.3173
10
8.9703
20
3.2898
10
8.9703
20
3.2427
10
8.9625
20
3.2348
10
8.9625
20
3.1956
10
8.9546
20
3.1877
10
8.9546
20
3.1563
10
8.9468
20
3.1485
10
8.9468
20
3.1170
10
8.9389
20
3.1092
10
8.9389
20
3.0621
10
8.9311
20
3.0542
10
8.9311
20
3.0150
10
8.9232
20
3.0071
10
8.9232
20
2.9757
10
8.9154
20
2.9679
10
8.9154
20
2.9129
10
8.9272
20
2.9011
10
8.9350
20
2.9011
10
8.9468
20
2.9129
10
8.9468
20
2.9443
10
8.9546
20
2.9522
10
8.9546
20
2.9836
10
8.9625
20
2.9914
10
8.9625
20
3.0228
10
8.9703
20
3.0307
10
8.9703
20
3.0778
10
8.9782
20
3.0856
10
8.9782
20
3.1406
10
8.9860
20
3.1485
10
8.9860
20
3.1642
10
8.9939
20
3.1720
10
8.9939
20
3.2113
10
9.0017
20
3.2191
10
9.0017
20
3.2662
10
9.0096
20
3.2741
10
9.0096
20
3.2976
0
LWPOLYLINE
8
LOGO
90
36
70
1
10
9.1470
20
2.1474
10
9.1352
20
2.1356
10
9.1352
20
2.1199
10
9.1274
20
2.1121
10
9.1274
20
2.0806
10
9.1195
20
2.0728
10
9.1195
20
2.0414
10
9.1117
20
2.0335
10
9.1117
20
1.9864
10
9.1038
20
1.9786
10
9.1038
20
1.9472
10
9.0960
20
1.9393
10
9.0960
20
1.9079
10
9.0881
20
1.9001
10
9.0881
20
1.8530
10
9.0803
20
1.8451
10
9.0803
20
1.8058
10
9.0920
20
1.7941
10
9.0999
20
1.7941
10
9.1117
20
1.8058
10
9.1117
20
1.8215
10
9.1195
20
1.8294
10
9.1195
20
1.8530
10
9.1274
20
1.8608
10
9.1274
20
1.9158
10
9.1352
20
1.9236
10
9.1352
20
1.9629
10
9.1431
20
1.9707
10
9.1431
20
2.0100
10
9.1509
20
2.0178
10
9.1509
20
2.0571
10
9.1588
20
2.0649
10
9.1588
20
2.1121
10
9.1666
20
2.1199
10
9.1666
20
2.1356
10
9.1549
20
2.1474
0
LWPOLYLINE
8
LOGO
90
28
70
1
10
9.2255
20
2.6263
10
9.2137
20
2.6146
10
9.2137
20
2.5910
10
9.2059
20
2.5831
10
9.2059
20
2.5439
10
9.1980
20
2.5360
10
9.1980
20
2.4968
10
9.1902
20
2.4889
10
9.1902
20
2.4497
10
9.1823
20
2.4418
10
9.1823
20
2.4026
10
9.1745
20
2.3947
10
9.1745
20
2.3555
10
9.1863
20
2.3437
10
9.1941
20
2.3437
10
9.2059
20
2.3555
10
9.2059
20
2.3712
10
9.2137
20
2.3790
10
9.2137
20
2.4104
10
9.2216
20
2.4183
10
9.2216
20
2.4575
10
9.2294
20
2.4654
10
9.2294
20
2.5046
10
9.2373
20
2.5125
10
9.2373
20
2.5517
10
9.2451
20
2.5596
10
9.2451
20
2.6224
10
9.2412
20
2.6263
0
LWPOLYLINE
8
LOGO
90
24
70
1
10
8.8015
20
2.2180
10
8.7898
20
2.1984
10
8.7898
20
2.1749
10
8.7819
20
2.1670
10
8.7819
20
2.1199
10
8.7741
20
2.1121
10
8.7741
20
2.0649
10
8.7662
20
2.0571
10
8.7662
20
2.0335
10
8.7584
20
2.0257
10
8.7584
20
1.9707
10
8.7701
20
1.9589
10
8.7780
20
1.9589
10
8.7898
20
1.9707
10
8.7898
20
2.0021
10
8.7976
20
2.0100
10
8.7976
20
2.0414
10
8.8055
20
2.0492
10
8.8055
20
2.0964
10
8.8133
20
2.1042
10
8.8133
20
2.1435
10
8.8212
20
2.1513
10
8.8212
20
2.2063
10
8.8094
20
2.2180
0
LWPOLYLINE
8
LOGO
90
19
70
1
10
9.4768
20
3.1524
10
9.4650
20
3.1406
10
9.4650
20
3.1249
10
9.4571
20
3.1170
10
9.4571
20
3.0778
10
9.4493
20
3.0699
10
9.4493
20
3.0307
10
9.4414
20
3.0228
10
9.4414
20
2.9600
10
9.4532
20
2.9482
10
9.4728
20
2.9679
10
9.4728
20
2.9914
10
9.4807
20
2.9993
10
9.4807
20
3.0385
10
9.4885
20
3.0464
10
9.4885
20
3.0935
10
9.4964
20
3.1013
10
9.4964
20
3.1406
10
9.4846
20
3.1524
0
LWPOLYLINE
8
LOGO
90
323
70
1
10
4.9857
20
3.7726
10
5.1977
20
3.7726
10
5.2055
20
3.7648
10
5.2841
20
3.7648
10
5.3115
20
3.7452
10
5.3115
20
3.7138
10
5.3037
20
3.7059
10
5.3037
20
3.6902
10
5.2958
20
3.6824
10
5.2958
20
3.6509
10
5.2880
20
3.6431
10
5.2880
20
3.6117
10
5.2801
20
3.6038
10
5.2801
20
3.5960
10
5.2723
20
3.5881
10
5.2723
20
3.5724
10
5.2644
20
3.5646
10
5.2644
20
3.5332
10
5.2566
20
3.5253
10
5.2566
20
3.5018
10
5.2487
20
3.4939
10
5.2487
20
3.4547
10
5.2330
20
3.4311
10
5.2330
20
3.3997
10
5.2252
20
3.3918
10
5.2252
20
3.3683
10
5.2173
20
3.3604
10
5.2173
20
3.3447
10
5.2095
20
3.3369
10
5.2095
20
3.3212
10
5.2016
20
3.3133
10
5.2016
20
3.2898
10
5.1938
20
3.2819
10
5.1938
20
3.2662
10
5.1859
20
3.2584
10
5.1859
20
3.2270
10
5.1781
20
3.2191
10
5.1781
20
3.2034
10
5.1663
20
3.1916
10
5.1427
20
3.1916
10
5.1192
20
3.2073
10
5.1035
20
3.2073
10
5.0956
20
3.2152
10
5.0799
20
3.2152
10
5.0721
20
3.2230
10
4.9936
20
3.2230
10
4.9857
20
3.2309
10
4.7973
20
3.2309
10
4.7894
20
3.2230
10
4.7580
20
3.2230
10
4.7502
20
3.2152
10
4.7345
20
3.2152
10
4.7266
20
3.2073
10
4.7031
20
3.2073
10
4.6795
20
3.1916
10
4.6559
20
3.1916
10
4.6481
20
3.1838
10
4.6324
20
3.1838
10
4.6167
20
3.1681
10
4.6010
20
3.1681
10
4.5931
20
3.1602
10
4.5774
20
3.1602
10
4.5617
20
3.1445
10
4.5539
20
3.1445
10
4.5460
20
3.1367
10
4.5382
20
3.1367
10
4.5303
20
3.1288
10
4.5225
20
3.1288
10
4.5146
20
3.1210
10
4.4911
20
3.1131
10
4.4675
20
3.0896
10
4.4597
20
3.0896
10
4.4361
20
3.0660
10
4.4282
20
3.0660
10
4.3968
20
3.0346
10
4.3890
20
3.0346
10
4.3851
20
3.0228
10
4.3340
20
2.9718
10
4.3223
20
2.9679
10
4.3223
20
2.9600
10
4.2751
20
2.9129
10
4.2751
20
2.9051
10
4.2280
20
2.8501
10
4.2280
20
2.8422
10
4.2123
20
2.8265
10
4.2123
20
2.8187
10
4.1888
20
2.7951
10
4.1888
20
2.7794
10
4.1809
20
2.7716
10
4.1809
20
2.7637
10
4.1652
20
2.7480
10
4.1652
20
2.7402
10
4.1574
20
2.7323
10
4.1495
20
2.7088
10
4.1338
20
2.6931
10
4.1338
20
2.6852
10
4.1260
20
2.6774
10
4.1260
20
2.6617
10
4.1103
20
2.6460
10
4.1103
20
2.6381
10
4.1024
20
2.6303
10
4.1024
20
2.6146
10
4.0789
20
2.5753
10
4.0789
20
2.5596
10
4.0632
20
2.5439
10
4.0632
20
2.5282
10
4.0474
20
2.5046
10
4.0474
20
2.4811
10
4.0396
20
2.4732
10
4.0396
20
2.4575
10
4.0239
20
2.4340
10
4.0239
20
2.3947
10
4.0160
20
2.3869
10
4.0160
20
2.3712
10
4.0082
20
2.3633
10
4.0082
20
2.3397
10
4.0003
20
2.3319
10
4.0003
20
2.2926
10
3.9925
20
2.2848
10
3.9925
20
2.2612
10
3.9846
20
2.2534
10
3.9846
20
2.1984
10
3.9768
20
2.1906
10
3.9768
20
2.1749
10
3.9689
20
2.1670
10
3.9689
20
2.1278
10
3.9611
20
2.1199
10
3.9611
20
2.0885
10
3.9532
20
2.0806
10
3.9532
20
2.0414
10
3.9454
20
2.0335
10
3.9454
20
2.0021
10
3.9375
20
1.9943
10
3.9375
20
1.9550
10
3.9297
20
1.9472
10
3.9297
20
1.9079
10
3.9218
20
1.9001
10
3.9218
20
1.8530
10
3.9140
20
1.8451
10
3.9140
20
1.8137
10
3.8943
20
1.7941
10
3.8708
20
1.7941
10
3.8629
20
1.8019
10
3.8551
20
1.8019
10
3.8472
20
1.7941
10
3.6745
20
1.7941
10
3.6667
20
1.7862
10
3.6431
20
1.7862
10
3.6352
20
1.7784
10
3.5489
20
1.7784
10
3.5410
20
1.7705
10
3.5018
20
1.7705
10
3.4939
20
1.7627
10
3.4468
20
1.7627
10
3.4233
20
1.7470
10
3.3840
20
1.7470
10
3.3761
20
1.7391
10
3.3526
20
1.7391
10
3.3447
20
1.7313
10
3.3290
20
1.7313
10
3.3212
20
1.7234
10
3.3055
20
1.7234
10
3.2976
20
1.7156
10
3.2819
20
1.7156
10
3.2741
20
1.7077
10
3.2662
20
1.7077
10
3.2623
20
1.7116
10
3.2623
20
1.7430
10
3.2702
20
1.7509
10
3.2702
20
1.8137
10
3.2780
20
1.8215
10
3.2780
20
1.8451
10
3.2859
20
1.8530
10
3.2859
20
1.8687
10
3.2937
20
1.8765
10
3.2937
20
1.9315
10
3.3016
20
1.9393
10
3.3016
20
1.9786
10
3.3094
20
1.9864
10
3.3094
20
2.0335
10
3.3173
20
2.0414
10
3.3173
20
2.0571
10
3.3251
20
2.0649
10
3.3251
20
2.1042
10
3.3330
20
2.1121
10
3.3330
20
2.1513
10
3.3408
20
2.1592
10
3.3408
20
2.1906
10
3.3487
20
2.1984
10
3.3487
20
2.2377
10
3.3565
20
2.2455
10
3.3565
20
2.2926
10
3.3644
20
2.3005
10
3.3644
20
2.3240
10
3.3722
20
2.3319
10
3.3722
20
2.3712
10
3.3801
20
2.3790
10
3.3801
20
2.4104
10
3.3879
20
2.4183
10
3.3879
20
2.4654
10
3.3958
20
2.4732
10
3.3958
20
2.5125
10
3.4036
20
2.5203
10
3.4036
20
2.5596
10
3.4115
20
2.5674
10
3.4115
20
2.5988
10
3.4193
20
2.6067
10
3.4193
20
2.6303
10
3.4272
20
2.6381
10
3.4272
20
2.6931
10
3.4350
20
2.7009
10
3.4350
20
2.7323
10
3.4429
20
2.7402
10
3.4429
20
2.7716
10
3.4507
20
2.7794
10
3.4507
20
2.8265
10
3.4586
20
2.8344
10
3.4586
20
2.8658
10
3.4664
20
2.8736
10
3.4664
20
2.9208
10
3.4743
20
2.9286
10
3.4743
20
2.9600
10
3.4821
20
2.9679
10
3.4821
20
3.0150
10
3.4900
20
3.0228
10
3.4900
20
3.0621
10
3.4978
20
3.0699
10
3.4978
20
3.1013
10
3.5057
20
3.1092
10
3.5057
20
3.1327
10
3.5135
20
3.1406
10
3.5135
20
3.1877
10
3.5214
20
3.1956
10
3.5214
20
3.2191
10
3.5293
20
3.2270
10
3.5293
20
3.2662
10
3.5371
20
3.2741
10
3.5371
20
3.3055
10
3.5450
20
3.3133
10
3.5450
20
3.3604
10
3.5528
20
3.3683
10
3.5528
20
3.3997
10
3.5607
20
3.4076
10
3.5607
20
3.4547
10
3.5685
20
3.4625
10
3.5685
20
3.4939
10
3.5764
20
3.5018
10
3.5764
20
3.5489
10
3.5842
20
3.5567
10
3.5842
20
3.5724
10
3.5921
20
3.5803
10
3.5921
20
3.6352
10
3.5999
20
3.6431
10
3.5999
20
3.6667
10
3.6078
20
3.6745
10
3.6078
20
3.7059
10
3.6195
20
3.7177
10
3.6352
20
3.7177
10
3.6431
20
3.7255
10
4.1849
20
3.7255
10
4.1966
20
3.7138
10
4.1966
20
3.6981
10
4.1888
20
3.6902
10
4.1888
20
3.6431
10
4.1809
20
3.6352
10
4.1809
20
3.6038
10
4.1731
20
3.5960
10
4.1731
20
3.5646
10
4.1652
20
3.5567
10
4.1652
20
3.5175
10
4.1574
20
3.5096
10
4.1574
20
3.4704
10
4.1495
20
3.4625
10
4.1495
20
3.4233
10
4.1417
20
3.4154
10
4.1417
20
3.3997
10
4.1338
20
3.3918
10
4.1338
20
3.3526
10
4.1260
20
3.3447
10
4.1260
20
3.3055
10
4.1181
20
3.2976
10
4.1181
20
3.2584
10
4.1299
20
3.2544
10
4.1574
20
3.2819
10
4.1574
20
3.2898
10
4.1966
20
3.3290
10
4.1966
20
3.3369
10
4.2437
20
3.3840
10
4.2437
20
3.3918
10
4.3183
20
3.4664
10
4.3262
20
3.4664
10
4.3733
20
3.5135
10
4.3811
20
3.5135
10
4.4125
20
3.5450
10
4.4204
20
3.5450
10
4.4754
20
3.5921
10
4.4832
20
3.5921
10
4.4911
20
3.5999
10
4.5146
20
3.6078
10
4.5303
20
3.6235
10
4.5382
20
3.6235
10
4.5460
20
3.6313
10
4.5696
20
3.6392
10
4.5853
20
3.6549
10
4.5931
20
3.6549
10
4.6010
20
3.6627
10
4.6245
20
3.6706
10
4.6402
20
3.6863
10
4.6559
20
3.6863
10
4.6638
20
3.6941
10
4.6795
20
3.6941
10
4.6873
20
3.7020
10
4.7031
20
3.7020
10
4.7266
20
3.7177
10
4.7502
20
3.7177
10
4.7737
20
3.7334
10
4.7973
20
3.7334
10
4.8051
20
3.7412
10
4.8287
20
3.7412
10
4.8522
20
3.7569
10
4.8915
20
3.7569
10
4.8993
20
3.7648
10
4.9779
20
3.7648
0
LWPOLYLINE
8
LOGO
90
329
70
1
10
2.0885
20
1.9197
10
2.5596
20
1.9197
10
2.5635
20
1.9158
10
2.5635
20
1.8765
10
2.5557
20
1.8687
10
2.5557
20
1.8373
10
2.5478
20
1.8294
10
2.5478
20
1.7823
10
2.5400
20
1.7744
10
2.5400
20
1.7509
10
2.5321
20
1.7430
10
2.5321
20
1.6881
10
2.5243
20
1.6802
10
2.5243
20
1.6488
10
2.5164
20
1.6410
10
2.5164
20
1.6017
10
2.5046
20
1.5899
10
1.9393
20
1.5899
10
1.9315
20
1.5821
10
1.9079
20
1.5821
10
1.8961
20
1.5624
10
1.8961
20
1.5389
10
1.9236
20
1.5114
10
1.9943
20
1.5114
10
2.0139
20
1.4918
10
2.0139
20
1.4604
10
1.9943
20
1.4408
10
1.6410
20
1.4408
10
1.6213
20
1.4211
10
1.6213
20
1.3819
10
1.6410
20
1.3622
10
1.7980
20
1.3622
10
1.8176
20
1.3426
10
1.8176
20
1.3191
10
1.8058
20
1.3073
10
1.7980
20
1.3073
10
1.7901
20
1.2994
10
1.3662
20
1.2994
10
1.3505
20
1.2837
10
1.3426
20
1.2837
10
1.3308
20
1.2641
10
1.3308
20
1.2484
10
1.3387
20
1.2405
10
1.3387
20
1.2327
10
1.3662
20
1.2131
10
1.6724
20
1.2131
10
1.6763
20
1.2013
10
1.6567
20
1.1817
10
1.6488
20
1.1817
10
1.6174
20
1.1502
10
1.6096
20
1.1502
10
1.6017
20
1.1424
10
1.5939
20
1.1424
10
1.5782
20
1.1267
10
1.5703
20
1.1267
10
1.5624
20
1.1188
10
1.5546
20
1.1188
10
1.5467
20
1.1110
10
1.5232
20
1.1031
10
1.5075
20
1.0874
10
1.4918
20
1.0874
10
1.4839
20
1.0796
10
1.4761
20
1.0796
10
1.4682
20
1.0717
10
1.4525
20
1.0717
10
1.4133
20
1.0482
10
1.3976
20
1.0482
10
1.3897
20
1.0403
10
1.3740
20
1.0403
10
1.3662
20
1.0325
10
1.3505
20
1.0325
10
1.3426
20
1.0246
10
1.3191
20
1.0246
10
1.3112
20
1.0168
10
1.2955
20
1.0168
10
1.2876
20
1.0089
10
1.2562
20
1.0089
10
1.2484
20
1.0011
10
1.2327
20
1.0011
10
1.2248
20
0.9932
10
1.1934
20
0.9932
10
1.1856
20
0.9854
10
1.1385
20
0.9854
10
1.1306
20
0.9775
10
1.0914
20
0.9775
10
1.0835
20
0.9697
10
0.9108
20
0.9697
10
0.8951
20
0.9854
10
0.8715
20
0.9697
10
0.8244
20
0.9697
10
0.8166
20
0.9775
10
0.7616
20
0.9775
10
0.7537
20
0.9854
10
0.7145
20
0.9854
10
0.7066
20
0.9932
10
0.6752
20
0.9932
10
0.6674
20
1.0011
10
0.6517
20
1.0011
10
0.6438
20
1.0089
10
0.6203
20
1.0089
10
0.6124
20
1.0168
10
0.5889
20
1.0168
10
0.5732
20
1.0325
10
0.5418
20
1.0325
10
0.5339
20
1.0403
10
0.5182
20
1.0403
10
0.5143
20
1.0442
10
0.5143
20
1.0521
10
0.5064
20
1.0600
10
0.5064
20
1.1149
10
0.4868
20
1.1345
10
0.4789
20
1.1345
10
0.4711
20
1.1424
10
0.4593
20
1.1385
10
0.4907
20
1.1071
10
0.4907
20
1.0914
10
0.4986
20
1.0835
10
0.4986
20
1.0757
10
0.4789
20
1.0560
10
0.4711
20
1.0639
10
0.4632
20
1.0639
10
0.4554
20
1.0717
10
0.4475
20
1.0717
10
0.4397
20
1.0796
10
0.4318
20
1.0796
10
0.4240
20
1.0874
10
0.4004
20
1.0953
10
0.3847
20
1.1110
10
0.3612
20
1.1188
10
0.3455
20
1.1345
10
0.3376
20
1.1345
10
0.3219
20
1.1502
10
0.3141
20
1.1502
10
0.2827
20
1.1817
10
0.2748
20
1.1817
10
0.2630
20
1.1934
10
0.2630
20
1.2013
10
0.2512
20
1.2052
10
0.1767
20
1.2798
10
0.1767
20
1.2955
10
0.1806
20
1.2994
10
0.7537
20
1.2994
10
0.7734
20
1.2798
10
0.7734
20
1.2641
10
0.7812
20
1.2562
10
0.7734
20
1.2484
10
0.7734
20
1.2405
10
0.7537
20
1.2288
10
0.6046
20
1.2288
10
0.5849
20
1.2091
10
0.5889
20
1.1974
10
0.5967
20
1.2052
10
0.6360
20
1.2052
10
0.6438
20
1.2131
10
0.6595
20
1.2131
10
0.6674
20
1.2052
10
0.6988
20
1.2052
10
0.7066
20
1.2131
10
0.7145
20
1.2052
10
0.7380
20
1.2052
10
0.7459
20
1.2131
10
0.7616
20
1.2131
10
0.7655
20
1.2248
10
0.7773
20
1.2288
10
0.7891
20
1.2405
10
0.7891
20
1.2876
10
0.7694
20
1.3073
10
0.7616
20
1.3073
10
0.7537
20
1.3151
10
0.1649
20
1.3151
10
0.1570
20
1.3073
10
0.1453
20
1.3191
10
0.1453
20
1.3269
10
0.1217
20
1.3505
10
0.1217
20
1.3583
10
0.1138
20
1.3662
10
0.1256
20
1.3779
10
0.9814
20
1.3779
10
1.0011
20
1.3583
10
1.0011
20
1.3426
10
0.9932
20
1.3348
10
1.0011
20
1.3269
10
0.9893
20
1.3151
10
0.9343
20
1.3151
10
0.9265
20
1.3073
10
0.9186
20
1.3073
10
0.8990
20
1.2876
10
0.8990
20
1.2798
10
0.8911
20
1.2719
10
0.8911
20
1.2484
10
0.9068
20
1.2327
10
0.9068
20
1.2248
10
0.9265
20
1.2131
10
1.1777
20
1.2131
10
1.1974
20
1.1934
10
1.1974
20
1.1699
10
1.1777
20
1.1502
10
0.6909
20
1.1502
10
0.6831
20
1.1424
10
0.6517
20
1.1424
10
0.6438
20
1.1502
10
0.6399
20
1.1463
10
0.6399
20
1.1385
10
0.6517
20
1.1188
10
0.6595
20
1.1188
10
0.6674
20
1.1267
10
0.6831
20
1.1267
10
0.6870
20
1.1228
10
0.6713
20
1.1149
10
0.6713
20
1.0757
10
0.6792
20
1.0678
10
0.6792
20
1.0600
10
0.6988
20
1.0403
10
0.8637
20
1.0403
10
0.8833
20
1.0285
10
0.8833
20
1.0128
10
0.8951
20
1.0011
10
0.9068
20
1.0128
10
0.9068
20
1.0207
10
0.8872
20
1.0403
10
0.8794
20
1.0403
10
0.8715
20
1.0482
10
0.7145
20
1.0482
10
0.6949
20
1.0678
10
0.6949
20
1.0992
10
0.7027
20
1.1071
10
0.7027
20
1.1149
10
0.7223
20
1.1267
10
1.1777
20
1.1267
10
1.2131
20
1.1620
10
1.2131
20
1.2013
10
1.1856
20
1.2288
10
0.9343
20
1.2288
10
0.9265
20
1.2366
10
0.9186
20
1.2366
10
0.9068
20
1.2484
10
0.9068
20
1.2798
10
0.9265
20
1.2994
10
0.9893
20
1.2994
10
0.9971
20
1.3073
10
1.0050
20
1.3073
10
1.0246
20
1.3348
10
1.0168
20
1.3426
10
1.0168
20
1.3662
10
0.9893
20
1.3936
10
0.7145
20
1.3936
10
0.7066
20
1.3858
10
0.6988
20
1.3936
10
0.6595
20
1.3936
10
0.6517
20
1.3858
10
0.6438
20
1.3936
10
0.5496
20
1.3936
10
0.5418
20
1.3858
10
0.5261
20
1.3858
10
0.5182
20
1.3936
10
0.5103
20
1.3858
10
0.4711
20
1.3858
10
0.4593
20
1.3976
10
0.4593
20
1.4290
10
0.4672
20
1.4368
10
0.4672
20
1.4447
10
0.4515
20
1.4604
10
0.4515
20
1.4682
10
0.4475
20
1.4722
10
0.3612
20
1.4722
10
0.3415
20
1.4996
10
0.3415
20
1.5153
10
0.3612
20
1.5350
10
0.7852
20
1.5350
10
0.8087
20
1.5114
10
0.8166
20
1.5114
10
0.8323
20
1.4957
10
0.8558
20
1.4957
10
0.8715
20
1.4800
10
0.8951
20
1.4800
10
0.9029
20
1.4722
10
0.9186
20
1.4722
10
0.9265
20
1.4643
10
0.9422
20
1.4643
10
0.9500
20
1.4565
10
0.9893
20
1.4565
10
0.9971
20
1.4486
10
1.2091
20
1.4486
10
1.2170
20
1.4565
10
1.2327
20
1.4565
10
1.2405
20
1.4643
10
1.2876
20
1.4643
10
1.2955
20
1.4722
10
1.3191
20
1.4722
10
1.3269
20
1.4800
10
1.3505
20
1.4800
10
1.3740
20
1.4957
10
1.3976
20
1.4957
10
1.4054
20
1.5036
10
1.4211
20
1.5036
10
1.4447
20
1.5193
10
1.4604
20
1.5193
10
1.4761
20
1.5350
10
1.4839
20
1.5350
10
1.4918
20
1.5428
10
1.5075
20
1.5428
10
1.5153
20
1.5507
10
1.5232
20
1.5507
10
1.5389
20
1.5664
10
1.5624
20
1.5742
10
1.5782
20
1.5899
10
1.5860
20
1.5899
10
1.6017
20
1.6056
10
1.6096
20
1.6056
10
1.6253
20
1.6213
10
1.6331
20
1.6213
10
1.6567
20
1.6449
10
1.6802
20
1.6527
10
1.6881
20
1.6684
10
1.6959
20
1.6684
10
1.7195
20
1.6920
10
1.7273
20
1.6920
10
1.7666
20
1.7313
10
2.1435
20
1.7313
10
2.1513
20
1.7391
10
2.1592
20
1.7391
10
2.1866
20
1.7666
10
2.1866
20
1.8215
10
2.1749
20
1.8333
10
2.1670
20
1.8333
10
2.1513
20
1.8490
10
2.0964
20
1.8490
10
2.0767
20
1.8687
10
2.0767
20
1.9079
0
LWPOLYLINE
8
LOGO
90
185
70
1
10
10.3483
20
3.7805
10
10.4582
20
3.7805
10
10.4661
20
3.7726
10
10.5524
20
3.7726
10
10.5603
20
3.7648
10
10.6074
20
3.7648
10
10.6270
20
3.7530
10
10.6270
20
3.7138
10
10.6192
20
3.7059
10
10.6192
20
3.6902
10
10.6113
20
3.6824
10
10.6113
20
3.6509
10
10.6035
20
3.6431
10
10.6035
20
3.6274
10
10.5956
20
3.6195
10
10.5956
20
3.6038
10
10.5878
20
3.5960
10
10.5878
20
3.5567
10
10.5799
20
3.5489
10
10.5799
20
3.5332
10
10.5720
20
3.5253
10
10.5720
20
3.5018
10
10.5642
20
3.4939
10
10.5642
20
3.4625
10
10.5563
20
3.4547
10
10.5563
20
3.4390
10
10.5485
20
3.4311
10
10.5485
20
3.3997
10
10.5406
20
3.3918
10
10.5406
20
3.3761
10
10.5328
20
3.3683
10
10.5328
20
3.3447
10
10.5249
20
3.3369
10
10.5249
20
3.3133
10
10.5092
20
3.2898
10
10.5092
20
3.2662
10
10.5014
20
3.2584
10
10.5014
20
3.2427
10
10.4935
20
3.2348
10
10.4935
20
3.2034
10
10.4739
20
3.1916
10
10.4661
20
3.1995
10
10.4346
20
3.1995
10
10.4229
20
3.2113
10
10.4229
20
3.2662
10
10.4307
20
3.2741
10
10.4307
20
3.3212
10
10.4386
20
3.3290
10
10.4386
20
3.3683
10
10.4464
20
3.3761
10
10.4464
20
3.3997
10
10.4543
20
3.4076
10
10.4543
20
3.4468
10
10.4621
20
3.4547
10
10.4621
20
3.5175
10
10.4700
20
3.5253
10
10.4700
20
3.5567
10
10.4661
20
3.5607
10
10.4425
20
3.5607
10
10.4307
20
3.5410
10
10.4307
20
3.4939
10
10.4229
20
3.4861
10
10.4229
20
3.4468
10
10.4150
20
3.4390
10
10.4150
20
3.3997
10
10.4072
20
3.3918
10
10.4072
20
3.3447
10
10.3993
20
3.3369
10
10.3993
20
3.2976
10
10.3915
20
3.2898
10
10.3915
20
3.2505
10
10.3836
20
3.2427
10
10.3836
20
3.2270
10
10.3797
20
3.2230
10
10.3012
20
3.2230
10
10.2933
20
3.2309
10
10.1284
20
3.2309
10
10.1206
20
3.2230
10
10.0578
20
3.2230
10
10.0499
20
3.2152
10
10.0342
20
3.2152
10
10.0107
20
3.1995
10
9.9950
20
3.1995
10
9.9871
20
3.1916
10
9.9714
20
3.1916
10
9.9636
20
3.1838
10
9.9479
20
3.1838
10
9.9086
20
3.1602
10
9.8929
20
3.1602
10
9.8850
20
3.1524
10
9.8693
20
3.1524
10
9.8654
20
3.1563
10
9.8654
20
3.1720
10
9.8733
20
3.1799
10
9.8733
20
3.2113
10
9.8811
20
3.2191
10
9.8811
20
3.2584
10
9.8890
20
3.2662
10
9.8890
20
3.3133
10
9.8968
20
3.3212
10
9.8968
20
3.3683
10
9.9047
20
3.3761
10
9.9047
20
3.4154
10
9.9125
20
3.4233
10
9.9125
20
3.4625
10
9.9204
20
3.4704
10
9.9204
20
3.5175
10
9.9282
20
3.5253
10
9.9282
20
3.5567
10
9.9361
20
3.5646
10
9.9361
20
3.6038
10
9.9439
20
3.6117
10
9.9439
20
3.6667
10
9.9557
20
3.6784
10
9.9636
20
3.6784
10
9.9871
20
3.6941
10
10.0028
20
3.6941
10
10.0264
20
3.7098
10
10.0421
20
3.7098
10
10.0499
20
3.7177
10
10.0578
20
3.7177
10
10.0656
20
3.7255
10
10.0813
20
3.7255
10
10.0892
20
3.7334
10
10.1010
20
3.7216
10
10.1010
20
3.7059
10
10.0931
20
3.6981
10
10.0931
20
3.6509
10
10.0853
20
3.6431
10
10.0853
20
3.5881
10
10.0892
20
3.5842
10
10.1049
20
3.5842
10
10.1167
20
3.5960
10
10.1167
20
3.6117
10
10.1245
20
3.6195
10
10.1245
20
3.6509
10
10.1324
20
3.6588
10
10.1324
20
3.6902
10
10.1402
20
3.6981
10
10.1402
20
3.7373
10
10.1520
20
3.7491
10
10.1677
20
3.7491
10
10.1755
20
3.7569
10
10.1991
20
3.7569
10
10.2070
20
3.7648
10
10.2462
20
3.7648
10
10.2541
20
3.7726
10
10.2855
20
3.7726
10
10.2972
20
3.7609
10
10.2894
20
3.7530
10
10.2894
20
3.7373
10
10.2815
20
3.7295
10
10.2815
20
3.6902
10
10.2737
20
3.6824
10
10.2737
20
3.6431
10
10.2658
20
3.6352
10
10.2658
20
3.5960
10
10.2580
20
3.5881
10
10.2580
20
3.5489
10
10.2501
20
3.5410
10
10.2501
20
3.5018
10
10.2423
20
3.4939
10
10.2423
20
3.4468
10
10.2344
20
3.4390
10
10.2344
20
3.3997
10
10.2462
20
3.3879
10
10.2541
20
3.3879
10
10.2658
20
3.4076
10
10.2658
20
3.4233
10
10.2737
20
3.4311
10
10.2737
20
3.4625
10
10.2815
20
3.4704
10
10.2815
20
3.5096
10
10.2894
20
3.5175
10
10.2894
20
3.5567
10
10.2972
20
3.5646
10
10.2972
20
3.6038
10
10.3051
20
3.6117
10
10.3051
20
3.6431
10
10.3129
20
3.6509
10
10.3129
20
3.6902
10
10.3208
20
3.6981
10
10.3208
20
3.7373
10
10.3287
20
3.7452
10
10.3287
20
3.7687
0
LWPOLYLINE
8
LOGO
90
116
70
1
10
8.8329
20
0.8205
10
8.8447
20
0.8166
10
8.8526
20
0.7930
10
8.8683
20
0.7773
10
8.8683
20
0.7694
10
8.8761
20
0.7616
10
8.8761
20
0.7537
10
8.8840
20
0.7459
10
8.8918
20
0.7223
10
8.9075
20
0.7066
10
8.9075
20
0.6988
10
8.9154
20
0.6909
10
8.9154
20
0.6831
10
8.9311
20
0.6674
10
8.9311
20
0.6595
10
8.9389
20
0.6517
10
8.9468
20
0.6281
10
8.9625
20
0.6124
10
8.9625
20
0.6046
10
8.9703
20
0.5967
10
8.9703
20
0.5889
10
8.9782
20
0.5810
10
8.9860
20
0.5575
10
9.0017
20
0.5418
10
9.0017
20
0.5261
10
9.0175
20
0.5103
10
9.0253
20
0.4868
10
9.0410
20
0.4711
10
9.0410
20
0.4632
10
9.0489
20
0.4554
10
9.0489
20
0.4475
10
9.0724
20
0.4083
10
9.0724
20
0.3926
10
9.0881
20
0.3690
10
9.0881
20
0.3533
10
9.0960
20
0.3455
10
9.0960
20
0.3141
10
9.1038
20
0.3062
10
9.1038
20
0.2277
10
9.0960
20
0.2198
10
9.0960
20
0.1963
10
9.0803
20
0.1727
10
9.0803
20
0.1570
10
9.0724
20
0.1492
10
9.0724
20
0.1413
10
9.0567
20
0.1256
10
9.0567
20
0.1178
10
9.0410
20
0.1021
10
9.0410
20
0.0942
10
9.0292
20
0.0903
10
8.9978
20
0.0589
10
8.9900
20
0.0589
10
8.9664
20
0.0353
10
8.9586
20
0.0353
10
8.9350
20
0.0196
10
8.9193
20
0.0196
10
8.9115
20
0.0118
10
8.8722
20
0.0118
10
8.8643
20
0.0039
10
8.8172
20
0.0039
10
8.8094
20
0.0118
10
8.7623
20
0.0118
10
8.7544
20
0.0196
10
8.7309
20
0.0196
10
8.7152
20
0.0353
10
8.7073
20
0.0353
10
8.6995
20
0.0432
10
8.6916
20
0.0432
10
8.6759
20
0.0589
10
8.6681
20
0.0589
10
8.6170
20
0.1099
10
8.6170
20
0.1178
10
8.6013
20
0.1335
10
8.6013
20
0.1413
10
8.5856
20
0.1649
10
8.5856
20
0.1806
10
8.5778
20
0.1884
10
8.5778
20
0.2041
10
8.5699
20
0.2120
10
8.5699
20
0.2434
10
8.5621
20
0.2512
10
8.5621
20
0.2591
10
8.5699
20
0.2670
10
8.5699
20
0.3376
10
8.5778
20
0.3455
10
8.5778
20
0.3690
10
8.5935
20
0.3926
10
8.5935
20
0.4083
10
8.6092
20
0.4240
10
8.6092
20
0.4318
10
8.6170
20
0.4397
10
8.6170
20
0.4554
10
8.6249
20
0.4632
10
8.6327
20
0.4868
10
8.6484
20
0.5025
10
8.6484
20
0.5103
10
8.6563
20
0.5182
10
8.6563
20
0.5261
10
8.6641
20
0.5339
10
8.6641
20
0.5418
10
8.6720
20
0.5496
10
8.6798
20
0.5732
10
8.6955
20
0.5889
10
8.6955
20
0.5967
10
8.7269
20
0.6360
10
8.7269
20
0.6438
10
8.7348
20
0.6517
10
8.7426
20
0.6752
10
8.7584
20
0.6909
10
8.7584
20
0.6988
10
8.7662
20
0.7066
10
8.7741
20
0.7302
10
8.7898
20
0.7459
10
8.7976
20
0.7694
10
8.8133
20
0.7852
10
8.8212
20
0.8087
0
LWPOLYLINE
8
LOGO
90
33
70
1
10
8.6602
20
0.3729
10
8.6406
20
0.3455
10
8.6406
20
0.3219
10
8.6327
20
0.3141
10
8.6327
20
0.2670
10
8.6406
20
0.2591
10
8.6406
20
0.2277
10
8.6563
20
0.2041
10
8.6563
20
0.1884
10
8.6641
20
0.1806
10
8.6641
20
0.1727
10
8.7230
20
0.1138
10
8.7466
20
0.1060
10
8.7623
20
0.0903
10
8.8094
20
0.0903
10
8.8133
20
0.0942
10
8.8015
20
0.1060
10
8.7937
20
0.1060
10
8.7701
20
0.1295
10
8.7584
20
0.1335
10
8.7584
20
0.1413
10
8.7191
20
0.1806
10
8.7191
20
0.1884
10
8.7034
20
0.2041
10
8.7034
20
0.2120
10
8.6955
20
0.2198
10
8.6955
20
0.2355
10
8.6877
20
0.2434
10
8.6877
20
0.2591
10
8.6798
20
0.2670
10
8.6798
20
0.3062
10
8.6720
20
0.3141
10
8.6720
20
0.3690
0
LWPOLYLINE
8
LOGO
90
122
70
1
10
3.6117
20
0.8205
10
3.6235
20
0.8087
10
3.6235
20
0.8009
10
3.6392
20
0.7852
10
3.6392
20
0.7773
10
3.6549
20
0.7616
10
3.6549
20
0.7459
10
3.6706
20
0.7302
10
3.6784
20
0.7066
10
3.6941
20
0.6909
10
3.7020
20
0.6674
10
3.7177
20
0.6517
10
3.7177
20
0.6360
10
3.7255
20
0.6281
10
3.7255
20
0.6203
10
3.7412
20
0.6046
10
3.7412
20
0.5967
10
3.7569
20
0.5810
10
3.7569
20
0.5653
10
3.7726
20
0.5496
10
3.7805
20
0.5261
10
3.8041
20
0.5025
10
3.8041
20
0.4868
10
3.8119
20
0.4789
10
3.8119
20
0.4711
10
3.8198
20
0.4632
10
3.8198
20
0.4554
10
3.8276
20
0.4475
10
3.8276
20
0.4397
10
3.8355
20
0.4318
10
3.8355
20
0.4240
10
3.8590
20
0.3847
10
3.8590
20
0.3690
10
3.8669
20
0.3612
10
3.8669
20
0.3533
10
3.8747
20
0.3455
10
3.8747
20
0.3298
10
3.8826
20
0.3219
10
3.8826
20
0.2277
10
3.8747
20
0.2198
10
3.8747
20
0.2041
10
3.8669
20
0.1963
10
3.8669
20
0.1806
10
3.8590
20
0.1727
10
3.8590
20
0.1649
10
3.8512
20
0.1570
10
3.8433
20
0.1335
10
3.8276
20
0.1178
10
3.8276
20
0.1099
10
3.7923
20
0.0746
10
3.7844
20
0.0746
10
3.7609
20
0.0510
10
3.7530
20
0.0510
10
3.7373
20
0.0353
10
3.7295
20
0.0353
10
3.6902
20
0.0118
10
3.6588
20
0.0118
10
3.6509
20
0.0039
10
3.5646
20
0.0039
10
3.5567
20
0.0118
10
3.5332
20
0.0118
10
3.5253
20
0.0196
10
3.5096
20
0.0196
10
3.5018
20
0.0275
10
3.4939
20
0.0275
10
3.4547
20
0.0589
10
3.4311
20
0.0667
10
3.4193
20
0.0785
10
3.4193
20
0.0864
10
3.4076
20
0.0903
10
3.3958
20
0.1021
10
3.3958
20
0.1099
10
3.3879
20
0.1178
10
3.3801
20
0.1413
10
3.3644
20
0.1570
10
3.3644
20
0.1727
10
3.3487
20
0.1963
10
3.3487
20
0.2198
10
3.3408
20
0.2277
10
3.3408
20
0.2984
10
3.3487
20
0.3062
10
3.3487
20
0.3455
10
3.3565
20
0.3533
10
3.3565
20
0.3690
10
3.3722
20
0.3847
10
3.3722
20
0.4004
10
3.3801
20
0.4083
10
3.3801
20
0.4161
10
3.3879
20
0.4240
10
3.3879
20
0.4318
10
3.3958
20
0.4397
10
3.3958
20
0.4475
10
3.4036
20
0.4554
10
3.4036
20
0.4632
10
3.4115
20
0.4711
10
3.4115
20
0.4789
10
3.4193
20
0.4868
10
3.4272
20
0.5103
10
3.4507
20
0.5339
10
3.4507
20
0.5418
10
3.4586
20
0.5496
10
3.4586
20
0.5575
10
3.4664
20
0.5653
10
3.4664
20
0.5732
10
3.4743
20
0.5810
10
3.4821
20
0.6046
10
3.4978
20
0.6203
10
3.4978
20
0.6281
10
3.5057
20
0.6360
10
3.5057
20
0.6438
10
3.5135
20
0.6517
10
3.5214
20
0.6752
10
3.5371
20
0.6909
10
3.5450
20
0.7145
10
3.5607
20
0.7302
10
3.5607
20
0.7380
10
3.5685
20
0.7459
10
3.5685
20
0.7537
10
3.5764
20
0.7616
10
3.5764
20
0.7694
10
3.5842
20
0.7773
10
3.5921
20
0.8009
0
LWPOLYLINE
8
LOGO
90
32
70
1
10
3.4468
20
0.3729
10
3.4272
20
0.3455
10
3.4272
20
0.2355
10
3.4350
20
0.2277
10
3.4350
20
0.2041
10
3.4429
20
0.1963
10
3.4507
20
0.1727
10
3.4743
20
0.1492
10
3.4743
20
0.1413
10
3.4939
20
0.1217
10
3.5018
20
0.1217
10
3.5410
20
0.0903
10
3.5567
20
0.0903
10
3.5646
20
0.0824
10
3.5803
20
0.0824
10
3.5842
20
0.0942
10
3.5724
20
0.0981
10
3.5607
20
0.1099
10
3.5607
20
0.1178
10
3.5489
20
0.1217
10
3.5135
20
0.1570
10
3.5135
20
0.1649
10
3.4978
20
0.1806
10
3.4978
20
0.1884
10
3.4821
20
0.2041
10
3.4821
20
0.2120
10
3.4743
20
0.2198
10
3.4743
20
0.2355
10
3.4664
20
0.2434
10
3.4664
20
0.2670
10
3.4586
20
0.2748
10
3.4586
20
0.3690
0
LWPOLYLINE
8
LOGO
90
191
70
1
10
5.9750
20
1.5899
10
6.0221
20
1.5899
10
6.0300
20
1.5821
10
6.0378
20
1.5821
10
6.0574
20
1.5624
10
6.0574
20
1.5546
10
6.0535
20
1.5507
10
6.0300
20
1.5507
10
6.0221
20
1.5428
10
5.9985
20
1.5428
10
5.9907
20
1.5350
10
5.9671
20
1.5350
10
5.9593
20
1.5271
10
5.9357
20
1.5271
10
5.9279
20
1.5193
10
5.9122
20
1.5193
10
5.9043
20
1.5114
10
5.8886
20
1.5114
10
5.8729
20
1.4957
10
5.8494
20
1.4879
10
5.8062
20
1.4447
10
5.8062
20
1.4368
10
5.7983
20
1.4290
10
5.7983
20
1.3819
10
5.8062
20
1.3740
10
5.8062
20
1.3662
10
5.8415
20
1.3308
10
5.8494
20
1.3308
10
5.8651
20
1.3151
10
5.8729
20
1.3151
10
5.8808
20
1.3073
10
5.8886
20
1.3073
10
5.9279
20
1.2837
10
5.9514
20
1.2837
10
5.9593
20
1.2759
10
5.9750
20
1.2759
10
5.9828
20
1.2680
10
5.9985
20
1.2680
10
6.0064
20
1.2602
10
6.0378
20
1.2602
10
6.0457
20
1.2523
10
6.0849
20
1.2523
10
6.0928
20
1.2445
10
6.1634
20
1.2445
10
6.1713
20
1.2366
10
6.2576
20
1.2366
10
6.2655
20
1.2288
10
6.3754
20
1.2288
10
6.3833
20
1.2366
10
6.4932
20
1.2366
10
6.5010
20
1.2445
10
6.5403
20
1.2445
10
6.5482
20
1.2523
10
6.5796
20
1.2523
10
6.5874
20
1.2602
10
6.6267
20
1.2602
10
6.6345
20
1.2680
10
6.6502
20
1.2680
10
6.6581
20
1.2759
10
6.6738
20
1.2759
10
6.6816
20
1.2837
10
6.7052
20
1.2837
10
6.7209
20
1.2994
10
6.7366
20
1.2994
10
6.7601
20
1.3230
10
6.7680
20
1.3230
10
6.7837
20
1.3387
10
6.7915
20
1.3387
10
6.7955
20
1.3505
10
6.8112
20
1.3662
10
6.8112
20
1.3740
10
6.8190
20
1.3819
10
6.8190
20
1.4290
10
6.8112
20
1.4368
10
6.8112
20
1.4447
10
6.7758
20
1.4800
10
6.7680
20
1.4800
10
6.7523
20
1.4957
10
6.7405
20
1.4996
10
6.7405
20
1.5075
10
6.7601
20
1.5271
10
6.7680
20
1.5271
10
6.7915
20
1.5428
10
6.8465
20
1.5428
10
6.8701
20
1.5271
10
6.8858
20
1.5271
10
6.8936
20
1.5193
10
6.9093
20
1.5193
10
6.9172
20
1.5114
10
6.9250
20
1.5114
10
6.9407
20
1.4957
10
6.9564
20
1.4957
10
6.9643
20
1.4879
10
6.9721
20
1.4879
10
6.9878
20
1.4722
10
6.9957
20
1.4722
10
6.9996
20
1.4604
10
7.0114
20
1.4486
10
7.0232
20
1.4447
10
7.0232
20
1.4368
10
7.0310
20
1.4290
10
7.0310
20
1.4054
10
7.0389
20
1.3976
10
7.0389
20
1.3819
10
7.0310
20
1.3740
10
7.0310
20
1.3583
10
7.0232
20
1.3505
10
7.0232
20
1.3426
10
7.0114
20
1.3308
10
7.0035
20
1.3308
10
6.9996
20
1.3191
10
6.9878
20
1.3073
10
6.9800
20
1.3073
10
6.9564
20
1.2837
10
6.9407
20
1.2837
10
6.9329
20
1.2759
10
6.9250
20
1.2759
10
6.9093
20
1.2602
10
6.8936
20
1.2602
10
6.8701
20
1.2445
10
6.8544
20
1.2445
10
6.8465
20
1.2366
10
6.8308
20
1.2366
10
6.8230
20
1.2288
10
6.7994
20
1.2288
10
6.7758
20
1.2131
10
6.7444
20
1.2131
10
6.7366
20
1.2052
10
6.6973
20
1.2052
10
6.6895
20
1.1974
10
6.6502
20
1.1974
10
6.6424
20
1.1895
10
6.6110
20
1.1895
10
6.6031
20
1.1817
10
6.5482
20
1.1817
10
6.5403
20
1.1738
10
6.4539
20
1.1738
10
6.4461
20
1.1659
10
6.1870
20
1.1659
10
6.1791
20
1.1738
10
6.0849
20
1.1738
10
6.0771
20
1.1817
10
6.0143
20
1.1817
10
6.0064
20
1.1895
10
5.9671
20
1.1895
10
5.9593
20
1.1974
10
5.9200
20
1.1974
10
5.9122
20
1.2052
10
5.8886
20
1.2052
10
5.8808
20
1.2131
10
5.8572
20
1.2131
10
5.8494
20
1.2209
10
5.8337
20
1.2209
10
5.8258
20
1.2288
10
5.8023
20
1.2288
10
5.7944
20
1.2366
10
5.7709
20
1.2366
10
5.7316
20
1.2602
10
5.7159
20
1.2602
10
5.7002
20
1.2759
10
5.6845
20
1.2759
10
5.6766
20
1.2837
10
5.6531
20
1.2916
10
5.6374
20
1.3073
10
5.6295
20
1.3073
10
5.5863
20
1.3505
10
5.5863
20
1.3583
10
5.5785
20
1.3662
10
5.5785
20
1.4133
10
5.5863
20
1.4211
10
5.5863
20
1.4290
10
5.6295
20
1.4722
10
5.6374
20
1.4722
10
5.6609
20
1.4957
10
5.6766
20
1.4957
10
5.6845
20
1.5036
10
5.6923
20
1.5036
10
5.7316
20
1.5271
10
5.7473
20
1.5271
10
5.7552
20
1.5350
10
5.7709
20
1.5350
10
5.7787
20
1.5428
10
5.7944
20
1.5428
10
5.8023
20
1.5507
10
5.8258
20
1.5507
10
5.8337
20
1.5585
10
5.8572
20
1.5585
10
5.8808
20
1.5742
10
5.9200
20
1.5742
10
5.9279
20
1.5821
10
5.9671
20
1.5821
0
LWPOLYLINE
8
LOGO
90
56
70
1
10
0.0471
20
2.0924
10
0.2198
20
2.0924
10
0.2395
20
2.0728
10
0.2395
20
2.0414
10
0.2277
20
2.0296
10
0.2120
20
2.0296
10
0.2041
20
2.0218
10
0.1413
20
2.0218
10
0.1217
20
2.0021
10
0.1138
20
1.9786
10
0.1217
20
1.9707
10
0.1217
20
1.9629
10
0.1413
20
1.9432
10
0.6124
20
1.9432
10
0.6163
20
1.9393
10
0.6163
20
1.8844
10
0.6085
20
1.8765
10
0.6085
20
1.8608
10
0.6163
20
1.8530
10
0.6163
20
1.7901
10
0.6242
20
1.7823
10
0.6242
20
1.7744
10
0.6124
20
1.7627
10
0.3376
20
1.7627
10
0.3180
20
1.7430
10
0.3180
20
1.7273
10
0.3258
20
1.7195
10
0.3258
20
1.7038
10
0.3376
20
1.6920
10
0.3455
20
1.6920
10
0.3533
20
1.6841
10
0.4711
20
1.6841
10
0.4829
20
1.6724
10
0.4829
20
1.6331
10
0.4554
20
1.6135
10
0.4318
20
1.6135
10
0.4240
20
1.6213
10
0.4083
20
1.6213
10
0.4004
20
1.6135
10
0.0393
20
1.6135
10
0.0314
20
1.6213
10
0.0236
20
1.6213
10
0.0118
20
1.6331
10
0.0118
20
1.6881
10
-0.0039
20
1.7116
10
-0.0039
20
1.8844
10
0.0039
20
1.8922
10
0.0039
20
1.9315
10
0.0118
20
1.9393
10
0.0118
20
1.9943
10
0.0196
20
2.0021
10
0.0196
20
2.0178
10
0.0275
20
2.0257
10
0.0275
20
2.0414
10
0.0353
20
2.0492
10
0.0353
20
2.0728
0
LWPOLYLINE
8
LOGO
90
55
70
1
10
3.2113
20
1.3701
10
3.2348
20
1.3544
10
3.2584
20
1.3544
10
3.2819
20
1.3387
10
3.2976
20
1.3387
10
3.3055
20
1.3308
10
3.3212
20
1.3308
10
3.3290
20
1.3230
10
3.3369
20
1.3230
10
3.3447
20
1.3151
10
3.3604
20
1.3151
10
3.3683
20
1.3073
10
3.3761
20
1.3151
10
3.3840
20
1.3073
10
3.4076
20
1.3073
10
3.4154
20
1.2994
10
3.4547
20
1.2994
10
3.4782
20
1.2837
10
3.5096
20
1.2837
10
3.5175
20
1.2759
10
3.6195
20
1.2759
10
3.6274
20
1.2680
10
3.7844
20
1.2680
10
3.7923
20
1.2759
10
3.8001
20
1.2759
10
3.8119
20
1.2641
10
3.8119
20
1.2405
10
3.8041
20
1.2327
10
3.8041
20
1.1699
10
3.7962
20
1.1620
10
3.7962
20
1.1385
10
3.7884
20
1.1306
10
3.7884
20
1.0992
10
3.7805
20
1.0914
10
3.7805
20
1.0442
10
3.7726
20
1.0364
10
3.7726
20
1.0285
10
3.7687
20
1.0246
10
3.1485
20
1.0246
10
3.1445
20
1.0285
10
3.1445
20
1.0442
10
3.1524
20
1.0521
10
3.1524
20
1.1071
10
3.1602
20
1.1149
10
3.1602
20
1.1463
10
3.1681
20
1.1542
10
3.1681
20
1.2013
10
3.1759
20
1.2091
10
3.1759
20
1.2327
10
3.1838
20
1.2405
10
3.1838
20
1.2955
10
3.1916
20
1.3033
10
3.1916
20
1.3269
10
3.1995
20
1.3348
10
3.1995
20
1.3505
0
LWPOLYLINE
8
LOGO
90
96
70
1
10
2.0021
20
2.1631
10
2.4261
20
2.1631
10
2.4379
20
2.1513
10
2.4379
20
2.1199
10
2.4261
20
2.1081
10
2.3712
20
2.1081
10
2.3633
20
2.1003
10
2.3476
20
2.1003
10
2.3358
20
2.0885
10
2.3358
20
2.0257
10
2.3555
20
2.0061
10
2.3712
20
2.0061
10
2.3790
20
1.9982
10
2.3869
20
2.0061
10
2.4732
20
2.0061
10
2.4811
20
1.9982
10
2.5517
20
1.9982
10
2.5596
20
2.0061
10
2.5792
20
1.9864
10
2.5792
20
1.9550
10
2.5674
20
1.9354
10
2.0728
20
1.9354
10
2.0532
20
1.9079
10
2.0532
20
1.8608
10
2.0806
20
1.8333
10
2.0885
20
1.8333
10
2.0964
20
1.8255
10
2.1435
20
1.8255
10
2.1513
20
1.8176
10
2.1592
20
1.8176
10
2.1709
20
1.7980
10
2.1709
20
1.7666
10
2.1670
20
1.7627
10
2.1356
20
1.7627
10
2.1278
20
1.7548
10
1.8058
20
1.7548
10
1.8019
20
1.7587
10
1.8019
20
1.7744
10
1.8255
20
1.7980
10
1.8255
20
1.8058
10
1.8373
20
1.8176
10
1.8451
20
1.8176
10
1.8530
20
1.8255
10
1.8608
20
1.8176
10
1.8687
20
1.8255
10
1.9001
20
1.8255
10
1.9079
20
1.8333
10
1.9158
20
1.8333
10
1.9197
20
1.8451
10
1.9354
20
1.8608
10
1.9354
20
1.8922
10
1.9236
20
1.9040
10
1.9197
20
1.9001
10
1.9197
20
1.8687
10
1.9001
20
1.8490
10
1.8687
20
1.8490
10
1.8647
20
1.8530
10
1.8804
20
1.8687
10
1.8804
20
1.8765
10
1.8883
20
1.8844
10
1.8883
20
1.9001
10
1.9001
20
1.9040
10
1.9118
20
1.9158
10
1.9118
20
1.9393
10
1.9197
20
1.9472
10
1.9197
20
1.9629
10
1.9511
20
2.0100
10
1.9511
20
2.0257
10
1.9668
20
2.0492
10
1.9668
20
2.0649
10
1.9786
20
2.0846
10
2.1906
20
2.0846
10
2.2102
20
2.0649
10
2.2102
20
2.0335
10
2.1906
20
2.0218
10
2.0414
20
2.0218
10
2.0296
20
2.0100
10
2.0335
20
1.9982
10
2.1906
20
1.9982
10
2.1984
20
2.0061
10
2.2063
20
2.0061
10
2.2259
20
2.0257
10
2.2259
20
2.0335
10
2.2338
20
2.0414
10
2.2338
20
2.0728
10
2.2259
20
2.0806
10
2.2259
20
2.0885
10
2.2141
20
2.1003
10
2.1984
20
2.1003
10
2.1906
20
2.1081
10
2.0178
20
2.1081
10
1.9943
20
2.0924
10
1.9904
20
2.0964
10
1.9904
20
2.1356
10
1.9982
20
2.1435
10
1.9982
20
2.1592
0
LWPOLYLINE
8
LOGO
90
124
70
1
10
3.7609
20
1.7705
10
3.8865
20
1.7705
10
3.8983
20
1.7587
10
3.8983
20
1.7352
10
3.8865
20
1.7156
10
3.7844
20
1.7156
10
3.7766
20
1.7234
10
3.7295
20
1.7234
10
3.7216
20
1.7156
10
3.6824
20
1.7156
10
3.6745
20
1.7077
10
3.6509
20
1.7077
10
3.6431
20
1.6999
10
3.5960
20
1.6999
10
3.5881
20
1.6920
10
3.5332
20
1.6920
10
3.5253
20
1.6841
10
3.4939
20
1.6841
10
3.4861
20
1.6763
10
3.4704
20
1.6763
10
3.4625
20
1.6684
10
3.4468
20
1.6684
10
3.4390
20
1.6606
10
3.4233
20
1.6606
10
3.4154
20
1.6527
10
3.4076
20
1.6527
10
3.3997
20
1.6449
10
3.3918
20
1.6449
10
3.3840
20
1.6370
10
3.3604
20
1.6292
10
3.3447
20
1.6135
10
3.3369
20
1.6135
10
3.3094
20
1.5860
10
3.3094
20
1.5782
10
3.3016
20
1.5703
10
3.3016
20
1.5546
10
3.2937
20
1.5467
10
3.2937
20
1.5310
10
3.3016
20
1.5232
10
3.3016
20
1.5075
10
3.3173
20
1.4918
10
3.3173
20
1.4839
10
3.3290
20
1.4722
10
3.3369
20
1.4722
10
3.3604
20
1.4486
10
3.3683
20
1.4486
10
3.3761
20
1.4408
10
3.3840
20
1.4408
10
3.4233
20
1.4172
10
3.4390
20
1.4172
10
3.4468
20
1.4093
10
3.4704
20
1.4093
10
3.4782
20
1.4015
10
3.4939
20
1.4015
10
3.5018
20
1.3936
10
3.5253
20
1.3936
10
3.5332
20
1.3858
10
3.5881
20
1.3858
10
3.5960
20
1.3779
10
3.6352
20
1.3779
10
3.6431
20
1.3701
10
3.7059
20
1.3701
10
3.7138
20
1.3622
10
3.8237
20
1.3622
10
3.8276
20
1.3583
10
3.8276
20
1.3191
10
3.8080
20
1.2994
10
3.7059
20
1.2994
10
3.6981
20
1.3073
10
3.5881
20
1.3073
10
3.5803
20
1.3151
10
3.4861
20
1.3151
10
3.4782
20
1.3230
10
3.4547
20
1.3230
10
3.4468
20
1.3308
10
3.4076
20
1.3308
10
3.3997
20
1.3387
10
3.3840
20
1.3387
10
3.3761
20
1.3465
10
3.3526
20
1.3465
10
3.3447
20
1.3544
10
3.3290
20
1.3544
10
3.3212
20
1.3622
10
3.3055
20
1.3622
10
3.2976
20
1.3701
10
3.2662
20
1.3701
10
3.2427
20
1.3858
10
3.2270
20
1.3858
10
3.2073
20
1.4054
10
3.2073
20
1.4133
10
3.2152
20
1.4211
10
3.2152
20
1.4525
10
3.2230
20
1.4604
10
3.2230
20
1.4996
10
3.2309
20
1.5075
10
3.2309
20
1.5467
10
3.2387
20
1.5546
10
3.2387
20
1.5860
10
3.2466
20
1.5939
10
3.2466
20
1.6410
10
3.2544
20
1.6488
10
3.2544
20
1.6567
10
3.2741
20
1.6763
10
3.2819
20
1.6763
10
3.2898
20
1.6841
10
3.3055
20
1.6841
10
3.3133
20
1.6920
10
3.3290
20
1.6920
10
3.3526
20
1.7077
10
3.3761
20
1.7077
10
3.3840
20
1.7156
10
3.4076
20
1.7156
10
3.4154
20
1.7234
10
3.4390
20
1.7234
10
3.4468
20
1.7313
10
3.4782
20
1.7313
10
3.4861
20
1.7391
10
3.5410
20
1.7391
10
3.5489
20
1.7470
10
3.5960
20
1.7470
10
3.6038
20
1.7548
10
3.6431
20
1.7548
10
3.6509
20
1.7627
10
3.7530
20
1.7627
0
LWPOLYLINE
8
LOGO
90
119
70
1
10
6.0614
20
1.5271
10
6.1085
20
1.5271
10
6.1320
20
1.5036
10
6.1438
20
1.4996
10
6.1399
20
1.4957
10
6.1242
20
1.4957
10
6.1163
20
1.4879
10
6.1006
20
1.4879
10
6.0928
20
1.4800
10
6.0692
20
1.4800
10
6.0614
20
1.4722
10
6.0535
20
1.4722
10
6.0457
20
1.4643
10
6.0221
20
1.4565
10
6.0025
20
1.4368
10
6.0025
20
1.4290
10
5.9946
20
1.4211
10
5.9946
20
1.3976
10
6.0103
20
1.3819
10
6.0143
20
1.3701
10
6.0221
20
1.3701
10
6.0457
20
1.3544
10
6.0614
20
1.3544
10
6.0692
20
1.3465
10
6.0928
20
1.3465
10
6.1006
20
1.3387
10
6.1242
20
1.3387
10
6.1320
20
1.3308
10
6.1634
20
1.3308
10
6.1713
20
1.3230
10
6.2105
20
1.3230
10
6.2184
20
1.3151
10
6.4068
20
1.3151
10
6.4147
20
1.3230
10
6.4539
20
1.3230
10
6.4618
20
1.3308
10
6.5010
20
1.3308
10
6.5089
20
1.3387
10
6.5325
20
1.3387
10
6.5717
20
1.3622
10
6.5874
20
1.3622
10
6.6149
20
1.3897
10
6.6149
20
1.4290
10
6.5953
20
1.4486
10
6.5835
20
1.4525
10
6.5835
20
1.4682
10
6.5874
20
1.4722
10
6.6031
20
1.4722
10
6.6110
20
1.4800
10
6.6424
20
1.4800
10
6.6502
20
1.4879
10
6.6973
20
1.4879
10
6.7052
20
1.4800
10
6.7209
20
1.4800
10
6.7287
20
1.4722
10
6.7523
20
1.4643
10
6.7798
20
1.4368
10
6.7798
20
1.4290
10
6.7876
20
1.4211
10
6.7876
20
1.3897
10
6.7798
20
1.3819
10
6.7798
20
1.3740
10
6.7523
20
1.3465
10
6.7444
20
1.3465
10
6.7209
20
1.3230
10
6.7052
20
1.3230
10
6.6973
20
1.3151
10
6.6738
20
1.3151
10
6.6659
20
1.3073
10
6.6424
20
1.3073
10
6.6345
20
1.2994
10
6.6188
20
1.2994
10
6.6110
20
1.2916
10
6.5874
20
1.2916
10
6.5796
20
1.2837
10
6.5482
20
1.2837
10
6.5403
20
1.2759
10
6.4775
20
1.2759
10
6.4696
20
1.2680
10
6.3676
20
1.2680
10
6.3597
20
1.2602
10
6.2576
20
1.2602
10
6.2498
20
1.2680
10
6.1477
20
1.2680
10
6.1399
20
1.2759
10
6.0928
20
1.2759
10
6.0849
20
1.2837
10
6.0457
20
1.2837
10
6.0378
20
1.2916
10
6.0143
20
1.2916
10
6.0064
20
1.2994
10
5.9907
20
1.2994
10
5.9828
20
1.3073
10
5.9593
20
1.3073
10
5.9514
20
1.3151
10
5.9357
20
1.3151
10
5.9122
20
1.3308
10
5.8965
20
1.3308
10
5.8886
20
1.3387
10
5.8808
20
1.3387
10
5.8651
20
1.3544
10
5.8572
20
1.3544
10
5.8297
20
1.3819
10
5.8219
20
1.4054
10
5.8297
20
1.4133
10
5.8376
20
1.4368
10
5.8494
20
1.4408
10
5.8729
20
1.4643
10
5.8808
20
1.4643
10
5.8886
20
1.4722
10
5.8965
20
1.4722
10
5.9357
20
1.4957
10
5.9593
20
1.4957
10
5.9671
20
1.5036
10
5.9907
20
1.5036
10
5.9985
20
1.5114
10
6.0143
20
1.5114
10
6.0221
20
1.5193
10
6.0535
20
1.5193
0
LWPOLYLINE
8
LOGO
90
79
70
1
10
3.7216
20
1.6920
10
3.8786
20
1.6920
10
3.8826
20
1.6881
10
3.8826
20
1.6567
10
3.8708
20
1.6449
10
3.6902
20
1.6449
10
3.6824
20
1.6370
10
3.6431
20
1.6370
10
3.6352
20
1.6292
10
3.6038
20
1.6292
10
3.5960
20
1.6213
10
3.5803
20
1.6213
10
3.5567
20
1.6056
10
3.5410
20
1.6056
10
3.5057
20
1.5703
10
3.5057
20
1.5310
10
3.5410
20
1.4957
10
3.5489
20
1.4957
10
3.5724
20
1.4800
10
3.5881
20
1.4800
10
3.5960
20
1.4722
10
3.6274
20
1.4722
10
3.6352
20
1.4643
10
3.6824
20
1.4643
10
3.6902
20
1.4565
10
3.7530
20
1.4565
10
3.7609
20
1.4486
10
3.8001
20
1.4486
10
3.8080
20
1.4565
10
3.8315
20
1.4565
10
3.8433
20
1.4447
10
3.8433
20
1.4290
10
3.8355
20
1.4211
10
3.8355
20
1.3976
10
3.8315
20
1.3936
10
3.6981
20
1.3936
10
3.6902
20
1.4015
10
3.6274
20
1.4015
10
3.6195
20
1.4093
10
3.5724
20
1.4093
10
3.5646
20
1.4172
10
3.5175
20
1.4172
10
3.5096
20
1.4250
10
3.4939
20
1.4250
10
3.4861
20
1.4329
10
3.4704
20
1.4329
10
3.4625
20
1.4408
10
3.4468
20
1.4408
10
3.4390
20
1.4486
10
3.4233
20
1.4486
10
3.4076
20
1.4643
10
3.3997
20
1.4643
10
3.3918
20
1.4722
10
3.3840
20
1.4722
10
3.3683
20
1.4879
10
3.3604
20
1.4879
10
3.3330
20
1.5153
10
3.3330
20
1.5232
10
3.3251
20
1.5310
10
3.3330
20
1.5389
10
3.3330
20
1.5624
10
3.3761
20
1.6056
10
3.3918
20
1.6056
10
3.4311
20
1.6292
10
3.4468
20
1.6292
10
3.4547
20
1.6370
10
3.4704
20
1.6370
10
3.4782
20
1.6449
10
3.4939
20
1.6449
10
3.5018
20
1.6527
10
3.5253
20
1.6527
10
3.5332
20
1.6606
10
3.5567
20
1.6606
10
3.5646
20
1.6684
10
3.5960
20
1.6684
10
3.6038
20
1.6763
10
3.6431
20
1.6763
10
3.6509
20
1.6841
10
3.7138
20
1.6841
0
LWPOLYLINE
8
LOGO
90
31
70
1
10
2.2534
20
1.5114
10
2.4968
20
1.5114
10
2.5007
20
1.5075
10
2.5007
20
1.4682
10
2.4929
20
1.4604
10
2.4929
20
1.4133
10
2.4850
20
1.4054
10
2.4850
20
1.3897
10
2.4771
20
1.3819
10
2.4771
20
1.3112
10
2.4654
20
1.2994
10
2.0100
20
1.2994
10
1.9904
20
1.3112
10
1.9904
20
1.3191
10
1.9825
20
1.3269
10
1.9904
20
1.3348
10
1.9904
20
1.3426
10
2.0021
20
1.3544
10
2.0178
20
1.3544
10
2.0257
20
1.3622
10
2.2848
20
1.3622
10
2.3044
20
1.3819
10
2.3044
20
1.4133
10
2.2848
20
1.4329
10
2.2769
20
1.4329
10
2.2691
20
1.4408
10
2.2298
20
1.4408
10
2.2180
20
1.4525
10
2.2180
20
1.4918
10
2.2298
20
1.5036
10
2.2455
20
1.5036
0
LWPOLYLINE
8
LOGO
90
39
70
1
10
6.1556
20
1.4722
10
6.2655
20
1.4722
10
6.2734
20
1.4643
10
6.3048
20
1.4643
10
6.3126
20
1.4565
10
6.5246
20
1.4565
10
6.5325
20
1.4486
10
6.5482
20
1.4486
10
6.5560
20
1.4408
10
6.5796
20
1.4329
10
6.5913
20
1.4211
10
6.5913
20
1.4133
10
6.5717
20
1.3936
10
6.5560
20
1.3936
10
6.5482
20
1.3858
10
6.5325
20
1.3858
10
6.5089
20
1.3701
10
6.4932
20
1.3701
10
6.4853
20
1.3622
10
6.4618
20
1.3622
10
6.4539
20
1.3544
10
6.4068
20
1.3544
10
6.3990
20
1.3465
10
6.2419
20
1.3465
10
6.2341
20
1.3544
10
6.1713
20
1.3544
10
6.1634
20
1.3622
10
6.1320
20
1.3622
10
6.1242
20
1.3701
10
6.0928
20
1.3701
10
6.0692
20
1.3858
10
6.0535
20
1.3858
10
6.0260
20
1.4133
10
6.0535
20
1.4408
10
6.0614
20
1.4408
10
6.0692
20
1.4486
10
6.0849
20
1.4486
10
6.1085
20
1.4643
10
6.1477
20
1.4643
0
LWPOLYLINE
8
LOGO
90
26
70
1
10
2.2612
20
1.2131
10
2.4497
20
1.2131
10
2.4536
20
1.2091
10
2.4536
20
1.1699
10
2.4457
20
1.1620
10
2.4457
20
1.1463
10
2.4379
20
1.1385
10
2.4379
20
1.1149
10
2.4300
20
1.1071
10
2.4300
20
1.0521
10
2.4104
20
1.0246
10
1.8922
20
1.0246
10
1.8883
20
1.0285
10
1.8883
20
1.0521
10
1.9079
20
1.0717
10
2.3476
20
1.0717
10
2.3555
20
1.0796
10
2.3633
20
1.0796
10
2.3751
20
1.0992
10
2.3751
20
1.1228
10
2.3555
20
1.1424
10
2.3476
20
1.1424
10
2.3397
20
1.1502
10
2.2612
20
1.1502
10
2.2416
20
1.1699
10
2.2416
20
1.1934
0
LWPOLYLINE
8
LOGO
90
32
70
1
10
3.7373
20
1.6213
10
3.8629
20
1.6213
10
3.8747
20
1.6096
10
3.8747
20
1.5939
10
3.8669
20
1.5860
10
3.8669
20
1.5546
10
3.8590
20
1.5467
10
3.8590
20
1.4996
10
3.8394
20
1.4722
10
3.7844
20
1.4722
10
3.7766
20
1.4800
10
3.7452
20
1.4800
10
3.7373
20
1.4879
10
3.6902
20
1.4879
10
3.6824
20
1.4957
10
3.6352
20
1.4957
10
3.6274
20
1.5036
10
3.5960
20
1.5036
10
3.5881
20
1.5114
10
3.5724
20
1.5114
10
3.5646
20
1.5193
10
3.5410
20
1.5271
10
3.5293
20
1.5467
10
3.5293
20
1.5546
10
3.5489
20
1.5742
10
3.5567
20
1.5742
10
3.5960
20
1.5978
10
3.6117
20
1.5978
10
3.6195
20
1.6056
10
3.6588
20
1.6056
10
3.6667
20
1.6135
10
3.7295
20
1.6135
0
LWPOLYLINE
8
LOGO
90
13
70
1
10
11.7144
20
3.1053
10
11.7301
20
3.1053
10
11.7419
20
3.0935
10
11.7419
20
2.7402
10
11.7380
20
2.7362
10
11.7144
20
2.7362
10
11.7105
20
2.7402
10
11.7105
20
2.8344
10
11.7027
20
2.8422
10
11.7027
20
2.8736
10
11.7105
20
2.8815
10
11.7027
20
2.8894
10
11.7027
20
3.0935
0
LWPOLYLINE
8
LOGO
90
8
70
1
10
12.3504
20
3.0268
10
12.3661
20
3.0268
10
12.3700
20
3.0228
10
12.3700
20
2.6146
10
12.3661
20
2.6106
10
12.3426
20
2.6106
10
12.3386
20
2.6146
10
12.3386
20
3.0150
0
LWPOLYLINE
8
LOGO
90
8
70
1
10
11.4867
20
2.9168
10
11.4946
20
2.9168
10
11.5142
20
2.8972
10
11.5142
20
2.6146
10
11.5103
20
2.6106
10
11.4789
20
2.6106
10
11.4750
20
2.6146
10
11.4750
20
2.8972
0
LWPOLYLINE
8
LOGO
90
8
70
1
10
12.1463
20
2.9561
10
12.1620
20
2.9561
10
12.1659
20
2.9522
10
12.1659
20
2.6146
10
12.1620
20
2.6106
10
12.1463
20
2.6106
10
12.1423
20
2.6146
10
12.1423
20
2.9522
0
LWPOLYLINE
8
LOGO
90
9
70
1
10
11.9500
20
3.2230
10
11.9657
20
3.2230
10
11.9775
20
3.2034
10
11.9696
20
3.1956
10
11.9696
20
2.9051
10
11.9657
20
2.9011
10
11.9500
20
2.9011
10
11.9461
20
2.9051
10
11.9461
20
3.2191
0
LWPOLYLINE
8
LOGO
90
8
70
1
10
1.9236
20
1.2131
10
2.0100
20
1.2131
10
2.0296
20
1.1934
10
2.0296
20
1.1699
10
2.0100
20
1.1502
10
1.9158
20
1.1502
10
1.9040
20
1.1620
10
1.9040
20
1.1934
0
LWPOLYLINE
8
LOGO
90
10
70
1
10
0.0471
20
1.5350
10
0.1492
20
1.5350
10
0.1688
20
1.5153
10
0.1688
20
1.4996
10
0.1492
20
1.4722
10
0.0628
20
1.4722
10
0.0510
20
1.4918
10
0.0510
20
1.5075
10
0.0432
20
1.5153
10
0.0432
20
1.5310
0
LWPOLYLINE
8
LOGO
90
11
70
1
10
0.6281
20
1.6841
10
0.6438
20
1.6841
10
0.6556
20
1.6724
10
0.6556
20
1.6645
10
0.6713
20
1.6488
10
0.6713
20
1.6410
10
0.6792
20
1.6331
10
0.6752
20
1.6213
10
0.6281
20
1.6213
10
0.6163
20
1.6331
10
0.6163
20
1.6724
0
ENDSEC
0
EOF
