0
SECTION
2
ENTITIES
0
LWPOLYLINE
8
LOGO
90
545
70
1
10
8.0847
20
4.6001
10
8.5424
20
4.6001
10
8.5519
20
4.5906
10
8.5900
20
4.5906
10
8.5996
20
4.5810
10
8.6854
20
4.5810
10
8.6949
20
4.5715
10
8.7426
20
4.5715
10
8.7521
20
4.5620
10
8.7902
20
4.5620
10
8.7998
20
4.5524
10
8.8284
20
4.5524
10
8.8379
20
4.5429
10
8.8570
20
4.5429
10
8.8665
20
4.5334
10
8.8856
20
4.5334
10
8.8951
20
4.5238
10
8.9237
20
4.5238
10
8.9332
20
4.5143
10
8.9523
20
4.5143
10
8.9619
20
4.5048
10
8.9905
20
4.5048
10
9.0191
20
4.4857
10
9.0381
20
4.4857
10
9.0477
20
4.4762
10
9.0667
20
4.4762
10
9.0763
20
4.4666
10
9.0858
20
4.4666
10
9.0953
20
4.4571
10
9.1049
20
4.4571
10
9.1144
20
4.4476
10
9.1239
20
4.4476
10
9.1335
20
4.4380
10
9.1430
20
4.4380
10
9.1525
20
4.4285
10
9.1811
20
4.4190
10
9.2002
20
4.3999
10
9.2193
20
4.3999
10
9.2383
20
4.3808
10
9.2479
20
4.3808
10
9.2574
20
4.3713
10
9.2669
20
4.3713
10
9.2860
20
4.3522
10
9.2955
20
4.3522
10
9.3337
20
4.3141
10
9.3432
20
4.3141
10
9.3813
20
4.2759
10
9.3909
20
4.2759
10
9.4528
20
4.2140
10
9.4528
20
4.2044
10
9.5100
20
4.1472
10
9.5100
20
4.1377
10
9.5291
20
4.1186
10
9.5291
20
4.1091
10
9.5577
20
4.0805
10
9.5577
20
4.0710
10
9.5673
20
4.0614
10
9.5768
20
4.0328
10
9.5959
20
4.0138
10
9.5959
20
3.9947
10
9.6149
20
3.9661
10
9.6149
20
3.9470
10
9.6245
20
3.9375
10
9.6245
20
3.9280
10
9.6435
20
3.8994
10
9.6435
20
3.8803
10
9.6626
20
3.8517
10
9.6626
20
3.8326
10
9.6721
20
3.8231
10
9.6721
20
3.7945
10
9.6817
20
3.7850
10
9.6817
20
3.7564
10
9.6912
20
3.7468
10
9.6912
20
3.6991
10
9.7007
20
3.6896
10
9.7007
20
3.6515
10
9.7103
20
3.6419
10
9.7103
20
3.3178
10
9.7007
20
3.3083
10
9.7007
20
3.2320
10
9.6912
20
3.2225
10
9.6912
20
3.1652
10
9.6817
20
3.1557
10
9.6817
20
3.0890
10
9.6721
20
3.0794
10
9.6721
20
3.0318
10
9.6626
20
3.0222
10
9.6626
20
2.9650
10
9.6531
20
2.9555
10
9.6531
20
2.9364
10
9.6435
20
2.9269
10
9.6435
20
2.8316
10
9.6340
20
2.8220
10
9.6340
20
2.7553
10
9.6245
20
2.7458
10
9.6245
20
2.7076
10
9.6149
20
2.6981
10
9.6149
20
2.6123
10
9.6054
20
2.6028
10
9.6054
20
2.5837
10
9.5959
20
2.5741
10
9.5959
20
2.4883
10
9.5863
20
2.4788
10
9.5863
20
2.4502
10
9.5768
20
2.4407
10
9.5768
20
2.3835
10
9.5673
20
2.3739
10
9.5673
20
2.3453
10
9.5577
20
2.3358
10
9.5577
20
2.2595
10
9.5482
20
2.2500
10
9.5482
20
2.2214
10
9.5387
20
2.2119
10
9.5387
20
2.1451
10
9.5291
20
2.1356
10
9.5291
20
2.1165
10
9.5196
20
2.1070
10
9.5196
20
2.0307
10
9.5100
20
2.0212
10
9.5100
20
1.9830
10
9.5005
20
1.9735
10
9.5005
20
1.9068
10
9.4910
20
1.8972
10
9.4910
20
1.8686
10
9.4814
20
1.8591
10
9.4814
20
1.7828
10
9.4719
20
1.7733
10
9.4719
20
1.7542
10
9.4624
20
1.7447
10
9.4624
20
1.6875
10
9.4528
20
1.6780
10
9.4528
20
1.6398
10
9.4433
20
1.6303
10
9.4433
20
1.5731
10
9.4338
20
1.5636
10
9.4338
20
1.5159
10
9.4242
20
1.5064
10
9.4242
20
1.4587
10
9.4147
20
1.4492
10
9.4147
20
1.3824
10
9.4052
20
1.3729
10
9.4052
20
1.3252
10
9.3956
20
1.3157
10
9.3956
20
1.2680
10
9.3813
20
1.2442
10
8.7330
20
1.2442
10
8.7187
20
1.2585
10
8.7187
20
1.2871
10
8.7283
20
1.2966
10
8.7283
20
1.3538
10
8.7378
20
1.3633
10
8.7378
20
1.4015
10
8.7473
20
1.4110
10
8.7473
20
1.4778
10
8.7569
20
1.4873
10
8.7569
20
1.5254
10
8.7664
20
1.5350
10
8.7664
20
1.6208
10
8.7759
20
1.6303
10
8.7759
20
1.6494
10
8.7855
20
1.6589
10
8.7855
20
1.7161
10
8.7712
20
1.7209
10
8.7664
20
1.7066
10
8.6758
20
1.6160
10
8.6663
20
1.6160
10
8.6615
20
1.6017
10
8.6186
20
1.5588
10
8.6091
20
1.5588
10
8.5424
20
1.4921
10
8.5328
20
1.4921
10
8.4947
20
1.4539
10
8.4852
20
1.4539
10
8.4661
20
1.4348
10
8.4566
20
1.4348
10
8.4280
20
1.4062
10
8.4184
20
1.4062
10
8.4089
20
1.3967
10
8.3803
20
1.3872
10
8.3612
20
1.3681
10
8.3517
20
1.3681
10
8.3421
20
1.3586
10
8.3135
20
1.3490
10
8.2945
20
1.3300
10
8.2754
20
1.3300
10
8.2659
20
1.3204
10
8.2563
20
1.3204
10
8.2087
20
1.2918
10
8.1896
20
1.2918
10
8.1610
20
1.2728
10
8.1419
20
1.2728
10
8.1324
20
1.2632
10
8.1133
20
1.2632
10
8.1038
20
1.2537
10
8.0847
20
1.2537
10
8.0561
20
1.2346
10
8.0180
20
1.2346
10
8.0085
20
1.2251
10
7.9799
20
1.2251
10
7.9703
20
1.2156
10
7.9513
20
1.2156
10
7.9417
20
1.2060
10
7.8941
20
1.2060
10
7.8845
20
1.1965
10
7.8464
20
1.1965
10
7.8369
20
1.1870
10
7.6176
20
1.1870
10
7.6080
20
1.1774
10
7.5890
20
1.1774
10
7.5794
20
1.1870
10
7.4269
20
1.1870
10
7.4174
20
1.1965
10
7.3697
20
1.1965
10
7.3602
20
1.2060
10
7.3220
20
1.2060
10
7.3125
20
1.2156
10
7.2839
20
1.2156
10
7.2744
20
1.2251
10
7.2362
20
1.2251
10
7.2267
20
1.2346
10
7.2076
20
1.2346
10
7.1981
20
1.2442
10
7.1790
20
1.2442
10
7.1695
20
1.2537
10
7.1504
20
1.2537
10
7.1409
20
1.2632
10
7.1027
20
1.2632
10
7.0551
20
1.2918
10
7.0360
20
1.2918
10
7.0265
20
1.3014
10
7.0169
20
1.3014
10
6.9693
20
1.3300
10
6.9502
20
1.3300
10
6.9407
20
1.3395
10
6.9311
20
1.3395
10
6.9216
20
1.3490
10
6.8930
20
1.3586
10
6.8739
20
1.3776
10
6.8644
20
1.3776
10
6.8453
20
1.3967
10
6.8358
20
1.3967
10
6.8072
20
1.4253
10
6.7977
20
1.4253
10
6.7595
20
1.4635
10
6.7500
20
1.4635
10
6.6785
20
1.5350
10
6.6785
20
1.5445
10
6.6308
20
1.5922
10
6.6308
20
1.6017
10
6.6117
20
1.6208
10
6.6022
20
1.6494
10
6.5831
20
1.6684
10
6.5831
20
1.6780
10
6.5641
20
1.7066
10
6.5641
20
1.7256
10
6.5545
20
1.7352
10
6.5545
20
1.7447
10
6.5355
20
1.7638
10
6.5355
20
1.7733
10
6.5259
20
1.7828
10
6.5259
20
1.8019
10
6.5069
20
1.8305
10
6.5069
20
1.8496
10
6.4973
20
1.8591
10
6.4973
20
1.8877
10
6.4878
20
1.8972
10
6.4878
20
1.9449
10
6.4783
20
1.9544
10
6.4783
20
1.9830
10
6.4687
20
1.9926
10
6.4687
20
2.0689
10
6.4592
20
2.0784
10
6.4592
20
2.2881
10
6.4687
20
2.2977
10
6.4687
20
2.3835
10
6.4783
20
2.3930
10
6.4783
20
2.4216
10
6.4878
20
2.4311
10
6.4878
20
2.4788
10
6.4973
20
2.4883
10
6.4973
20
2.5169
10
6.5164
20
2.5455
10
6.5164
20
2.5741
10
6.5259
20
2.5837
10
6.5259
20
2.6028
10
6.5450
20
2.6218
10
6.5450
20
2.6409
10
6.5545
20
2.6504
10
6.5545
20
2.6600
10
6.5641
20
2.6695
10
6.5641
20
2.6790
10
6.5736
20
2.6886
10
6.5736
20
2.6981
10
6.5831
20
2.7076
10
6.5831
20
2.7172
10
6.5927
20
2.7267
10
6.5927
20
2.7362
10
6.6022
20
2.7458
10
6.6117
20
2.7744
10
6.6308
20
2.7934
10
6.6308
20
2.8030
10
6.6499
20
2.8220
10
6.6499
20
2.8316
10
6.6880
20
2.8697
10
6.6880
20
2.8792
10
6.7262
20
2.9174
10
6.7262
20
2.9269
10
6.7405
20
2.9412
10
6.7500
20
2.9412
10
6.8453
20
3.0365
10
6.8549
20
3.0365
10
6.8930
20
3.0747
10
6.9025
20
3.0747
10
6.9311
20
3.1033
10
6.9597
20
3.1128
10
6.9788
20
3.1319
10
6.9979
20
3.1319
10
7.0265
20
3.1605
10
7.0455
20
3.1605
10
7.0551
20
3.1700
10
7.0646
20
3.1700
10
7.0837
20
3.1891
10
7.1027
20
3.1891
10
7.1504
20
3.2177
10
7.1695
20
3.2177
10
7.1981
20
3.2368
10
7.2171
20
3.2368
10
7.2648
20
3.2654
10
7.2934
20
3.2654
10
7.3030
20
3.2749
10
7.3316
20
3.2749
10
7.3602
20
3.2940
10
7.3792
20
3.2940
10
7.3888
20
3.3035
10
7.4174
20
3.3035
10
7.4460
20
3.3226
10
7.5032
20
3.3226
10
7.5127
20
3.3321
10
7.5508
20
3.3321
10
7.5604
20
3.3416
10
7.5794
20
3.3416
10
7.5890
20
3.3512
10
7.6557
20
3.3512
10
7.6652
20
3.3607
10
7.7510
20
3.3607
10
7.7606
20
3.3702
10
7.8464
20
3.3702
10
7.8559
20
3.3798
10
7.8845
20
3.3798
10
7.8941
20
3.3893
10
8.3040
20
3.3893
10
8.3135
20
3.3988
10
8.4756
20
3.3988
10
8.4852
20
3.3893
10
8.5042
20
3.3893
10
8.5138
20
3.3988
10
8.5996
20
3.3988
10
8.6091
20
3.3893
10
8.6186
20
3.3988
10
8.6854
20
3.3988
10
8.6949
20
3.3893
10
8.7140
20
3.3893
10
8.7235
20
3.3988
10
8.9905
20
3.3988
10
9.0048
20
3.4131
10
9.0048
20
3.4703
10
8.9952
20
3.4799
10
8.9952
20
3.5371
10
8.9857
20
3.5466
10
8.9857
20
3.5657
10
8.9762
20
3.5752
10
8.9762
20
3.6133
10
8.9666
20
3.6229
10
8.9666
20
3.6419
10
8.9475
20
3.6705
10
8.9475
20
3.6896
10
8.9285
20
3.7087
10
8.9285
20
3.7277
10
8.9189
20
3.7373
10
8.9189
20
3.7468
10
8.8903
20
3.7754
10
8.8903
20
3.7850
10
8.8331
20
3.8422
10
8.8284
20
3.8565
10
8.8188
20
3.8565
10
8.7902
20
3.8851
10
8.7807
20
3.8851
10
8.7521
20
3.9137
10
8.7235
20
3.9232
10
8.7044
20
3.9423
10
8.6854
20
3.9423
10
8.6758
20
3.9518
10
8.6663
20
3.9518
10
8.6568
20
3.9613
10
8.6377
20
3.9613
10
8.6091
20
3.9804
10
8.5900
20
3.9804
10
8.5805
20
3.9899
10
8.5519
20
3.9899
10
8.5424
20
3.9995
10
8.5138
20
3.9995
10
8.5042
20
4.0090
10
8.4756
20
4.0090
10
8.4661
20
4.0185
10
8.4280
20
4.0185
10
8.4184
20
4.0281
10
8.0657
20
4.0281
10
8.0561
20
4.0185
10
8.0085
20
4.0185
10
7.9989
20
4.0090
10
7.9131
20
4.0090
10
7.9036
20
3.9995
10
7.8750
20
3.9995
10
7.8655
20
3.9899
10
7.8083
20
3.9899
10
7.7987
20
3.9804
10
7.7701
20
3.9804
10
7.7606
20
3.9709
10
7.7320
20
3.9709
10
7.7224
20
3.9613
10
7.7034
20
3.9613
10
7.6938
20
3.9518
10
7.6652
20
3.9518
10
7.6366
20
3.9327
10
7.6080
20
3.9327
10
7.5985
20
3.9232
10
7.5794
20
3.9232
10
7.5699
20
3.9137
10
7.5508
20
3.9137
10
7.5413
20
3.9041
10
7.5222
20
3.9041
10
7.5127
20
3.8946
10
7.4936
20
3.8946
10
7.4841
20
3.8851
10
7.4746
20
3.8851
10
7.4650
20
3.8755
10
7.4555
20
3.8755
10
7.4460
20
3.8660
10
7.4364
20
3.8660
10
7.3888
20
3.8374
10
7.3697
20
3.8374
10
7.3411
20
3.8183
10
7.3220
20
3.8183
10
7.3125
20
3.8088
10
7.3030
20
3.8088
10
7.2839
20
3.7897
10
7.2648
20
3.7897
10
7.2553
20
3.7802
10
7.2458
20
3.7802
10
7.2267
20
3.7611
10
7.2171
20
3.7611
10
7.2076
20
3.7516
10
7.1981
20
3.7516
10
7.1504
20
3.7230
10
7.1313
20
3.7230
10
7.1218
20
3.7134
10
7.0980
20
3.7373
10
7.0980
20
3.7468
10
7.0598
20
3.7945
10
7.0503
20
3.8231
10
7.0217
20
3.8517
10
7.0217
20
3.8708
10
7.0122
20
3.8803
10
7.0122
20
3.8898
10
6.9931
20
3.9089
10
6.9931
20
3.9184
10
6.9836
20
3.9280
10
6.9836
20
3.9375
10
6.9645
20
3.9566
10
6.9645
20
3.9661
10
6.9550
20
3.9756
10
6.9454
20
4.0042
10
6.9264
20
4.0233
10
6.9264
20
4.0328
10
6.9168
20
4.0424
10
6.9168
20
4.0519
10
6.9073
20
4.0614
10
6.9073
20
4.0710
10
6.8978
20
4.0805
10
6.8882
20
4.1091
10
6.8596
20
4.1377
10
6.8596
20
4.1472
10
6.8501
20
4.1568
10
6.8501
20
4.1854
10
6.8549
20
4.1901
10
6.8835
20
4.1997
10
6.9121
20
4.2283
10
6.9216
20
4.2283
10
6.9693
20
4.2664
10
6.9883
20
4.2664
10
7.0074
20
4.2855
10
7.0265
20
4.2855
10
7.0455
20
4.3045
10
7.0551
20
4.3045
10
7.0646
20
4.3141
10
7.0741
20
4.3141
10
7.0837
20
4.3236
10
7.0932
20
4.3236
10
7.1027
20
4.3331
10
7.1123
20
4.3331
10
7.1599
20
4.3618
10
7.1790
20
4.3618
10
7.1885
20
4.3713
10
7.1981
20
4.3713
10
7.2076
20
4.3808
10
7.2171
20
4.3808
10
7.2648
20
4.4094
10
7.2839
20
4.4094
10
7.2934
20
4.4190
10
7.3125
20
4.4190
10
7.3411
20
4.4380
10
7.3602
20
4.4380
10
7.3697
20
4.4476
10
7.3888
20
4.4476
10
7.3983
20
4.4571
10
7.4174
20
4.4571
10
7.4460
20
4.4762
10
7.4746
20
4.4762
10
7.4841
20
4.4857
10
7.5127
20
4.4857
10
7.5222
20
4.4952
10
7.5413
20
4.4952
10
7.5508
20
4.5048
10
7.5699
20
4.5048
10
7.5794
20
4.5143
10
7.6080
20
4.5143
10
7.6176
20
4.5238
10
7.6462
20
4.5238
10
7.6557
20
4.5334
10
7.6938
20
4.5334
10
7.7034
20
4.5429
10
7.7320
20
4.5429
10
7.7415
20
4.5524
10
7.7701
20
4.5524
10
7.7796
20
4.5620
10
7.8178
20
4.5620
10
7.8273
20
4.5715
10
7.8941
20
4.5715
10
7.9036
20
4.5810
10
7.9131
20
4.5715
10
7.9227
20
4.5715
10
7.9322
20
4.5810
10
8.0085
20
4.5810
10
8.0180
20
4.5906
10
8.0752
20
4.5906
0
LWPOLYLINE
8
LOGO
90
244
70
1
10
8.0371
20
2.8745
10
8.0275
20
2.8649
10
7.8941
20
2.8649
10
7.8845
20
2.8554
10
7.8559
20
2.8554
10
7.8464
20
2.8459
10
7.7892
20
2.8459
10
7.7796
20
2.8363
10
7.7320
20
2.8363
10
7.7224
20
2.8268
10
7.7034
20
2.8268
10
7.6938
20
2.8173
10
7.6748
20
2.8173
10
7.6652
20
2.8077
10
7.6462
20
2.8077
10
7.6366
20
2.7982
10
7.6080
20
2.7982
10
7.5985
20
2.7887
10
7.5890
20
2.7887
10
7.5794
20
2.7791
10
7.5699
20
2.7791
10
7.5222
20
2.7505
10
7.5032
20
2.7505
10
7.4936
20
2.7410
10
7.4746
20
2.7410
10
7.4460
20
2.7124
10
7.4364
20
2.7124
10
7.3983
20
2.6743
10
7.3888
20
2.6743
10
7.3506
20
2.6361
10
7.3363
20
2.6314
10
7.3363
20
2.6218
10
7.2791
20
2.5646
10
7.2791
20
2.5551
10
7.2601
20
2.5360
10
7.2601
20
2.5265
10
7.2505
20
2.5169
10
7.2505
20
2.5074
10
7.2219
20
2.4597
10
7.2219
20
2.4407
10
7.2124
20
2.4311
10
7.2124
20
2.4121
10
7.2028
20
2.4025
10
7.2028
20
2.3644
10
7.1933
20
2.3549
10
7.1933
20
2.3167
10
7.1838
20
2.3072
10
7.1838
20
2.2214
10
7.1933
20
2.2119
10
7.1933
20
2.1737
10
7.2028
20
2.1642
10
7.2028
20
2.1356
10
7.2124
20
2.1261
10
7.2124
20
2.1070
10
7.2219
20
2.0975
10
7.2219
20
2.0689
10
7.2315
20
2.0593
10
7.2315
20
2.0498
10
7.2410
20
2.0403
10
7.2505
20
2.0116
10
7.2696
20
1.9926
10
7.2696
20
1.9830
10
7.2791
20
1.9735
10
7.2553
20
1.9592
10
7.2171
20
1.9592
10
7.2076
20
1.9497
10
7.1599
20
1.9497
10
7.1504
20
1.9401
10
7.1218
20
1.9401
10
7.1123
20
1.9306
10
7.0837
20
1.9306
10
7.0741
20
1.9211
10
7.0551
20
1.9211
10
7.0455
20
1.9115
10
7.0169
20
1.9115
10
7.0074
20
1.9020
10
6.9979
20
1.9020
10
6.9883
20
1.8925
10
6.9693
20
1.8925
10
6.9597
20
1.8829
10
6.9311
20
1.8829
10
6.9216
20
1.8734
10
6.9121
20
1.8734
10
6.9025
20
1.8639
10
6.8930
20
1.8639
10
6.8835
20
1.8543
10
6.8549
20
1.8448
10
6.8358
20
1.8257
10
6.8263
20
1.8257
10
6.8072
20
1.8067
10
6.7977
20
1.8067
10
6.7834
20
1.7924
10
6.7834
20
1.7828
10
6.7452
20
1.7447
10
6.7452
20
1.7352
10
6.7357
20
1.7256
10
6.7357
20
1.6970
10
6.7262
20
1.6875
10
6.7357
20
1.6780
10
6.7357
20
1.6494
10
6.7452
20
1.6398
10
6.7452
20
1.6303
10
6.7738
20
1.6017
10
6.7738
20
1.5922
10
6.8072
20
1.5588
10
6.8358
20
1.5493
10
6.8549
20
1.5302
10
6.8644
20
1.5302
10
6.9121
20
1.5016
10
6.9311
20
1.5016
10
6.9597
20
1.4825
10
6.9883
20
1.4825
10
6.9979
20
1.4730
10
7.0169
20
1.4730
10
7.0360
20
1.4539
10
7.0646
20
1.4539
10
7.0741
20
1.4444
10
7.1027
20
1.4444
10
7.1123
20
1.4348
10
7.1313
20
1.4348
10
7.1409
20
1.4253
10
7.1790
20
1.4253
10
7.1885
20
1.4158
10
7.2553
20
1.4158
10
7.2648
20
1.4062
10
7.2934
20
1.4062
10
7.3030
20
1.3967
10
7.3506
20
1.3967
10
7.3602
20
1.3872
10
7.5127
20
1.3872
10
7.5222
20
1.3776
10
7.5985
20
1.3776
10
7.6080
20
1.3681
10
7.7224
20
1.3681
10
7.7320
20
1.3776
10
7.8273
20
1.3776
10
7.8369
20
1.3872
10
7.9703
20
1.3872
10
7.9799
20
1.3967
10
8.0085
20
1.3967
10
8.0180
20
1.4062
10
8.0943
20
1.4062
10
8.1038
20
1.4158
10
8.1610
20
1.4158
10
8.1705
20
1.4253
10
8.1991
20
1.4253
10
8.2087
20
1.4348
10
8.2277
20
1.4348
10
8.2373
20
1.4444
10
8.2563
20
1.4444
10
8.2659
20
1.4539
10
8.2945
20
1.4539
10
8.3040
20
1.4635
10
8.3231
20
1.4635
10
8.3517
20
1.4825
10
8.3707
20
1.4825
10
8.3803
20
1.4921
10
8.3994
20
1.4921
10
8.4184
20
1.5111
10
8.4280
20
1.5111
10
8.4375
20
1.5207
10
8.4661
20
1.5302
10
8.4947
20
1.5588
10
8.5042
20
1.5588
10
8.5662
20
1.6208
10
8.5662
20
1.6303
10
8.5757
20
1.6398
10
8.5757
20
1.6589
10
8.5853
20
1.6684
10
8.5853
20
1.7256
10
8.5757
20
1.7352
10
8.5757
20
1.7447
10
8.5471
20
1.7733
10
8.5471
20
1.7828
10
8.5138
20
1.8162
10
8.5042
20
1.8162
10
8.4852
20
1.8353
10
8.4756
20
1.8353
10
8.4661
20
1.8448
10
8.4375
20
1.8543
10
8.4184
20
1.8734
10
8.4089
20
1.8734
10
8.3994
20
1.8829
10
8.3803
20
1.8829
10
8.3707
20
1.8925
10
8.3421
20
1.9020
10
8.3374
20
1.9163
10
8.3612
20
1.9306
10
8.3707
20
1.9306
10
8.3898
20
1.9497
10
8.3994
20
1.9497
10
8.4280
20
1.9783
10
8.4375
20
1.9783
10
8.4661
20
2.0069
10
8.4756
20
2.0069
10
8.4947
20
2.0260
10
8.5042
20
2.0260
10
8.5424
20
2.0641
10
8.5519
20
2.0641
10
8.5662
20
2.0784
10
8.5662
20
2.0879
10
8.5805
20
2.1022
10
8.5900
20
2.1022
10
8.6329
20
2.1451
10
8.6329
20
2.1547
10
8.6615
20
2.1833
10
8.6615
20
2.1928
10
8.7187
20
2.2500
10
8.7187
20
2.2595
10
8.7378
20
2.2786
10
8.7378
20
2.2881
10
8.7473
20
2.2977
10
8.7569
20
2.3263
10
8.7759
20
2.3453
10
8.7759
20
2.3549
10
8.7950
20
2.3835
10
8.7950
20
2.4025
10
8.8045
20
2.4121
10
8.8045
20
2.4216
10
8.8236
20
2.4502
10
8.8236
20
2.4693
10
8.8427
20
2.4979
10
8.8427
20
2.5169
10
8.8522
20
2.5265
10
8.8522
20
2.5455
10
8.8617
20
2.5551
10
8.8617
20
2.5837
10
8.8808
20
2.6123
10
8.8808
20
2.6600
10
8.8903
20
2.6695
10
8.8903
20
2.6981
10
8.8999
20
2.7076
10
8.8999
20
2.7458
10
8.9094
20
2.7553
10
8.9094
20
2.7839
10
8.9189
20
2.7934
10
8.9189
20
2.8316
10
8.9285
20
2.8411
10
8.9285
20
2.8506
10
8.9142
20
2.8649
10
8.8570
20
2.8649
10
8.8474
20
2.8745
10
8.8379
20
2.8649
10
8.8284
20
2.8745
0
LWPOLYLINE
8
LOGO
90
470
70
1
10
14.3199
20
4.6001
10
14.7585
20
4.6001
10
14.7680
20
4.5906
10
14.7871
20
4.5906
10
14.7966
20
4.5810
10
14.8061
20
4.5906
10
14.8157
20
4.5810
10
14.8824
20
4.5810
10
14.8919
20
4.5715
10
14.9491
20
4.5715
10
14.9587
20
4.5620
10
14.9777
20
4.5620
10
14.9873
20
4.5524
10
15.0063
20
4.5524
10
15.0159
20
4.5429
10
15.0540
20
4.5429
10
15.0826
20
4.5238
10
15.1017
20
4.5238
10
15.1112
20
4.5143
10
15.1398
20
4.5143
10
15.1493
20
4.5048
10
15.1589
20
4.5048
10
15.1875
20
4.4857
10
15.2065
20
4.4857
10
15.2161
20
4.4762
10
15.2447
20
4.4762
10
15.2637
20
4.4571
10
15.2733
20
4.4571
10
15.2828
20
4.4476
10
15.3019
20
4.4476
10
15.3496
20
4.4094
10
15.3686
20
4.4094
10
15.3877
20
4.3904
10
15.3972
20
4.3904
10
15.4449
20
4.3522
10
15.4640
20
4.3522
10
15.4735
20
4.3427
10
15.4830
20
4.3427
10
15.5212
20
4.3045
10
15.5307
20
4.3045
10
15.5498
20
4.2855
10
15.5784
20
4.2759
10
15.6928
20
4.1615
10
15.7023
20
4.1615
10
15.7547
20
4.1091
10
15.7547
20
4.0996
10
15.7690
20
4.0853
10
15.7786
20
4.0853
10
15.7929
20
4.0710
10
15.7929
20
4.0614
10
15.8215
20
4.0328
10
15.8215
20
4.0233
10
15.8405
20
4.0042
10
15.8405
20
3.9947
10
15.8596
20
3.9756
10
15.8596
20
3.9661
10
15.8787
20
3.9470
10
15.8787
20
3.9375
10
15.9073
20
3.9089
10
15.9168
20
3.8803
10
15.9359
20
3.8612
10
15.9359
20
3.8517
10
15.9454
20
3.8422
10
15.9550
20
3.8136
10
15.9740
20
3.7945
10
15.9740
20
3.7754
10
15.9836
20
3.7659
10
15.9931
20
3.7373
10
16.0122
20
3.7182
10
16.0122
20
3.7087
10
16.0217
20
3.6991
10
16.0217
20
3.6801
10
16.0503
20
3.6324
10
16.0503
20
3.5943
10
16.0598
20
3.5847
10
16.0598
20
3.5752
10
16.0694
20
3.5657
10
16.0694
20
3.5466
10
16.0789
20
3.5371
10
16.0789
20
3.5085
10
16.0884
20
3.4989
10
16.0884
20
3.4703
10
16.1075
20
3.4417
10
16.1075
20
3.4131
10
16.1170
20
3.4036
10
16.1170
20
3.3750
10
16.1266
20
3.3655
10
16.1266
20
3.3369
10
16.1361
20
3.3273
10
16.1361
20
3.3083
10
16.1456
20
3.2987
10
16.1456
20
3.2415
10
16.1552
20
3.2320
10
16.1552
20
3.1748
10
16.1647
20
3.1652
10
16.1647
20
3.1080
10
16.1742
20
3.0985
10
16.1742
20
2.7076
10
16.1647
20
2.6981
10
16.1647
20
2.6600
10
16.1504
20
2.6457
10
13.6144
20
2.6457
10
13.6096
20
2.6409
10
13.6096
20
2.5837
10
13.6192
20
2.5741
10
13.6192
20
2.5265
10
13.6287
20
2.5169
10
13.6287
20
2.4883
10
13.6478
20
2.4597
10
13.6478
20
2.4216
10
13.6573
20
2.4121
10
13.6573
20
2.3930
10
13.6668
20
2.3835
10
13.6668
20
2.3739
10
13.6764
20
2.3644
10
13.6764
20
2.3453
10
13.6859
20
2.3358
10
13.6859
20
2.3072
10
13.6954
20
2.2977
10
13.6954
20
2.2881
10
13.7050
20
2.2786
10
13.7145
20
2.2500
10
13.7526
20
2.2023
10
13.7622
20
2.1737
10
13.7908
20
2.1451
10
13.7908
20
2.1356
10
13.8194
20
2.1070
10
13.8194
20
2.0975
10
13.9195
20
1.9973
10
13.9290
20
1.9973
10
13.9481
20
1.9783
10
13.9576
20
1.9783
10
13.9862
20
1.9497
10
13.9957
20
1.9497
10
14.0339
20
1.9115
10
14.0434
20
1.9115
10
14.0529
20
1.9020
10
14.0720
20
1.9020
10
14.0815
20
1.8925
10
14.0911
20
1.8925
10
14.1101
20
1.8734
10
14.1292
20
1.8734
10
14.1578
20
1.8448
10
14.1864
20
1.8448
10
14.2150
20
1.8257
10
14.2341
20
1.8257
10
14.2436
20
1.8162
10
14.2627
20
1.8162
10
14.2722
20
1.8067
10
14.3008
20
1.8067
10
14.3104
20
1.7971
10
14.3294
20
1.7971
10
14.3390
20
1.7876
10
14.3866
20
1.7876
10
14.3962
20
1.7781
10
14.4248
20
1.7781
10
14.4343
20
1.7685
10
14.8157
20
1.7685
10
14.8252
20
1.7781
10
14.8729
20
1.7781
10
14.8824
20
1.7876
10
14.9205
20
1.7876
10
14.9301
20
1.7971
10
14.9491
20
1.7971
10
14.9587
20
1.8067
10
14.9777
20
1.8067
10
14.9873
20
1.8162
10
15.0063
20
1.8162
10
15.0159
20
1.8257
10
15.0254
20
1.8257
10
15.0349
20
1.8353
10
15.0540
20
1.8353
10
15.0635
20
1.8448
10
15.0731
20
1.8448
10
15.0826
20
1.8543
10
15.0921
20
1.8543
10
15.1017
20
1.8639
10
15.1112
20
1.8639
10
15.1207
20
1.8734
10
15.1493
20
1.8829
10
15.1684
20
1.9020
10
15.1779
20
1.9020
10
15.1875
20
1.9115
10
15.2161
20
1.9211
10
15.2447
20
1.9497
10
15.2542
20
1.9497
10
15.2733
20
1.9687
10
15.2828
20
1.9687
10
15.3114
20
1.9973
10
15.3210
20
1.9973
10
15.3782
20
2.0546
10
15.3877
20
2.0546
10
15.4306
20
2.0975
10
15.4306
20
2.1070
10
15.4878
20
2.1642
10
15.4878
20
2.1737
10
15.5498
20
2.2357
10
15.5593
20
2.2357
10
15.5974
20
2.1976
10
15.6070
20
2.1976
10
15.6737
20
2.1404
10
15.6928
20
2.1404
10
15.7309
20
2.1022
10
15.7404
20
2.1022
10
15.7690
20
2.0736
10
15.7786
20
2.0736
10
15.8072
20
2.0450
10
15.8167
20
2.0450
10
15.8834
20
1.9878
10
15.9121
20
1.9783
10
15.9788
20
1.9211
10
15.9979
20
1.9211
10
16.0217
20
1.8972
10
16.0122
20
1.8686
10
15.9836
20
1.8400
10
15.9836
20
1.8305
10
15.9454
20
1.7924
10
15.9454
20
1.7828
10
15.9073
20
1.7447
10
15.9073
20
1.7352
10
15.8501
20
1.6780
10
15.8501
20
1.6684
10
15.7690
20
1.5874
10
15.7595
20
1.5874
10
15.7214
20
1.5493
10
15.7118
20
1.5493
10
15.6642
20
1.5016
10
15.6546
20
1.5016
10
15.6356
20
1.4825
10
15.6260
20
1.4825
10
15.5784
20
1.4444
10
15.5498
20
1.4348
10
15.5212
20
1.4062
10
15.5116
20
1.4062
10
15.5021
20
1.3967
10
15.4735
20
1.3872
10
15.4544
20
1.3681
10
15.4354
20
1.3681
10
15.4258
20
1.3586
10
15.4163
20
1.3586
10
15.3972
20
1.3395
10
15.3782
20
1.3395
10
15.3496
20
1.3204
10
15.3305
20
1.3204
10
15.3210
20
1.3109
10
15.3114
20
1.3109
10
15.3019
20
1.3014
10
15.2828
20
1.3014
10
15.2542
20
1.2823
10
15.2256
20
1.2823
10
15.1970
20
1.2632
10
15.1779
20
1.2632
10
15.1684
20
1.2537
10
15.1398
20
1.2537
10
15.1303
20
1.2442
10
15.1017
20
1.2442
10
15.0921
20
1.2346
10
15.0731
20
1.2346
10
15.0635
20
1.2251
10
15.0159
20
1.2251
10
15.0063
20
1.2156
10
14.9682
20
1.2156
10
14.9587
20
1.2060
10
14.9015
20
1.2060
10
14.8919
20
1.1965
10
14.8633
20
1.1965
10
14.8538
20
1.1870
10
14.6917
20
1.1870
10
14.6822
20
1.1774
10
14.6536
20
1.1774
10
14.6440
20
1.1870
10
14.6250
20
1.1870
10
14.6154
20
1.1774
10
14.5964
20
1.1774
10
14.5868
20
1.1870
10
14.3485
20
1.1870
10
14.3390
20
1.1965
10
14.3104
20
1.1965
10
14.3008
20
1.2060
10
14.2436
20
1.2060
10
14.2341
20
1.2156
10
14.2150
20
1.2156
10
14.2055
20
1.2251
10
14.1483
20
1.2251
10
14.1387
20
1.2346
10
14.1197
20
1.2346
10
14.1101
20
1.2442
10
14.0815
20
1.2442
10
14.0720
20
1.2537
10
14.0434
20
1.2537
10
14.0339
20
1.2632
10
13.9957
20
1.2632
10
13.9862
20
1.2728
10
13.9671
20
1.2728
10
13.9385
20
1.2918
10
13.9195
20
1.2918
10
13.9099
20
1.3014
10
13.8909
20
1.3014
10
13.8623
20
1.3204
10
13.8337
20
1.3204
10
13.8146
20
1.3395
10
13.7955
20
1.3395
10
13.7765
20
1.3586
10
13.7479
20
1.3586
10
13.7193
20
1.3872
10
13.7002
20
1.3872
10
13.6907
20
1.3967
10
13.6811
20
1.3967
10
13.6335
20
1.4348
10
13.6049
20
1.4444
10
13.5572
20
1.4825
10
13.5476
20
1.4825
10
13.5381
20
1.4921
10
13.5286
20
1.4921
10
13.5095
20
1.5111
10
13.5000
20
1.5111
10
13.4428
20
1.5683
10
13.4142
20
1.5779
10
13.3903
20
1.6017
10
13.3903
20
1.6112
10
13.3760
20
1.6255
10
13.3665
20
1.6255
10
13.3427
20
1.6494
10
13.3427
20
1.6589
10
13.3284
20
1.6637
10
13.3045
20
1.6875
10
13.3045
20
1.6970
10
13.2569
20
1.7447
10
13.2569
20
1.7542
10
13.2187
20
1.7924
10
13.2187
20
1.8019
10
13.2044
20
1.8162
10
13.1901
20
1.8210
10
13.1901
20
1.8305
10
13.1711
20
1.8496
10
13.1711
20
1.8591
10
13.1329
20
1.9068
10
13.1234
20
1.9354
10
13.1043
20
1.9544
10
13.0948
20
1.9830
10
13.0662
20
2.0116
10
13.0662
20
2.0307
10
13.0567
20
2.0403
10
13.0567
20
2.0498
10
13.0281
20
2.0975
10
13.0281
20
2.1165
10
13.0090
20
2.1356
10
13.0090
20
2.1547
10
12.9994
20
2.1642
10
12.9994
20
2.1833
10
12.9708
20
2.2309
10
12.9708
20
2.2500
10
12.9613
20
2.2595
10
12.9613
20
2.2786
10
12.9422
20
2.3072
10
12.9422
20
2.3358
10
12.9327
20
2.3453
10
12.9327
20
2.3835
10
12.9232
20
2.3930
10
12.9232
20
2.4121
10
12.9136
20
2.4216
10
12.9136
20
2.4502
10
12.9041
20
2.4597
10
12.9041
20
2.4883
10
12.8946
20
2.4979
10
12.8946
20
2.5551
10
12.8850
20
2.5646
10
12.8850
20
2.6218
10
12.8755
20
2.6314
10
12.8755
20
2.6695
10
12.8660
20
2.6790
10
12.8660
20
2.8030
10
12.8564
20
2.8125
10
12.8564
20
3.0318
10
12.8660
20
3.0413
10
12.8660
20
3.1366
10
12.8755
20
3.1462
10
12.8755
20
3.2129
10
12.8850
20
3.2225
10
12.8850
20
3.2606
10
12.8946
20
3.2701
10
12.8946
20
3.2987
10
12.9041
20
3.3083
10
12.9041
20
3.3559
10
12.9136
20
3.3655
10
12.9136
20
3.3750
10
12.9232
20
3.3845
10
12.9232
20
3.4036
10
12.9327
20
3.4131
10
12.9327
20
3.4513
10
12.9518
20
3.4799
10
12.9518
20
3.4989
10
12.9613
20
3.5085
10
12.9613
20
3.5371
10
12.9708
20
3.5466
10
12.9708
20
3.5657
10
12.9994
20
3.6133
10
12.9994
20
3.6324
10
13.0090
20
3.6419
10
13.0090
20
3.6610
10
13.0281
20
3.6801
10
13.0281
20
3.6991
10
13.0376
20
3.7087
10
13.0376
20
3.7182
10
13.0471
20
3.7277
10
13.0471
20
3.7373
10
13.0567
20
3.7468
10
13.0662
20
3.7754
10
13.0853
20
3.7945
10
13.0853
20
3.8136
10
13.1234
20
3.8612
10
13.1234
20
3.8708
10
13.1329
20
3.8803
10
13.1329
20
3.8898
10
13.1520
20
3.9089
10
13.1520
20
3.9184
10
13.1806
20
3.9470
10
13.1806
20
3.9566
10
13.2283
20
4.0042
10
13.2283
20
4.0138
10
13.2569
20
4.0424
10
13.2569
20
4.0519
10
13.2950
20
4.0900
10
13.2950
20
4.0996
10
13.3379
20
4.1425
10
13.3474
20
4.1425
10
13.4142
20
4.2092
10
13.4237
20
4.2092
10
13.4809
20
4.2664
10
13.4904
20
4.2664
10
13.5572
20
4.3236
10
13.5858
20
4.3331
10
13.6335
20
4.3713
10
13.6430
20
4.3713
10
13.6525
20
4.3808
10
13.6716
20
4.3808
10
13.6907
20
4.3999
10
13.7002
20
4.3999
10
13.7097
20
4.4094
10
13.7193
20
4.4094
10
13.7288
20
4.4190
10
13.7383
20
4.4190
10
13.7479
20
4.4285
10
13.7574
20
4.4285
10
13.7669
20
4.4380
10
13.7765
20
4.4380
10
13.7860
20
4.4476
10
13.7955
20
4.4476
10
13.8432
20
4.4762
10
13.8623
20
4.4762
10
13.8718
20
4.4857
10
13.8909
20
4.4857
10
13.9195
20
4.5048
10
13.9385
20
4.5048
10
13.9481
20
4.5143
10
13.9671
20
4.5143
10
13.9957
20
4.5334
10
14.0243
20
4.5334
10
14.0339
20
4.5429
10
14.0625
20
4.5429
10
14.0720
20
4.5524
10
14.1006
20
4.5524
10
14.1101
20
4.5620
10
14.1387
20
4.5620
10
14.1483
20
4.5715
10
14.1769
20
4.5715
10
14.1864
20
4.5810
10
14.2818
20
4.5810
10
14.2913
20
4.5906
10
14.3104
20
4.5906
0
LWPOLYLINE
8
LOGO
90
170
70
1
10
14.4629
20
4.0376
10
14.4534
20
4.0281
10
14.4057
20
4.0281
10
14.3962
20
4.0185
10
14.3294
20
4.0185
10
14.3199
20
4.0090
10
14.2818
20
4.0090
10
14.2722
20
3.9995
10
14.2532
20
3.9995
10
14.2436
20
3.9899
10
14.2246
20
3.9899
10
14.2150
20
3.9804
10
14.1960
20
3.9804
10
14.1864
20
3.9709
10
14.1769
20
3.9709
10
14.1483
20
3.9518
10
14.1292
20
3.9518
10
14.1197
20
3.9423
10
14.1101
20
3.9423
10
14.1006
20
3.9327
10
14.0720
20
3.9232
10
14.0529
20
3.9041
10
14.0243
20
3.8946
10
14.0053
20
3.8755
10
13.9957
20
3.8755
10
13.9767
20
3.8565
10
13.9671
20
3.8565
10
13.9195
20
3.8088
10
13.9099
20
3.8088
10
13.8956
20
3.7945
10
13.8956
20
3.7850
10
13.8575
20
3.7468
10
13.8575
20
3.7373
10
13.8432
20
3.7325
10
13.8194
20
3.7087
10
13.8194
20
3.6991
10
13.7908
20
3.6705
10
13.7812
20
3.6419
10
13.7526
20
3.6133
10
13.7526
20
3.6038
10
13.7431
20
3.5943
10
13.7431
20
3.5847
10
13.7336
20
3.5752
10
13.7336
20
3.5657
10
13.7240
20
3.5561
10
13.7240
20
3.5466
10
13.7145
20
3.5371
10
13.7145
20
3.5275
10
13.6859
20
3.4799
10
13.6859
20
3.4608
10
13.6764
20
3.4513
10
13.6764
20
3.4322
10
13.6668
20
3.4227
10
13.6668
20
3.4131
10
13.6573
20
3.4036
10
13.6573
20
3.3845
10
13.6478
20
3.3750
10
13.6478
20
3.3369
10
13.6382
20
3.3273
10
13.6382
20
3.3083
10
13.6287
20
3.2987
10
13.6287
20
3.2797
10
13.6192
20
3.2701
10
13.6192
20
3.2415
10
13.6096
20
3.2320
10
13.6096
20
3.1748
10
13.6144
20
3.1700
10
13.9195
20
3.1700
10
13.9338
20
3.1557
10
13.9338
20
2.9174
10
13.9481
20
2.9031
10
13.9671
20
2.9031
10
13.9814
20
2.9174
10
13.9814
20
3.0413
10
13.9719
20
3.0508
10
13.9719
20
3.1271
10
13.9814
20
3.1366
10
13.9814
20
3.1652
10
13.9862
20
3.1700
10
14.7203
20
3.1700
10
14.7346
20
3.1557
10
14.7346
20
2.8697
10
14.7394
20
2.8649
10
14.7680
20
2.8649
10
14.7728
20
2.8697
10
14.7728
20
3.1557
10
14.7871
20
3.1700
10
14.9491
20
3.1700
10
14.9730
20
3.1557
10
14.9730
20
3.1176
10
14.9825
20
3.1080
10
14.9825
20
2.7934
10
14.9968
20
2.7791
10
15.0063
20
2.7791
10
15.0206
20
2.7934
10
15.0206
20
2.9746
10
15.0111
20
2.9841
10
15.0206
20
2.9936
10
15.0111
20
3.0032
10
15.0111
20
3.0127
10
15.0206
20
3.0222
10
15.0111
20
3.0318
10
15.0111
20
3.0985
10
15.0206
20
3.1080
10
15.0206
20
3.1652
10
15.0254
20
3.1700
10
15.4163
20
3.1700
10
15.4211
20
3.1748
10
15.4211
20
3.1843
10
15.4306
20
3.1939
10
15.4306
20
3.2129
10
15.4211
20
3.2225
10
15.4211
20
3.2606
10
15.4115
20
3.2701
10
15.4115
20
3.3083
10
15.4020
20
3.3178
10
15.4020
20
3.3464
10
15.3925
20
3.3559
10
15.3925
20
3.3941
10
15.3829
20
3.4036
10
15.3829
20
3.4131
10
15.3734
20
3.4227
10
15.3734
20
3.4417
10
15.3639
20
3.4513
10
15.3639
20
3.4799
10
15.3448
20
3.4989
10
15.3448
20
3.5085
10
15.3257
20
3.5371
10
15.3257
20
3.5561
10
15.3162
20
3.5657
10
15.3162
20
3.5752
10
15.2971
20
3.5943
10
15.2971
20
3.6038
10
15.2876
20
3.6133
10
15.2780
20
3.6419
10
15.2590
20
3.6610
10
15.2590
20
3.6705
10
15.2304
20
3.6991
10
15.2304
20
3.7087
10
15.2018
20
3.7373
10
15.2018
20
3.7468
10
15.1636
20
3.7850
10
15.1636
20
3.7945
10
15.1493
20
3.8088
10
15.1398
20
3.8088
10
15.1207
20
3.8279
10
15.1112
20
3.8279
10
15.0731
20
3.8660
10
15.0635
20
3.8660
10
15.0159
20
3.9041
10
15.0063
20
3.9041
10
14.9968
20
3.9137
10
14.9682
20
3.9232
10
14.9491
20
3.9423
10
14.9396
20
3.9423
10
14.9301
20
3.9518
10
14.9015
20
3.9518
10
14.8538
20
3.9804
10
14.8347
20
3.9804
10
14.8252
20
3.9899
10
14.8061
20
3.9899
10
14.7966
20
3.9995
10
14.7775
20
3.9995
10
14.7680
20
4.0090
10
14.7394
20
4.0090
10
14.7298
20
4.0185
10
14.6822
20
4.0185
10
14.6726
20
4.0281
10
14.5964
20
4.0281
10
14.5868
20
4.0376
0
LWPOLYLINE
8
LOGO
90
9
70
1
10
13.4523
20
3.7230
10
13.4380
20
3.7087
10
13.4380
20
2.8983
10
13.4523
20
2.8840
10
13.4618
20
2.8840
10
13.4761
20
2.8983
10
13.4761
20
3.6991
10
13.4666
20
3.7087
10
13.4666
20
3.7182
0
LWPOLYLINE
8
LOGO
90
8
70
1
10
13.2521
20
2.8363
10
13.2378
20
2.8125
10
13.2378
20
2.2214
10
13.2616
20
2.1976
10
13.2759
20
2.2119
10
13.2759
20
2.8030
10
13.2855
20
2.8125
10
13.2712
20
2.8363
0
LWPOLYLINE
8
LOGO
90
11
70
1
10
13.0710
20
3.3798
10
13.0567
20
3.3655
10
13.0567
20
2.6790
10
13.0614
20
2.6743
10
13.0805
20
2.6743
10
13.0948
20
2.6886
10
13.0948
20
2.8792
10
13.0853
20
2.8888
10
13.0853
20
3.1939
10
13.0948
20
3.2034
10
13.0948
20
3.3559
0
LWPOLYLINE
8
LOGO
90
8
70
1
10
15.6451
20
3.4656
10
15.6308
20
3.4513
10
15.6308
20
2.9078
10
15.6451
20
2.8935
10
15.6546
20
2.8935
10
15.6689
20
2.9078
10
15.6689
20
3.4513
10
15.6546
20
3.4656
0
LWPOLYLINE
8
LOGO
90
8
70
1
10
13.6525
20
4.2950
10
13.6382
20
4.2807
10
13.6382
20
3.7754
10
13.6525
20
3.7611
10
13.6621
20
3.7611
10
13.6764
20
3.7754
10
13.6764
20
4.2807
10
13.6621
20
4.2950
0
LWPOLYLINE
8
LOGO
90
9
70
1
10
15.4163
20
4.2187
10
15.4020
20
4.1949
10
15.4115
20
4.1854
10
15.4115
20
3.6705
10
15.4258
20
3.6562
10
15.4354
20
3.6562
10
15.4401
20
3.6610
10
15.4401
20
4.2140
10
15.4354
20
4.2187
0
LWPOLYLINE
8
LOGO
90
9
70
1
10
15.8644
20
3.7039
10
15.8501
20
3.6896
10
15.8501
20
3.2797
10
15.8548
20
3.2749
10
15.8739
20
3.2749
10
15.8882
20
3.2892
10
15.8882
20
3.6801
10
15.8787
20
3.6896
10
15.8787
20
3.6991
0
LWPOLYLINE
8
LOGO
90
8
70
1
10
14.9777
20
4.5048
10
14.9634
20
4.4809
10
14.9634
20
4.1186
10
14.9873
20
4.0948
10
14.9968
20
4.0948
10
15.0016
20
4.0996
10
15.0016
20
4.5000
10
14.9968
20
4.5048
0
LWPOLYLINE
8
LOGO
90
8
70
1
10
14.1197
20
4.4952
10
14.1054
20
4.4809
10
14.1054
20
4.1472
10
14.1197
20
4.1234
10
14.1387
20
4.1234
10
14.1435
20
4.1282
10
14.1435
20
4.4809
10
14.1292
20
4.4952
0
LWPOLYLINE
8
LOGO
90
8
70
1
10
15.6451
20
3.9804
10
15.6308
20
3.9566
10
15.6308
20
3.6705
10
15.6451
20
3.6562
10
15.6642
20
3.6562
10
15.6689
20
3.6610
10
15.6689
20
3.9661
10
15.6546
20
3.9804
0
LWPOLYLINE
8
LOGO
90
8
70
1
10
14.5392
20
4.4571
10
14.5249
20
4.4428
10
14.5249
20
4.2044
10
14.5392
20
4.1901
10
14.5487
20
4.1901
10
14.5630
20
4.2044
10
14.5630
20
4.4428
10
14.5487
20
4.4571
0
LWPOLYLINE
8
LOGO
90
7
70
1
10
13.8909
20
4.2855
10
13.8766
20
4.2712
10
13.8766
20
4.0233
10
13.8813
20
4.0185
10
13.9004
20
4.0185
10
13.9052
20
4.0233
10
13.9052
20
4.2807
0
LWPOLYLINE
8
LOGO
90
7
70
1
10
14.5392
20
2.9221
10
14.5249
20
2.9078
10
14.5249
20
2.7362
10
14.5296
20
2.7315
10
14.5487
20
2.7315
10
14.5535
20
2.7362
10
14.5535
20
2.9078
0
LWPOLYLINE
8
LOGO
90
444
70
1
10
1.6208
20
4.6001
10
2.0975
20
4.6001
10
2.1070
20
4.5906
10
2.1451
20
4.5906
10
2.1547
20
4.5810
10
2.2405
20
4.5810
10
2.2500
20
4.5715
10
2.2977
20
4.5715
10
2.3072
20
4.5620
10
2.3453
20
4.5620
10
2.3549
20
4.5524
10
2.3835
20
4.5524
10
2.3930
20
4.5429
10
2.4121
20
4.5429
10
2.4216
20
4.5334
10
2.4597
20
4.5334
10
2.4693
20
4.5238
10
2.4883
20
4.5238
10
2.4979
20
4.5143
10
2.5169
20
4.5143
10
2.5265
20
4.5048
10
2.5455
20
4.5048
10
2.5551
20
4.4952
10
2.5741
20
4.4952
10
2.6028
20
4.4762
10
2.6314
20
4.4762
10
2.6409
20
4.4666
10
2.6600
20
4.4666
10
2.6790
20
4.4476
10
2.6886
20
4.4476
10
2.6981
20
4.4380
10
2.7267
20
4.4285
10
2.7458
20
4.4094
10
2.7648
20
4.4094
10
2.7744
20
4.3999
10
2.7839
20
4.3999
10
2.8030
20
4.3808
10
2.8316
20
4.3713
10
2.8506
20
4.3522
10
2.8602
20
4.3522
10
2.8888
20
4.3236
10
2.8983
20
4.3236
10
2.9364
20
4.2855
10
2.9460
20
4.2855
10
2.9793
20
4.2521
10
2.9793
20
4.2426
10
2.9936
20
4.2378
10
3.0079
20
4.2235
10
3.0079
20
4.2140
10
3.0556
20
4.1663
10
3.0556
20
4.1568
10
3.0747
20
4.1377
10
3.0747
20
4.1282
10
3.1128
20
4.0900
10
3.1223
20
4.0614
10
3.1414
20
4.0424
10
3.1414
20
4.0233
10
3.1509
20
4.0138
10
3.1509
20
4.0042
10
3.1796
20
3.9566
10
3.1796
20
3.9375
10
3.1891
20
3.9280
10
3.1891
20
3.9184
10
3.1986
20
3.9089
10
3.1986
20
3.8898
10
3.2177
20
3.8612
10
3.2177
20
3.8326
10
3.2272
20
3.8231
10
3.2272
20
3.8040
10
3.2368
20
3.7945
10
3.2368
20
3.7659
10
3.2463
20
3.7564
10
3.2463
20
3.7087
10
3.2558
20
3.6991
10
3.2558
20
3.6610
10
3.2654
20
3.6515
10
3.2654
20
3.2797
10
3.2558
20
3.2701
10
3.2558
20
3.2225
10
3.2463
20
3.2129
10
3.2463
20
3.1271
10
3.2368
20
3.1176
10
3.2368
20
3.0699
10
3.2272
20
3.0604
10
3.2272
20
2.9841
10
3.2177
20
2.9746
10
3.2177
20
2.9460
10
3.2082
20
2.9364
10
3.2082
20
2.8602
10
3.1986
20
2.8506
10
3.1986
20
2.8316
10
3.1891
20
2.8220
10
3.1891
20
2.7744
10
3.1796
20
2.7648
10
3.1796
20
2.6981
10
3.1700
20
2.6886
10
3.1700
20
2.6123
10
3.1605
20
2.6028
10
3.1605
20
2.5837
10
3.1509
20
2.5741
10
3.1509
20
2.5169
10
3.1414
20
2.5074
10
3.1414
20
2.4693
10
3.1271
20
2.4550
10
2.8792
20
2.4550
10
2.8554
20
2.4693
10
2.8554
20
2.4883
10
2.8459
20
2.4979
10
2.8697
20
2.5312
10
2.9555
20
2.5312
10
2.9793
20
2.5551
10
2.9793
20
2.5646
10
2.9889
20
2.5741
10
2.9889
20
2.6028
10
2.9793
20
2.6123
10
2.9793
20
2.6314
10
2.9460
20
2.6552
10
2.7362
20
2.6552
10
2.7267
20
2.6647
10
2.6218
20
2.6647
10
2.6123
20
2.6552
10
2.6028
20
2.6647
10
2.5837
20
2.6647
10
2.5741
20
2.6552
10
2.5551
20
2.6552
10
2.5455
20
2.6647
10
2.5360
20
2.6552
10
2.5265
20
2.6647
10
2.5169
20
2.6552
10
2.5074
20
2.6552
10
2.4979
20
2.6647
10
2.4597
20
2.6647
10
2.4502
20
2.6552
10
2.4359
20
2.6695
10
2.4359
20
2.6790
10
2.4550
20
2.7076
10
2.4550
20
2.7553
10
2.4645
20
2.7648
10
2.4645
20
2.7934
10
2.4740
20
2.8030
10
2.4740
20
2.8602
10
2.4693
20
2.8649
10
2.4311
20
2.8649
10
2.4216
20
2.8745
10
1.6112
20
2.8745
10
1.6017
20
2.8649
10
1.4682
20
2.8649
10
1.4587
20
2.8554
10
1.4205
20
2.8554
10
1.4110
20
2.8459
10
1.3633
20
2.8459
10
1.3538
20
2.8363
10
1.2966
20
2.8363
10
1.2871
20
2.8268
10
1.2680
20
2.8268
10
1.2585
20
2.8173
10
1.2394
20
2.8173
10
1.2299
20
2.8077
10
1.2013
20
2.8077
10
1.1727
20
2.7887
10
1.1441
20
2.7887
10
1.0964
20
2.7601
10
1.0773
20
2.7601
10
1.0678
20
2.7505
10
1.0583
20
2.7505
10
1.0487
20
2.7410
10
1.0201
20
2.7315
10
1.0011
20
2.7124
10
0.9725
20
2.7029
10
0.9534
20
2.6838
10
0.9439
20
2.6838
10
0.9153
20
2.6552
10
0.9057
20
2.6552
10
0.8533
20
2.6028
10
0.8533
20
2.5932
10
0.8151
20
2.5551
10
0.8151
20
2.5455
10
0.8056
20
2.5360
10
0.8056
20
2.5169
10
0.7961
20
2.5074
10
0.7865
20
2.4788
10
0.7627
20
2.4550
10
0.5339
20
2.4550
10
0.5244
20
2.4645
10
0.4958
20
2.4645
10
0.4815
20
2.4788
10
0.4815
20
2.5169
10
0.4958
20
2.5312
10
0.5053
20
2.5312
10
0.5148
20
2.5408
10
0.6006
20
2.5408
10
0.6245
20
2.5646
10
0.6245
20
2.6123
10
0.6149
20
2.6218
10
0.6149
20
2.6314
10
0.5911
20
2.6457
10
0.2002
20
2.6457
10
0.1907
20
2.6361
10
0.1811
20
2.6457
10
0.1049
20
2.6457
10
0.1001
20
2.6504
10
0.1001
20
2.6695
10
0.1096
20
2.6790
10
0.1096
20
2.6886
10
0.1192
20
2.6981
10
0.1287
20
2.7267
10
0.1478
20
2.7458
10
0.1573
20
2.7744
10
0.1764
20
2.7934
10
0.1859
20
2.8220
10
0.2240
20
2.8602
10
0.2240
20
2.8697
10
0.2812
20
2.9269
10
0.2812
20
2.9364
10
0.2956
20
2.9412
10
0.3909
20
3.0365
10
0.4004
20
3.0365
10
0.4386
20
3.0747
10
0.4481
20
3.0747
10
0.4672
20
3.0937
10
0.4767
20
3.0937
10
0.5053
20
3.1223
10
0.5244
20
3.1223
10
0.5339
20
3.1319
10
0.5434
20
3.1319
10
0.5625
20
3.1509
10
0.5720
20
3.1509
10
0.5816
20
3.1605
10
0.5911
20
3.1605
10
0.6006
20
3.1700
10
0.6292
20
3.1796
10
0.6483
20
3.1986
10
0.6674
20
3.1986
10
0.7150
20
3.2272
10
0.7341
20
3.2272
10
0.7436
20
3.2368
10
0.7627
20
3.2368
10
0.8104
20
3.2654
10
0.8390
20
3.2654
10
0.8485
20
3.2749
10
0.8676
20
3.2749
10
0.8771
20
3.2844
10
0.9057
20
3.2844
10
0.9248
20
3.3035
10
0.9629
20
3.3035
10
0.9915
20
3.3226
10
1.0297
20
3.3226
10
1.0392
20
3.3321
10
1.0773
20
3.3321
10
1.0869
20
3.3416
10
1.1250
20
3.3416
10
1.1345
20
3.3512
10
1.1917
20
3.3512
10
1.2013
20
3.3607
10
1.2585
20
3.3607
10
1.2680
20
3.3702
10
1.3633
20
3.3702
10
1.3729
20
3.3798
10
1.4110
20
3.3798
10
1.4205
20
3.3893
10
1.8496
20
3.3893
10
1.8591
20
3.3988
10
1.8686
20
3.3988
10
1.8782
20
3.3893
10
1.9163
20
3.3893
10
1.9258
20
3.3988
10
1.9354
20
3.3893
10
1.9449
20
3.3893
10
1.9544
20
3.3988
10
2.2023
20
3.3988
10
2.2119
20
3.3893
10
2.4216
20
3.3893
10
2.4311
20
3.3988
10
2.5551
20
3.3988
10
2.5598
20
3.4036
10
2.5598
20
3.4799
10
2.5503
20
3.4894
10
2.5503
20
3.5466
10
2.5408
20
3.5561
10
2.5408
20
3.5752
10
2.5312
20
3.5847
10
2.5312
20
3.6229
10
2.5217
20
3.6324
10
2.5217
20
3.6705
10
2.5026
20
3.6896
10
2.5026
20
3.6991
10
2.4931
20
3.7087
10
2.4931
20
3.7277
10
2.4740
20
3.7468
10
2.4740
20
3.7564
10
2.4454
20
3.7850
10
2.4454
20
3.7945
10
2.3739
20
3.8660
10
2.3644
20
3.8660
10
2.2977
20
3.9232
10
2.2881
20
3.9232
10
2.2786
20
3.9327
10
2.2691
20
3.9327
10
2.2214
20
3.9613
10
2.1928
20
3.9613
10
2.1642
20
3.9804
10
2.1451
20
3.9804
10
2.1356
20
3.9899
10
2.1165
20
3.9899
10
2.1070
20
3.9995
10
2.0784
20
3.9995
10
2.0689
20
4.0090
10
2.0212
20
4.0090
10
2.0116
20
4.0185
10
1.9640
20
4.0185
10
1.9544
20
4.0281
10
1.6017
20
4.0281
10
1.5922
20
4.0185
10
1.5445
20
4.0185
10
1.5350
20
4.0090
10
1.4492
20
4.0090
10
1.4396
20
3.9995
10
1.4205
20
3.9995
10
1.4110
20
3.9899
10
1.3538
20
3.9899
10
1.3443
20
3.9804
10
1.3157
20
3.9804
10
1.3061
20
3.9709
10
1.2775
20
3.9709
10
1.2680
20
3.9613
10
1.2489
20
3.9613
10
1.2394
20
3.9518
10
1.2108
20
3.9518
10
1.2013
20
3.9423
10
1.1822
20
3.9423
10
1.1536
20
3.9232
10
1.1250
20
3.9232
10
1.1155
20
3.9137
10
1.0964
20
3.9137
10
1.0869
20
3.9041
10
1.0773
20
3.9041
10
1.0678
20
3.8946
10
1.0487
20
3.8946
10
1.0392
20
3.8851
10
1.0297
20
3.8851
10
1.0201
20
3.8755
10
1.0106
20
3.8755
10
0.9629
20
3.8469
10
0.9439
20
3.8469
10
0.8962
20
3.8183
10
0.8771
20
3.8183
10
0.8676
20
3.8088
10
0.8580
20
3.8088
10
0.8390
20
3.7897
10
0.8294
20
3.7897
10
0.8199
20
3.7802
10
0.8104
20
3.7802
10
0.8008
20
3.7707
10
0.7913
20
3.7707
10
0.7818
20
3.7611
10
0.7722
20
3.7611
10
0.7627
20
3.7516
10
0.7532
20
3.7516
10
0.7436
20
3.7420
10
0.7341
20
3.7420
10
0.6864
20
3.7134
10
0.6674
20
3.7134
10
0.6531
20
3.7277
10
0.6435
20
3.7564
10
0.6149
20
3.7850
10
0.6149
20
3.8040
10
0.6054
20
3.8136
10
0.6054
20
3.8231
10
0.5863
20
3.8422
10
0.5768
20
3.8708
10
0.5577
20
3.8898
10
0.5577
20
3.9089
10
0.5482
20
3.9184
10
0.5482
20
3.9280
10
0.5291
20
3.9470
10
0.5291
20
3.9566
10
0.5101
20
3.9756
10
0.5005
20
4.0042
10
0.4815
20
4.0233
10
0.4815
20
4.0424
10
0.4719
20
4.0519
10
0.4719
20
4.0614
10
0.4529
20
4.0805
10
0.4529
20
4.0900
10
0.4433
20
4.0996
10
0.4433
20
4.1091
10
0.4147
20
4.1568
10
0.4147
20
4.1854
10
0.4195
20
4.1901
10
0.4290
20
4.1901
10
0.4481
20
4.2092
10
0.4576
20
4.2092
10
0.4958
20
4.2473
10
0.5053
20
4.2473
10
0.5148
20
4.2569
10
0.5339
20
4.2569
10
0.5625
20
4.2855
10
0.5816
20
4.2855
10
0.5911
20
4.2950
10
0.6006
20
4.2950
10
0.6197
20
4.3141
10
0.6388
20
4.3141
10
0.6483
20
4.3236
10
0.6578
20
4.3236
10
0.6769
20
4.3427
10
0.6960
20
4.3427
10
0.7055
20
4.3522
10
0.7150
20
4.3522
10
0.7627
20
4.3808
10
0.7818
20
4.3808
10
0.8104
20
4.3999
10
0.8294
20
4.3999
10
0.8771
20
4.4285
10
0.8962
20
4.4285
10
0.9057
20
4.4380
10
0.9153
20
4.4380
10
0.9248
20
4.4476
10
0.9439
20
4.4476
10
0.9725
20
4.4666
10
1.0011
20
4.4666
10
1.0106
20
4.4762
10
1.0297
20
4.4762
10
1.0392
20
4.4857
10
1.0583
20
4.4857
10
1.0678
20
4.4952
10
1.0869
20
4.4952
10
1.0964
20
4.5048
10
1.1155
20
4.5048
10
1.1250
20
4.5143
10
1.1536
20
4.5143
10
1.1631
20
4.5238
10
1.1917
20
4.5238
10
1.2013
20
4.5334
10
1.2394
20
4.5334
10
1.2489
20
4.5429
10
1.2966
20
4.5429
10
1.3252
20
4.5620
10
1.3633
20
4.5620
10
1.3729
20
4.5715
10
1.4778
20
4.5715
10
1.4873
20
4.5810
10
1.5636
20
4.5810
10
1.5731
20
4.5906
10
1.6112
20
4.5906
0
LWPOLYLINE
8
LOGO
90
453
70
1
10
10.8591
20
4.5238
10
10.9640
20
4.5238
10
10.9783
20
4.5095
10
10.9783
20
4.4905
10
10.9687
20
4.4809
10
10.9687
20
4.4237
10
10.9592
20
4.4142
10
10.9592
20
4.3665
10
10.9497
20
4.3570
10
10.9497
20
4.3093
10
10.9401
20
4.2998
10
10.9401
20
4.2426
10
10.9306
20
4.2330
10
10.9306
20
4.1949
10
10.9211
20
4.1854
10
10.9211
20
4.1282
10
10.9354
20
4.1139
10
10.9449
20
4.1139
10
10.9687
20
4.1472
10
10.9687
20
4.2044
10
10.9783
20
4.2140
10
10.9783
20
4.2521
10
10.9878
20
4.2616
10
10.9878
20
4.3093
10
10.9973
20
4.3188
10
10.9973
20
4.3856
10
11.0069
20
4.3951
10
11.0069
20
4.4428
10
11.0164
20
4.4523
10
11.0164
20
4.4809
10
11.0259
20
4.4905
10
11.0259
20
4.5095
10
11.0307
20
4.5143
10
11.0402
20
4.5143
10
11.0498
20
4.5238
10
11.1832
20
4.5238
10
11.1975
20
4.5095
10
11.1975
20
4.5000
10
11.1880
20
4.4905
10
11.1880
20
4.4333
10
11.1785
20
4.4237
10
11.1785
20
4.3856
10
11.1689
20
4.3761
10
11.1689
20
4.3093
10
11.1594
20
4.2998
10
11.1594
20
4.2521
10
11.1499
20
4.2426
10
11.1499
20
4.2235
10
11.1642
20
4.2092
10
11.1832
20
4.2092
10
11.1975
20
4.2235
10
11.1975
20
4.2807
10
11.2071
20
4.2902
10
11.2071
20
4.3093
10
11.2166
20
4.3188
10
11.2166
20
4.3665
10
11.2261
20
4.3761
10
11.2261
20
4.4428
10
11.2357
20
4.4523
10
11.2357
20
4.4809
10
11.2452
20
4.4905
10
11.2452
20
4.5095
10
11.2595
20
4.5238
10
11.5455
20
4.5238
10
11.5598
20
4.5095
10
11.5598
20
4.4523
10
11.5503
20
4.4428
10
11.5503
20
4.3951
10
11.5408
20
4.3856
10
11.5408
20
4.3570
10
11.5312
20
4.3475
10
11.5312
20
4.2902
10
11.5217
20
4.2807
10
11.5217
20
4.2521
10
11.5122
20
4.2426
10
11.5122
20
4.1854
10
11.5026
20
4.1758
10
11.5026
20
4.1282
10
11.4931
20
4.1186
10
11.4931
20
4.0805
10
11.4836
20
4.0710
10
11.4836
20
4.0233
10
11.4740
20
4.0138
10
11.4740
20
3.9661
10
11.4788
20
3.9613
10
11.4883
20
3.9613
10
11.5217
20
3.9947
10
11.5217
20
4.0042
10
11.5408
20
4.0233
10
11.5408
20
4.0328
10
11.6075
20
4.0996
10
11.6075
20
4.1091
10
11.7076
20
4.2092
10
11.7171
20
4.2092
10
11.7743
20
4.2664
10
11.7839
20
4.2664
10
11.8220
20
4.3045
10
11.8315
20
4.3045
10
11.8506
20
4.3236
10
11.8602
20
4.3236
10
11.9078
20
4.3713
10
11.9269
20
4.3713
10
11.9364
20
4.3808
10
11.9460
20
4.3808
10
11.9650
20
4.3999
10
11.9746
20
4.3999
10
11.9936
20
4.4190
10
12.0222
20
4.4285
10
12.0270
20
4.4237
10
12.0270
20
4.3856
10
12.0175
20
4.3761
10
12.0175
20
4.3284
10
12.0079
20
4.3188
10
12.0079
20
4.2521
10
11.9984
20
4.2426
10
11.9984
20
4.1949
10
11.9889
20
4.1854
10
11.9889
20
4.1377
10
11.9793
20
4.1282
10
11.9793
20
4.0614
10
11.9698
20
4.0519
10
11.9698
20
4.0138
10
11.9603
20
4.0042
10
11.9603
20
3.9566
10
11.9507
20
3.9470
10
11.9507
20
3.8994
10
11.9412
20
3.8898
10
11.9412
20
3.8326
10
11.9317
20
3.8231
10
11.9317
20
3.7945
10
11.9078
20
3.7707
10
11.8983
20
3.7707
10
11.8697
20
3.7420
10
11.8602
20
3.7420
10
11.8411
20
3.7230
10
11.8315
20
3.7230
10
11.7457
20
3.6467
10
11.7314
20
3.6515
10
11.7314
20
3.6801
10
11.7410
20
3.6896
10
11.7410
20
3.7468
10
11.7505
20
3.7564
10
11.7505
20
3.8231
10
11.7600
20
3.8326
10
11.7600
20
3.8708
10
11.7696
20
3.8803
10
11.7696
20
3.9280
10
11.7791
20
3.9375
10
11.7791
20
3.9947
10
11.7886
20
4.0042
10
11.7886
20
4.0519
10
11.7743
20
4.0662
10
11.7648
20
4.0662
10
11.7505
20
4.0519
10
11.7505
20
4.0233
10
11.7410
20
4.0138
10
11.7410
20
3.9661
10
11.7314
20
3.9566
10
11.7314
20
3.9089
10
11.7219
20
3.8994
10
11.7219
20
3.8612
10
11.7124
20
3.8517
10
11.7124
20
3.7945
10
11.7028
20
3.7850
10
11.7028
20
3.7277
10
11.6933
20
3.7182
10
11.6933
20
3.6896
10
11.6838
20
3.6801
10
11.6838
20
3.6229
10
11.6742
20
3.6133
10
11.6742
20
3.5752
10
11.6552
20
3.5561
10
11.6552
20
3.5466
10
11.6266
20
3.5180
10
11.6266
20
3.5085
10
11.5884
20
3.4703
10
11.5789
20
3.4417
10
11.5503
20
3.4131
10
11.5503
20
3.4036
10
11.5312
20
3.3845
10
11.5312
20
3.3750
10
11.5217
20
3.3655
10
11.5217
20
3.3559
10
11.5122
20
3.3464
10
11.5122
20
3.3369
10
11.5026
20
3.3273
10
11.4931
20
3.2987
10
11.4645
20
3.2701
10
11.4645
20
3.2606
10
11.4454
20
3.2320
10
11.4454
20
3.2129
10
11.4359
20
3.2034
10
11.4359
20
3.1939
10
11.4073
20
3.1462
10
11.4073
20
3.1271
10
11.3978
20
3.1176
10
11.3978
20
3.1080
10
11.3882
20
3.0985
10
11.3882
20
3.0890
10
11.3596
20
3.0413
10
11.3596
20
3.0127
10
11.3501
20
3.0032
10
11.3501
20
2.9841
10
11.3406
20
2.9746
10
11.3406
20
2.9555
10
11.3310
20
2.9460
10
11.3310
20
2.9174
10
11.3120
20
2.8888
10
11.3120
20
2.8411
10
11.2929
20
2.8125
10
11.2929
20
2.7744
10
11.2834
20
2.7648
10
11.2834
20
2.7172
10
11.2738
20
2.7076
10
11.2738
20
2.6600
10
11.2643
20
2.6504
10
11.2643
20
2.6123
10
11.2547
20
2.6028
10
11.2547
20
2.5646
10
11.2452
20
2.5551
10
11.2452
20
2.5074
10
11.2357
20
2.4979
10
11.2357
20
2.4502
10
11.2261
20
2.4407
10
11.2261
20
2.3835
10
11.2166
20
2.3739
10
11.2166
20
2.3263
10
11.2071
20
2.3167
10
11.2071
20
2.2691
10
11.1975
20
2.2595
10
11.1975
20
2.2214
10
11.1880
20
2.2119
10
11.1880
20
2.1451
10
11.1785
20
2.1356
10
11.1785
20
2.1070
10
11.1689
20
2.0975
10
11.1689
20
2.0593
10
11.1594
20
2.0498
10
11.1594
20
2.0021
10
11.1499
20
1.9926
10
11.1499
20
1.9258
10
11.1403
20
1.9163
10
11.1403
20
1.8782
10
11.1308
20
1.8686
10
11.1308
20
1.8114
10
11.1213
20
1.8019
10
11.1213
20
1.7733
10
11.1117
20
1.7638
10
11.1117
20
1.6875
10
11.1022
20
1.6780
10
11.1022
20
1.6589
10
11.0927
20
1.6494
10
11.0927
20
1.5636
10
11.0831
20
1.5540
10
11.0831
20
1.5254
10
11.0736
20
1.5159
10
11.0736
20
1.4682
10
11.0641
20
1.4587
10
11.0641
20
1.4205
10
11.0545
20
1.4110
10
11.0545
20
1.3633
10
11.0450
20
1.3538
10
11.0450
20
1.3061
10
11.0355
20
1.2966
10
11.0355
20
1.2585
10
11.0212
20
1.2442
10
10.9163
20
1.2442
10
10.9020
20
1.2585
10
10.9115
20
1.2680
10
10.9115
20
1.3061
10
10.9211
20
1.3157
10
10.9211
20
1.3633
10
10.9306
20
1.3729
10
10.9306
20
1.4396
10
10.9258
20
1.4444
10
10.9068
20
1.4444
10
10.8925
20
1.4301
10
10.8925
20
1.4015
10
10.8829
20
1.3919
10
10.8829
20
1.3443
10
10.8734
20
1.3347
10
10.8734
20
1.2871
10
10.8639
20
1.2775
10
10.8639
20
1.2489
10
10.8591
20
1.2442
10
10.6970
20
1.2442
10
10.6923
20
1.2489
10
10.6923
20
1.2775
10
10.7018
20
1.2871
10
10.7018
20
1.3347
10
10.7113
20
1.3443
10
10.7113
20
1.3824
10
10.7209
20
1.3919
10
10.7209
20
1.4492
10
10.7304
20
1.4587
10
10.7304
20
1.5159
10
10.7399
20
1.5254
10
10.7399
20
1.5922
10
10.7352
20
1.5969
10
10.7161
20
1.5969
10
10.7018
20
1.5826
10
10.7018
20
1.5636
10
10.6923
20
1.5540
10
10.6923
20
1.4873
10
10.6827
20
1.4778
10
10.6827
20
1.4396
10
10.6732
20
1.4301
10
10.6732
20
1.3919
10
10.6636
20
1.3824
10
10.6636
20
1.3252
10
10.6541
20
1.3157
10
10.6541
20
1.2585
10
10.6398
20
1.2442
10
10.4873
20
1.2442
10
10.4730
20
1.2585
10
10.4825
20
1.2680
10
10.4825
20
1.3061
10
10.4920
20
1.3157
10
10.4920
20
1.3538
10
10.5016
20
1.3633
10
10.5016
20
1.4396
10
10.4968
20
1.4444
10
10.4777
20
1.4444
10
10.4634
20
1.4301
10
10.4634
20
1.3919
10
10.4539
20
1.3824
10
10.4539
20
1.3347
10
10.4444
20
1.3252
10
10.4444
20
1.2871
10
10.4348
20
1.2775
10
10.4348
20
1.2489
10
10.4301
20
1.2442
10
10.2680
20
1.2442
10
10.2632
20
1.2489
10
10.2632
20
1.3061
10
10.2728
20
1.3157
10
10.2728
20
1.3633
10
10.2823
20
1.3729
10
10.2823
20
1.4205
10
10.2918
20
1.4301
10
10.2918
20
1.4682
10
10.3014
20
1.4778
10
10.3014
20
1.5254
10
10.3109
20
1.5350
10
10.3109
20
1.5826
10
10.3204
20
1.5922
10
10.3204
20
1.6303
10
10.3300
20
1.6398
10
10.3300
20
1.6875
10
10.3395
20
1.6970
10
10.3395
20
1.7542
10
10.3490
20
1.7638
10
10.3490
20
1.8114
10
10.3586
20
1.8210
10
10.3586
20
1.8591
10
10.3681
20
1.8686
10
10.3681
20
1.9258
10
10.3776
20
1.9354
10
10.3776
20
1.9640
10
10.3872
20
1.9735
10
10.3872
20
2.0307
10
10.3967
20
2.0403
10
10.3967
20
2.0784
10
10.4062
20
2.0879
10
10.4062
20
2.1356
10
10.4158
20
2.1451
10
10.4158
20
2.1642
10
10.4253
20
2.1737
10
10.4253
20
2.2119
10
10.4348
20
2.2214
10
10.4348
20
2.2881
10
10.4444
20
2.2977
10
10.4444
20
2.3263
10
10.4539
20
2.3358
10
10.4539
20
2.4025
10
10.4634
20
2.4121
10
10.4634
20
2.4407
10
10.4730
20
2.4502
10
10.4730
20
2.5265
10
10.4825
20
2.5360
10
10.4825
20
2.5646
10
10.4920
20
2.5741
10
10.4920
20
2.6409
10
10.5016
20
2.6504
10
10.5016
20
2.6695
10
10.5111
20
2.6790
10
10.5111
20
2.7458
10
10.5206
20
2.7553
10
10.5206
20
2.7744
10
10.5302
20
2.7839
10
10.5302
20
2.8602
10
10.5397
20
2.8697
10
10.5397
20
2.9174
10
10.5492
20
2.9269
10
10.5492
20
2.9746
10
10.5588
20
2.9841
10
10.5588
20
3.0222
10
10.5683
20
3.0318
10
10.5683
20
3.0890
10
10.5778
20
3.0985
10
10.5778
20
3.1462
10
10.5874
20
3.1557
10
10.5874
20
3.1939
10
10.5969
20
3.2034
10
10.5969
20
3.2415
10
10.6064
20
3.2511
10
10.6064
20
3.3083
10
10.6160
20
3.3178
10
10.6160
20
3.3559
10
10.6255
20
3.3655
10
10.6255
20
3.4036
10
10.6350
20
3.4131
10
10.6350
20
3.4513
10
10.6446
20
3.4608
10
10.6446
20
3.5180
10
10.6541
20
3.5275
10
10.6541
20
3.5752
10
10.6636
20
3.5847
10
10.6636
20
3.6324
10
10.6732
20
3.6419
10
10.6732
20
3.6991
10
10.6827
20
3.7087
10
10.6827
20
3.7373
10
10.6923
20
3.7468
10
10.6923
20
3.8136
10
10.7018
20
3.8231
10
10.7018
20
3.8612
10
10.7113
20
3.8708
10
10.7113
20
3.9184
10
10.7209
20
3.9280
10
10.7209
20
3.9566
10
10.7304
20
3.9661
10
10.7304
20
4.0233
10
10.7399
20
4.0328
10
10.7399
20
4.0900
10
10.7495
20
4.0996
10
10.7495
20
4.1282
10
10.7590
20
4.1377
10
10.7590
20
4.1854
10
10.7685
20
4.1949
10
10.7685
20
4.2521
10
10.7781
20
4.2616
10
10.7781
20
4.3093
10
10.7876
20
4.3188
10
10.7876
20
4.3570
10
10.7971
20
4.3665
10
10.7971
20
4.4237
10
10.8067
20
4.4333
10
10.8067
20
4.4619
10
10.8162
20
4.4714
10
10.8162
20
4.5095
10
10.8210
20
4.5143
10
10.8496
20
4.5143
0
LWPOLYLINE
8
LOGO
90
71
70
1
10
10.9449
20
2.9221
10
10.9211
20
2.8983
10
10.9211
20
2.8411
10
10.9115
20
2.8316
10
10.9115
20
2.8125
10
10.9020
20
2.8030
10
10.9020
20
2.7362
10
10.8925
20
2.7267
10
10.8925
20
2.6886
10
10.8829
20
2.6790
10
10.8829
20
2.6218
10
10.8734
20
2.6123
10
10.8734
20
2.5741
10
10.8639
20
2.5646
10
10.8639
20
2.5074
10
10.8543
20
2.4979
10
10.8543
20
2.4693
10
10.8448
20
2.4597
10
10.8448
20
2.4025
10
10.8353
20
2.3930
10
10.8353
20
2.3549
10
10.8257
20
2.3453
10
10.8257
20
2.2881
10
10.8162
20
2.2786
10
10.8162
20
2.2309
10
10.8067
20
2.2214
10
10.8067
20
2.1737
10
10.7971
20
2.1642
10
10.7971
20
2.1165
10
10.7876
20
2.1070
10
10.7876
20
2.0403
10
10.7781
20
2.0307
10
10.7781
20
1.9926
10
10.7685
20
1.9830
10
10.7685
20
1.9449
10
10.7828
20
1.9306
10
10.7924
20
1.9306
10
10.8162
20
1.9640
10
10.8162
20
2.0021
10
10.8257
20
2.0116
10
10.8257
20
2.0689
10
10.8353
20
2.0784
10
10.8353
20
2.1356
10
10.8448
20
2.1451
10
10.8448
20
2.1737
10
10.8543
20
2.1833
10
10.8543
20
2.2405
10
10.8639
20
2.2500
10
10.8639
20
2.3167
10
10.8734
20
2.3263
10
10.8734
20
2.3644
10
10.8829
20
2.3739
10
10.8829
20
2.4216
10
10.8925
20
2.4311
10
10.8925
20
2.4788
10
10.9020
20
2.4883
10
10.9020
20
2.5360
10
10.9115
20
2.5455
10
10.9115
20
2.5646
10
10.9211
20
2.5741
10
10.9211
20
2.6409
10
10.9306
20
2.6504
10
10.9306
20
2.6981
10
10.9401
20
2.7076
10
10.9401
20
2.7553
10
10.9497
20
2.7648
10
10.9497
20
2.8125
10
10.9592
20
2.8220
10
10.9592
20
2.8792
10
10.9687
20
2.8888
10
10.9687
20
2.8983
0
LWPOLYLINE
8
LOGO
90
40
70
1
10
10.5826
20
2.0736
10
10.5683
20
2.0593
10
10.5683
20
2.0021
10
10.5588
20
1.9926
10
10.5588
20
1.9640
10
10.5492
20
1.9544
10
10.5492
20
1.9163
10
10.5397
20
1.9068
10
10.5397
20
1.8591
10
10.5302
20
1.8496
10
10.5302
20
1.8114
10
10.5206
20
1.8019
10
10.5206
20
1.7447
10
10.5111
20
1.7352
10
10.5111
20
1.6875
10
10.5016
20
1.6780
10
10.5016
20
1.6208
10
10.4920
20
1.6112
10
10.4920
20
1.5540
10
10.4968
20
1.5493
10
10.5159
20
1.5493
10
10.5302
20
1.5636
10
10.5302
20
1.5922
10
10.5397
20
1.6017
10
10.5397
20
1.6589
10
10.5492
20
1.6684
10
10.5492
20
1.7066
10
10.5588
20
1.7161
10
10.5588
20
1.7638
10
10.5683
20
1.7733
10
10.5683
20
1.8210
10
10.5778
20
1.8305
10
10.5778
20
1.8782
10
10.5874
20
1.8877
10
10.5874
20
1.9258
10
10.5969
20
1.9354
10
10.5969
20
1.9926
10
10.6064
20
2.0021
10
10.6064
20
2.0689
10
10.6017
20
2.0736
0
LWPOLYLINE
8
LOGO
90
37
70
1
10
10.9258
20
4.0281
10
10.8925
20
3.9947
10
10.8925
20
3.9375
10
10.8829
20
3.9280
10
10.8829
20
3.8803
10
10.8734
20
3.8708
10
10.8734
20
3.8326
10
10.8639
20
3.8231
10
10.8639
20
3.7850
10
10.8543
20
3.7754
10
10.8543
20
3.7182
10
10.8448
20
3.7087
10
10.8448
20
3.6610
10
10.8353
20
3.6515
10
10.8353
20
3.6133
10
10.8257
20
3.6038
10
10.8257
20
3.5371
10
10.8400
20
3.5228
10
10.8496
20
3.5228
10
10.8639
20
3.5371
10
10.8639
20
3.5752
10
10.8734
20
3.5847
10
10.8734
20
3.6229
10
10.8829
20
3.6324
10
10.8829
20
3.6705
10
10.8925
20
3.6801
10
10.8925
20
3.7373
10
10.9020
20
3.7468
10
10.9020
20
3.8136
10
10.9115
20
3.8231
10
10.9115
20
3.8422
10
10.9211
20
3.8517
10
10.9211
20
3.8994
10
10.9306
20
3.9089
10
10.9306
20
3.9661
10
10.9401
20
3.9756
10
10.9401
20
4.0042
0
LWPOLYLINE
8
LOGO
90
36
70
1
10
11.1070
20
2.6075
10
11.0927
20
2.5932
10
11.0927
20
2.5741
10
11.0831
20
2.5646
10
11.0831
20
2.5265
10
11.0736
20
2.5169
10
11.0736
20
2.4788
10
11.0641
20
2.4693
10
11.0641
20
2.4121
10
11.0545
20
2.4025
10
11.0545
20
2.3644
10
11.0450
20
2.3549
10
11.0450
20
2.3167
10
11.0355
20
2.3072
10
11.0355
20
2.2500
10
11.0259
20
2.2405
10
11.0259
20
2.1928
10
11.0402
20
2.1785
10
11.0498
20
2.1785
10
11.0641
20
2.1928
10
11.0641
20
2.2119
10
11.0736
20
2.2214
10
11.0736
20
2.2500
10
11.0831
20
2.2595
10
11.0831
20
2.3263
10
11.0927
20
2.3358
10
11.0927
20
2.3835
10
11.1022
20
2.3930
10
11.1022
20
2.4407
10
11.1117
20
2.4502
10
11.1117
20
2.4979
10
11.1213
20
2.5074
10
11.1213
20
2.5646
10
11.1308
20
2.5741
10
11.1308
20
2.5932
10
11.1165
20
2.6075
0
LWPOLYLINE
8
LOGO
90
28
70
1
10
11.2023
20
3.1891
10
11.1880
20
3.1748
10
11.1880
20
3.1462
10
11.1785
20
3.1366
10
11.1785
20
3.0890
10
11.1689
20
3.0794
10
11.1689
20
3.0318
10
11.1594
20
3.0222
10
11.1594
20
2.9746
10
11.1499
20
2.9650
10
11.1499
20
2.9174
10
11.1403
20
2.9078
10
11.1403
20
2.8602
10
11.1546
20
2.8459
10
11.1642
20
2.8459
10
11.1785
20
2.8602
10
11.1785
20
2.8792
10
11.1880
20
2.8888
10
11.1880
20
2.9269
10
11.1975
20
2.9364
10
11.1975
20
2.9841
10
11.2071
20
2.9936
10
11.2071
20
3.0413
10
11.2166
20
3.0508
10
11.2166
20
3.0985
10
11.2261
20
3.1080
10
11.2261
20
3.1843
10
11.2214
20
3.1891
0
LWPOLYLINE
8
LOGO
90
24
70
1
10
10.6875
20
2.6933
10
10.6732
20
2.6695
10
10.6732
20
2.6409
10
10.6636
20
2.6314
10
10.6636
20
2.5741
10
10.6541
20
2.5646
10
10.6541
20
2.5074
10
10.6446
20
2.4979
10
10.6446
20
2.4693
10
10.6350
20
2.4597
10
10.6350
20
2.3930
10
10.6493
20
2.3787
10
10.6589
20
2.3787
10
10.6732
20
2.3930
10
10.6732
20
2.4311
10
10.6827
20
2.4407
10
10.6827
20
2.4788
10
10.6923
20
2.4883
10
10.6923
20
2.5455
10
10.7018
20
2.5551
10
10.7018
20
2.6028
10
10.7113
20
2.6123
10
10.7113
20
2.6790
10
10.6970
20
2.6933
0
LWPOLYLINE
8
LOGO
90
19
70
1
10
11.5074
20
3.8279
10
11.4931
20
3.8136
10
11.4931
20
3.7945
10
11.4836
20
3.7850
10
11.4836
20
3.7373
10
11.4740
20
3.7277
10
11.4740
20
3.6801
10
11.4645
20
3.6705
10
11.4645
20
3.5943
10
11.4788
20
3.5800
10
11.5026
20
3.6038
10
11.5026
20
3.6324
10
11.5122
20
3.6419
10
11.5122
20
3.6896
10
11.5217
20
3.6991
10
11.5217
20
3.7564
10
11.5312
20
3.7659
10
11.5312
20
3.8136
10
11.5169
20
3.8279
0
LWPOLYLINE
8
LOGO
90
323
70
1
10
6.0540
20
4.5810
10
6.3114
20
4.5810
10
6.3210
20
4.5715
10
6.4163
20
4.5715
10
6.4497
20
4.5477
10
6.4497
20
4.5095
10
6.4401
20
4.5000
10
6.4401
20
4.4809
10
6.4306
20
4.4714
10
6.4306
20
4.4333
10
6.4211
20
4.4237
10
6.4211
20
4.3856
10
6.4115
20
4.3761
10
6.4115
20
4.3665
10
6.4020
20
4.3570
10
6.4020
20
4.3379
10
6.3925
20
4.3284
10
6.3925
20
4.2902
10
6.3829
20
4.2807
10
6.3829
20
4.2521
10
6.3734
20
4.2426
10
6.3734
20
4.1949
10
6.3543
20
4.1663
10
6.3543
20
4.1282
10
6.3448
20
4.1186
10
6.3448
20
4.0900
10
6.3353
20
4.0805
10
6.3353
20
4.0614
10
6.3257
20
4.0519
10
6.3257
20
4.0328
10
6.3162
20
4.0233
10
6.3162
20
3.9947
10
6.3067
20
3.9852
10
6.3067
20
3.9661
10
6.2971
20
3.9566
10
6.2971
20
3.9184
10
6.2876
20
3.9089
10
6.2876
20
3.8898
10
6.2733
20
3.8755
10
6.2447
20
3.8755
10
6.2161
20
3.8946
10
6.1970
20
3.8946
10
6.1875
20
3.9041
10
6.1684
20
3.9041
10
6.1589
20
3.9137
10
6.0635
20
3.9137
10
6.0540
20
3.9232
10
5.8252
20
3.9232
10
5.8157
20
3.9137
10
5.7775
20
3.9137
10
5.7680
20
3.9041
10
5.7489
20
3.9041
10
5.7394
20
3.8946
10
5.7108
20
3.8946
10
5.6822
20
3.8755
10
5.6536
20
3.8755
10
5.6441
20
3.8660
10
5.6250
20
3.8660
10
5.6059
20
3.8469
10
5.5869
20
3.8469
10
5.5773
20
3.8374
10
5.5583
20
3.8374
10
5.5392
20
3.8183
10
5.5297
20
3.8183
10
5.5201
20
3.8088
10
5.5106
20
3.8088
10
5.5011
20
3.7993
10
5.4915
20
3.7993
10
5.4820
20
3.7897
10
5.4534
20
3.7802
10
5.4248
20
3.7516
10
5.4152
20
3.7516
10
5.3866
20
3.7230
10
5.3771
20
3.7230
10
5.3390
20
3.6848
10
5.3294
20
3.6848
10
5.3247
20
3.6705
10
5.2627
20
3.6086
10
5.2484
20
3.6038
10
5.2484
20
3.5943
10
5.1912
20
3.5371
10
5.1912
20
3.5275
10
5.1340
20
3.4608
10
5.1340
20
3.4513
10
5.1149
20
3.4322
10
5.1149
20
3.4227
10
5.0863
20
3.3941
10
5.0863
20
3.3750
10
5.0768
20
3.3655
10
5.0768
20
3.3559
10
5.0577
20
3.3369
10
5.0577
20
3.3273
10
5.0482
20
3.3178
10
5.0387
20
3.2892
10
5.0196
20
3.2701
10
5.0196
20
3.2606
10
5.0101
20
3.2511
10
5.0101
20
3.2320
10
4.9910
20
3.2129
10
4.9910
20
3.2034
10
4.9815
20
3.1939
10
4.9815
20
3.1748
10
4.9529
20
3.1271
10
4.9529
20
3.1080
10
4.9338
20
3.0890
10
4.9338
20
3.0699
10
4.9147
20
3.0413
10
4.9147
20
3.0127
10
4.9052
20
3.0032
10
4.9052
20
2.9841
10
4.8861
20
2.9555
10
4.8861
20
2.9078
10
4.8766
20
2.8983
10
4.8766
20
2.8792
10
4.8670
20
2.8697
10
4.8670
20
2.8411
10
4.8575
20
2.8316
10
4.8575
20
2.7839
10
4.8480
20
2.7744
10
4.8480
20
2.7458
10
4.8384
20
2.7362
10
4.8384
20
2.6695
10
4.8289
20
2.6600
10
4.8289
20
2.6409
10
4.8194
20
2.6314
10
4.8194
20
2.5837
10
4.8098
20
2.5741
10
4.8098
20
2.5360
10
4.8003
20
2.5265
10
4.8003
20
2.4788
10
4.7908
20
2.4693
10
4.7908
20
2.4311
10
4.7812
20
2.4216
10
4.7812
20
2.3739
10
4.7717
20
2.3644
10
4.7717
20
2.3167
10
4.7622
20
2.3072
10
4.7622
20
2.2500
10
4.7526
20
2.2405
10
4.7526
20
2.2023
10
4.7288
20
2.1785
10
4.7002
20
2.1785
10
4.6907
20
2.1880
10
4.6811
20
2.1880
10
4.6716
20
2.1785
10
4.4619
20
2.1785
10
4.4523
20
2.1690
10
4.4237
20
2.1690
10
4.4142
20
2.1594
10
4.3093
20
2.1594
10
4.2998
20
2.1499
10
4.2521
20
2.1499
10
4.2426
20
2.1404
10
4.1854
20
2.1404
10
4.1568
20
2.1213
10
4.1091
20
2.1213
10
4.0996
20
2.1118
10
4.0710
20
2.1118
10
4.0614
20
2.1022
10
4.0424
20
2.1022
10
4.0328
20
2.0927
10
4.0138
20
2.0927
10
4.0042
20
2.0832
10
3.9852
20
2.0832
10
3.9756
20
2.0736
10
3.9661
20
2.0736
10
3.9613
20
2.0784
10
3.9613
20
2.1165
10
3.9709
20
2.1261
10
3.9709
20
2.2023
10
3.9804
20
2.2119
10
3.9804
20
2.2405
10
3.9899
20
2.2500
10
3.9899
20
2.2691
10
3.9995
20
2.2786
10
3.9995
20
2.3453
10
4.0090
20
2.3549
10
4.0090
20
2.4025
10
4.0185
20
2.4121
10
4.0185
20
2.4693
10
4.0281
20
2.4788
10
4.0281
20
2.4979
10
4.0376
20
2.5074
10
4.0376
20
2.5551
10
4.0471
20
2.5646
10
4.0471
20
2.6123
10
4.0567
20
2.6218
10
4.0567
20
2.6600
10
4.0662
20
2.6695
10
4.0662
20
2.7172
10
4.0757
20
2.7267
10
4.0757
20
2.7839
10
4.0853
20
2.7934
10
4.0853
20
2.8220
10
4.0948
20
2.8316
10
4.0948
20
2.8792
10
4.1043
20
2.8888
10
4.1043
20
2.9269
10
4.1139
20
2.9364
10
4.1139
20
2.9936
10
4.1234
20
3.0032
10
4.1234
20
3.0508
10
4.1329
20
3.0604
10
4.1329
20
3.1080
10
4.1425
20
3.1176
10
4.1425
20
3.1557
10
4.1520
20
3.1652
10
4.1520
20
3.1939
10
4.1615
20
3.2034
10
4.1615
20
3.2701
10
4.1711
20
3.2797
10
4.1711
20
3.3178
10
4.1806
20
3.3273
10
4.1806
20
3.3655
10
4.1901
20
3.3750
10
4.1901
20
3.4322
10
4.1997
20
3.4417
10
4.1997
20
3.4799
10
4.2092
20
3.4894
10
4.2092
20
3.5466
10
4.2187
20
3.5561
10
4.2187
20
3.5943
10
4.2283
20
3.6038
10
4.2283
20
3.6610
10
4.2378
20
3.6705
10
4.2378
20
3.7182
10
4.2473
20
3.7277
10
4.2473
20
3.7659
10
4.2569
20
3.7754
10
4.2569
20
3.8040
10
4.2664
20
3.8136
10
4.2664
20
3.8708
10
4.2759
20
3.8803
10
4.2759
20
3.9089
10
4.2855
20
3.9184
10
4.2855
20
3.9661
10
4.2950
20
3.9756
10
4.2950
20
4.0138
10
4.3045
20
4.0233
10
4.3045
20
4.0805
10
4.3141
20
4.0900
10
4.3141
20
4.1282
10
4.3236
20
4.1377
10
4.3236
20
4.1949
10
4.3331
20
4.2044
10
4.3331
20
4.2426
10
4.3427
20
4.2521
10
4.3427
20
4.3093
10
4.3522
20
4.3188
10
4.3522
20
4.3379
10
4.3618
20
4.3475
10
4.3618
20
4.4142
10
4.3713
20
4.4237
10
4.3713
20
4.4523
10
4.3808
20
4.4619
10
4.3808
20
4.5000
10
4.3951
20
4.5143
10
4.4142
20
4.5143
10
4.4237
20
4.5238
10
5.0816
20
4.5238
10
5.0959
20
4.5095
10
5.0959
20
4.4905
10
5.0863
20
4.4809
10
5.0863
20
4.4237
10
5.0768
20
4.4142
10
5.0768
20
4.3761
10
5.0673
20
4.3665
10
5.0673
20
4.3284
10
5.0577
20
4.3188
10
5.0577
20
4.2712
10
5.0482
20
4.2616
10
5.0482
20
4.2140
10
5.0387
20
4.2044
10
5.0387
20
4.1568
10
5.0291
20
4.1472
10
5.0291
20
4.1282
10
5.0196
20
4.1186
10
5.0196
20
4.0710
10
5.0101
20
4.0614
10
5.0101
20
4.0138
10
5.0005
20
4.0042
10
5.0005
20
3.9566
10
5.0148
20
3.9518
10
5.0482
20
3.9852
10
5.0482
20
3.9947
10
5.0959
20
4.0424
10
5.0959
20
4.0519
10
5.1531
20
4.1091
10
5.1531
20
4.1186
10
5.2436
20
4.2092
10
5.2532
20
4.2092
10
5.3104
20
4.2664
10
5.3199
20
4.2664
10
5.3580
20
4.3045
10
5.3676
20
4.3045
10
5.4343
20
4.3618
10
5.4438
20
4.3618
10
5.4534
20
4.3713
10
5.4820
20
4.3808
10
5.5011
20
4.3999
10
5.5106
20
4.3999
10
5.5201
20
4.4094
10
5.5487
20
4.4190
10
5.5678
20
4.4380
10
5.5773
20
4.4380
10
5.5869
20
4.4476
10
5.6155
20
4.4571
10
5.6345
20
4.4762
10
5.6536
20
4.4762
10
5.6631
20
4.4857
10
5.6822
20
4.4857
10
5.6917
20
4.4952
10
5.7108
20
4.4952
10
5.7394
20
4.5143
10
5.7680
20
4.5143
10
5.7966
20
4.5334
10
5.8252
20
4.5334
10
5.8347
20
4.5429
10
5.8633
20
4.5429
10
5.8919
20
4.5620
10
5.9396
20
4.5620
10
5.9491
20
4.5715
10
6.0445
20
4.5715
0
LWPOLYLINE
8
LOGO
90
329
70
1
10
2.5360
20
2.3310
10
3.1080
20
2.3310
10
3.1128
20
2.3263
10
3.1128
20
2.2786
10
3.1033
20
2.2691
10
3.1033
20
2.2309
10
3.0937
20
2.2214
10
3.0937
20
2.1642
10
3.0842
20
2.1547
10
3.0842
20
2.1261
10
3.0747
20
2.1165
10
3.0747
20
2.0498
10
3.0651
20
2.0403
10
3.0651
20
2.0021
10
3.0556
20
1.9926
10
3.0556
20
1.9449
10
3.0413
20
1.9306
10
2.3549
20
1.9306
10
2.3453
20
1.9211
10
2.3167
20
1.9211
10
2.3024
20
1.8972
10
2.3024
20
1.8686
10
2.3358
20
1.8353
10
2.4216
20
1.8353
10
2.4454
20
1.8114
10
2.4454
20
1.7733
10
2.4216
20
1.7495
10
1.9926
20
1.7495
10
1.9687
20
1.7256
10
1.9687
20
1.6780
10
1.9926
20
1.6541
10
2.1833
20
1.6541
10
2.2071
20
1.6303
10
2.2071
20
1.6017
10
2.1928
20
1.5874
10
2.1833
20
1.5874
10
2.1737
20
1.5779
10
1.6589
20
1.5779
10
1.6398
20
1.5588
10
1.6303
20
1.5588
10
1.6160
20
1.5350
10
1.6160
20
1.5159
10
1.6255
20
1.5064
10
1.6255
20
1.4968
10
1.6589
20
1.4730
10
2.0307
20
1.4730
10
2.0355
20
1.4587
10
2.0116
20
1.4348
10
2.0021
20
1.4348
10
1.9640
20
1.3967
10
1.9544
20
1.3967
10
1.9449
20
1.3872
10
1.9354
20
1.3872
10
1.9163
20
1.3681
10
1.9068
20
1.3681
10
1.8972
20
1.3586
10
1.8877
20
1.3586
10
1.8782
20
1.3490
10
1.8496
20
1.3395
10
1.8305
20
1.3204
10
1.8114
20
1.3204
10
1.8019
20
1.3109
10
1.7924
20
1.3109
10
1.7828
20
1.3014
10
1.7638
20
1.3014
10
1.7161
20
1.2728
10
1.6970
20
1.2728
10
1.6875
20
1.2632
10
1.6684
20
1.2632
10
1.6589
20
1.2537
10
1.6398
20
1.2537
10
1.6303
20
1.2442
10
1.6017
20
1.2442
10
1.5922
20
1.2346
10
1.5731
20
1.2346
10
1.5636
20
1.2251
10
1.5254
20
1.2251
10
1.5159
20
1.2156
10
1.4968
20
1.2156
10
1.4873
20
1.2060
10
1.4492
20
1.2060
10
1.4396
20
1.1965
10
1.3824
20
1.1965
10
1.3729
20
1.1870
10
1.3252
20
1.1870
10
1.3157
20
1.1774
10
1.1059
20
1.1774
10
1.0869
20
1.1965
10
1.0583
20
1.1774
10
1.0011
20
1.1774
10
0.9915
20
1.1870
10
0.9248
20
1.1870
10
0.9153
20
1.1965
10
0.8676
20
1.1965
10
0.8580
20
1.2060
10
0.8199
20
1.2060
10
0.8104
20
1.2156
10
0.7913
20
1.2156
10
0.7818
20
1.2251
10
0.7532
20
1.2251
10
0.7436
20
1.2346
10
0.7150
20
1.2346
10
0.6960
20
1.2537
10
0.6578
20
1.2537
10
0.6483
20
1.2632
10
0.6292
20
1.2632
10
0.6245
20
1.2680
10
0.6245
20
1.2775
10
0.6149
20
1.2871
10
0.6149
20
1.3538
10
0.5911
20
1.3776
10
0.5816
20
1.3776
10
0.5720
20
1.3872
10
0.5577
20
1.3824
10
0.5959
20
1.3443
10
0.5959
20
1.3252
10
0.6054
20
1.3157
10
0.6054
20
1.3061
10
0.5816
20
1.2823
10
0.5720
20
1.2918
10
0.5625
20
1.2918
10
0.5530
20
1.3014
10
0.5434
20
1.3014
10
0.5339
20
1.3109
10
0.5244
20
1.3109
10
0.5148
20
1.3204
10
0.4862
20
1.3300
10
0.4672
20
1.3490
10
0.4386
20
1.3586
10
0.4195
20
1.3776
10
0.4100
20
1.3776
10
0.3909
20
1.3967
10
0.3814
20
1.3967
10
0.3432
20
1.4348
10
0.3337
20
1.4348
10
0.3194
20
1.4492
10
0.3194
20
1.4587
10
0.3051
20
1.4635
10
0.2145
20
1.5540
10
0.2145
20
1.5731
10
0.2193
20
1.5779
10
0.9153
20
1.5779
10
0.9391
20
1.5540
10
0.9391
20
1.5350
10
0.9486
20
1.5254
10
0.9391
20
1.5159
10
0.9391
20
1.5064
10
0.9153
20
1.4921
10
0.7341
20
1.4921
10
0.7103
20
1.4682
10
0.7150
20
1.4539
10
0.7246
20
1.4635
10
0.7722
20
1.4635
10
0.7818
20
1.4730
10
0.8008
20
1.4730
10
0.8104
20
1.4635
10
0.8485
20
1.4635
10
0.8580
20
1.4730
10
0.8676
20
1.4635
10
0.8962
20
1.4635
10
0.9057
20
1.4730
10
0.9248
20
1.4730
10
0.9296
20
1.4873
10
0.9439
20
1.4921
10
0.9582
20
1.5064
10
0.9582
20
1.5636
10
0.9343
20
1.5874
10
0.9248
20
1.5874
10
0.9153
20
1.5969
10
0.2002
20
1.5969
10
0.1907
20
1.5874
10
0.1764
20
1.6017
10
0.1764
20
1.6112
10
0.1478
20
1.6398
10
0.1478
20
1.6494
10
0.1382
20
1.6589
10
0.1525
20
1.6732
10
1.1917
20
1.6732
10
1.2156
20
1.6494
10
1.2156
20
1.6303
10
1.2060
20
1.6208
10
1.2156
20
1.6112
10
1.2013
20
1.5969
10
1.1345
20
1.5969
10
1.1250
20
1.5874
10
1.1155
20
1.5874
10
1.0916
20
1.5636
10
1.0916
20
1.5540
10
1.0821
20
1.5445
10
1.0821
20
1.5159
10
1.1012
20
1.4968
10
1.1012
20
1.4873
10
1.1250
20
1.4730
10
1.4301
20
1.4730
10
1.4539
20
1.4492
10
1.4539
20
1.4205
10
1.4301
20
1.3967
10
0.8390
20
1.3967
10
0.8294
20
1.3872
10
0.7913
20
1.3872
10
0.7818
20
1.3967
10
0.7770
20
1.3919
10
0.7770
20
1.3824
10
0.7913
20
1.3586
10
0.8008
20
1.3586
10
0.8104
20
1.3681
10
0.8294
20
1.3681
10
0.8342
20
1.3633
10
0.8151
20
1.3538
10
0.8151
20
1.3061
10
0.8247
20
1.2966
10
0.8247
20
1.2871
10
0.8485
20
1.2632
10
1.0487
20
1.2632
10
1.0726
20
1.2489
10
1.0726
20
1.2299
10
1.0869
20
1.2156
10
1.1012
20
1.2299
10
1.1012
20
1.2394
10
1.0773
20
1.2632
10
1.0678
20
1.2632
10
1.0583
20
1.2728
10
0.8676
20
1.2728
10
0.8437
20
1.2966
10
0.8437
20
1.3347
10
0.8533
20
1.3443
10
0.8533
20
1.3538
10
0.8771
20
1.3681
10
1.4301
20
1.3681
10
1.4730
20
1.4110
10
1.4730
20
1.4587
10
1.4396
20
1.4921
10
1.1345
20
1.4921
10
1.1250
20
1.5016
10
1.1155
20
1.5016
10
1.1012
20
1.5159
10
1.1012
20
1.5540
10
1.1250
20
1.5779
10
1.2013
20
1.5779
10
1.2108
20
1.5874
10
1.2203
20
1.5874
10
1.2442
20
1.6208
10
1.2346
20
1.6303
10
1.2346
20
1.6589
10
1.2013
20
1.6923
10
0.8676
20
1.6923
10
0.8580
20
1.6827
10
0.8485
20
1.6923
10
0.8008
20
1.6923
10
0.7913
20
1.6827
10
0.7818
20
1.6923
10
0.6674
20
1.6923
10
0.6578
20
1.6827
10
0.6388
20
1.6827
10
0.6292
20
1.6923
10
0.6197
20
1.6827
10
0.5720
20
1.6827
10
0.5577
20
1.6970
10
0.5577
20
1.7352
10
0.5673
20
1.7447
10
0.5673
20
1.7542
10
0.5482
20
1.7733
10
0.5482
20
1.7828
10
0.5434
20
1.7876
10
0.4386
20
1.7876
10
0.4147
20
1.8210
10
0.4147
20
1.8400
10
0.4386
20
1.8639
10
0.9534
20
1.8639
10
0.9820
20
1.8353
10
0.9915
20
1.8353
10
1.0106
20
1.8162
10
1.0392
20
1.8162
10
1.0583
20
1.7971
10
1.0869
20
1.7971
10
1.0964
20
1.7876
10
1.1155
20
1.7876
10
1.1250
20
1.7781
10
1.1441
20
1.7781
10
1.1536
20
1.7685
10
1.2013
20
1.7685
10
1.2108
20
1.7590
10
1.4682
20
1.7590
10
1.4778
20
1.7685
10
1.4968
20
1.7685
10
1.5064
20
1.7781
10
1.5636
20
1.7781
10
1.5731
20
1.7876
10
1.6017
20
1.7876
10
1.6112
20
1.7971
10
1.6398
20
1.7971
10
1.6684
20
1.8162
10
1.6970
20
1.8162
10
1.7066
20
1.8257
10
1.7256
20
1.8257
10
1.7542
20
1.8448
10
1.7733
20
1.8448
10
1.7924
20
1.8639
10
1.8019
20
1.8639
10
1.8114
20
1.8734
10
1.8305
20
1.8734
10
1.8400
20
1.8829
10
1.8496
20
1.8829
10
1.8686
20
1.9020
10
1.8972
20
1.9115
10
1.9163
20
1.9306
10
1.9258
20
1.9306
10
1.9449
20
1.9497
10
1.9544
20
1.9497
10
1.9735
20
1.9687
10
1.9830
20
1.9687
10
2.0116
20
1.9973
10
2.0403
20
2.0069
10
2.0498
20
2.0260
10
2.0593
20
2.0260
10
2.0879
20
2.0546
10
2.0975
20
2.0546
10
2.1451
20
2.1022
10
2.6028
20
2.1022
10
2.6123
20
2.1118
10
2.6218
20
2.1118
10
2.6552
20
2.1451
10
2.6552
20
2.2119
10
2.6409
20
2.2262
10
2.6314
20
2.2262
10
2.6123
20
2.2452
10
2.5455
20
2.2452
10
2.5217
20
2.2691
10
2.5217
20
2.3167
0
LWPOLYLINE
8
LOGO
90
185
70
1
10
12.5657
20
4.5906
10
12.6991
20
4.5906
10
12.7087
20
4.5810
10
12.8135
20
4.5810
10
12.8231
20
4.5715
10
12.8803
20
4.5715
10
12.9041
20
4.5572
10
12.9041
20
4.5095
10
12.8946
20
4.5000
10
12.8946
20
4.4809
10
12.8850
20
4.4714
10
12.8850
20
4.4333
10
12.8755
20
4.4237
10
12.8755
20
4.4047
10
12.8660
20
4.3951
10
12.8660
20
4.3761
10
12.8564
20
4.3665
10
12.8564
20
4.3188
10
12.8469
20
4.3093
10
12.8469
20
4.2902
10
12.8374
20
4.2807
10
12.8374
20
4.2521
10
12.8278
20
4.2426
10
12.8278
20
4.2044
10
12.8183
20
4.1949
10
12.8183
20
4.1758
10
12.8088
20
4.1663
10
12.8088
20
4.1282
10
12.7992
20
4.1186
10
12.7992
20
4.0996
10
12.7897
20
4.0900
10
12.7897
20
4.0614
10
12.7802
20
4.0519
10
12.7802
20
4.0233
10
12.7611
20
3.9947
10
12.7611
20
3.9661
10
12.7516
20
3.9566
10
12.7516
20
3.9375
10
12.7420
20
3.9280
10
12.7420
20
3.8898
10
12.7182
20
3.8755
10
12.7087
20
3.8851
10
12.6705
20
3.8851
10
12.6562
20
3.8994
10
12.6562
20
3.9661
10
12.6658
20
3.9756
10
12.6658
20
4.0328
10
12.6753
20
4.0424
10
12.6753
20
4.0900
10
12.6848
20
4.0996
10
12.6848
20
4.1282
10
12.6944
20
4.1377
10
12.6944
20
4.1854
10
12.7039
20
4.1949
10
12.7039
20
4.2712
10
12.7134
20
4.2807
10
12.7134
20
4.3188
10
12.7087
20
4.3236
10
12.6801
20
4.3236
10
12.6658
20
4.2998
10
12.6658
20
4.2426
10
12.6562
20
4.2330
10
12.6562
20
4.1854
10
12.6467
20
4.1758
10
12.6467
20
4.1282
10
12.6372
20
4.1186
10
12.6372
20
4.0614
10
12.6276
20
4.0519
10
12.6276
20
4.0042
10
12.6181
20
3.9947
10
12.6181
20
3.9470
10
12.6086
20
3.9375
10
12.6086
20
3.9184
10
12.6038
20
3.9137
10
12.5085
20
3.9137
10
12.4989
20
3.9232
10
12.2987
20
3.9232
10
12.2892
20
3.9137
10
12.2129
20
3.9137
10
12.2034
20
3.9041
10
12.1843
20
3.9041
10
12.1557
20
3.8851
10
12.1366
20
3.8851
10
12.1271
20
3.8755
10
12.1080
20
3.8755
10
12.0985
20
3.8660
10
12.0794
20
3.8660
10
12.0318
20
3.8374
10
12.0127
20
3.8374
10
12.0032
20
3.8279
10
11.9841
20
3.8279
10
11.9793
20
3.8326
10
11.9793
20
3.8517
10
11.9889
20
3.8612
10
11.9889
20
3.8994
10
11.9984
20
3.9089
10
11.9984
20
3.9566
10
12.0079
20
3.9661
10
12.0079
20
4.0233
10
12.0175
20
4.0328
10
12.0175
20
4.0900
10
12.0270
20
4.0996
10
12.0270
20
4.1472
10
12.0365
20
4.1568
10
12.0365
20
4.2044
10
12.0461
20
4.2140
10
12.0461
20
4.2712
10
12.0556
20
4.2807
10
12.0556
20
4.3188
10
12.0651
20
4.3284
10
12.0651
20
4.3761
10
12.0747
20
4.3856
10
12.0747
20
4.4523
10
12.0890
20
4.4666
10
12.0985
20
4.4666
10
12.1271
20
4.4857
10
12.1462
20
4.4857
10
12.1748
20
4.5048
10
12.1938
20
4.5048
10
12.2034
20
4.5143
10
12.2129
20
4.5143
10
12.2224
20
4.5238
10
12.2415
20
4.5238
10
12.2510
20
4.5334
10
12.2653
20
4.5191
10
12.2653
20
4.5000
10
12.2558
20
4.4905
10
12.2558
20
4.4333
10
12.2463
20
4.4237
10
12.2463
20
4.3570
10
12.2510
20
4.3522
10
12.2701
20
4.3522
10
12.2844
20
4.3665
10
12.2844
20
4.3856
10
12.2939
20
4.3951
10
12.2939
20
4.4333
10
12.3035
20
4.4428
10
12.3035
20
4.4809
10
12.3130
20
4.4905
10
12.3130
20
4.5381
10
12.3273
20
4.5524
10
12.3464
20
4.5524
10
12.3559
20
4.5620
10
12.3845
20
4.5620
10
12.3940
20
4.5715
10
12.4417
20
4.5715
10
12.4513
20
4.5810
10
12.4894
20
4.5810
10
12.5037
20
4.5667
10
12.4942
20
4.5572
10
12.4942
20
4.5381
10
12.4846
20
4.5286
10
12.4846
20
4.4809
10
12.4751
20
4.4714
10
12.4751
20
4.4237
10
12.4656
20
4.4142
10
12.4656
20
4.3665
10
12.4560
20
4.3570
10
12.4560
20
4.3093
10
12.4465
20
4.2998
10
12.4465
20
4.2521
10
12.4370
20
4.2426
10
12.4370
20
4.1854
10
12.4274
20
4.1758
10
12.4274
20
4.1282
10
12.4417
20
4.1139
10
12.4513
20
4.1139
10
12.4656
20
4.1377
10
12.4656
20
4.1568
10
12.4751
20
4.1663
10
12.4751
20
4.2044
10
12.4846
20
4.2140
10
12.4846
20
4.2616
10
12.4942
20
4.2712
10
12.4942
20
4.3188
10
12.5037
20
4.3284
10
12.5037
20
4.3761
10
12.5132
20
4.3856
10
12.5132
20
4.4237
10
12.5228
20
4.4333
10
12.5228
20
4.4809
10
12.5323
20
4.4905
10
12.5323
20
4.5381
10
12.5418
20
4.5477
10
12.5418
20
4.5763
0
LWPOLYLINE
8
LOGO
90
116
70
1
10
10.7256
20
0.9963
10
10.7399
20
0.9915
10
10.7495
20
0.9629
10
10.7685
20
0.9439
10
10.7685
20
0.9343
10
10.7781
20
0.9248
10
10.7781
20
0.9153
10
10.7876
20
0.9057
10
10.7971
20
0.8771
10
10.8162
20
0.8580
10
10.8162
20
0.8485
10
10.8257
20
0.8390
10
10.8257
20
0.8294
10
10.8448
20
0.8104
10
10.8448
20
0.8008
10
10.8543
20
0.7913
10
10.8639
20
0.7627
10
10.8829
20
0.7436
10
10.8829
20
0.7341
10
10.8925
20
0.7246
10
10.8925
20
0.7150
10
10.9020
20
0.7055
10
10.9115
20
0.6769
10
10.9306
20
0.6578
10
10.9306
20
0.6388
10
10.9497
20
0.6197
10
10.9592
20
0.5911
10
10.9783
20
0.5720
10
10.9783
20
0.5625
10
10.9878
20
0.5530
10
10.9878
20
0.5434
10
11.0164
20
0.4958
10
11.0164
20
0.4767
10
11.0355
20
0.4481
10
11.0355
20
0.4290
10
11.0450
20
0.4195
10
11.0450
20
0.3814
10
11.0545
20
0.3718
10
11.0545
20
0.2765
10
11.0450
20
0.2669
10
11.0450
20
0.2383
10
11.0259
20
0.2097
10
11.0259
20
0.1907
10
11.0164
20
0.1811
10
11.0164
20
0.1716
10
10.9973
20
0.1525
10
10.9973
20
0.1430
10
10.9783
20
0.1239
10
10.9783
20
0.1144
10
10.9640
20
0.1096
10
10.9258
20
0.0715
10
10.9163
20
0.0715
10
10.8877
20
0.0429
10
10.8782
20
0.0429
10
10.8496
20
0.0238
10
10.8305
20
0.0238
10
10.8210
20
0.0143
10
10.7733
20
0.0143
10
10.7638
20
0.0048
10
10.7066
20
0.0048
10
10.6970
20
0.0143
10
10.6398
20
0.0143
10
10.6303
20
0.0238
10
10.6017
20
0.0238
10
10.5826
20
0.0429
10
10.5731
20
0.0429
10
10.5635
20
0.0524
10
10.5540
20
0.0524
10
10.5349
20
0.0715
10
10.5254
20
0.0715
10
10.4634
20
0.1335
10
10.4634
20
0.1430
10
10.4444
20
0.1621
10
10.4444
20
0.1716
10
10.4253
20
0.2002
10
10.4253
20
0.2193
10
10.4158
20
0.2288
10
10.4158
20
0.2479
10
10.4062
20
0.2574
10
10.4062
20
0.2956
10
10.3967
20
0.3051
10
10.3967
20
0.3146
10
10.4062
20
0.3242
10
10.4062
20
0.4100
10
10.4158
20
0.4195
10
10.4158
20
0.4481
10
10.4348
20
0.4767
10
10.4348
20
0.4958
10
10.4539
20
0.5148
10
10.4539
20
0.5244
10
10.4634
20
0.5339
10
10.4634
20
0.5530
10
10.4730
20
0.5625
10
10.4825
20
0.5911
10
10.5016
20
0.6102
10
10.5016
20
0.6197
10
10.5111
20
0.6292
10
10.5111
20
0.6388
10
10.5206
20
0.6483
10
10.5206
20
0.6578
10
10.5302
20
0.6674
10
10.5397
20
0.6960
10
10.5588
20
0.7150
10
10.5588
20
0.7246
10
10.5969
20
0.7722
10
10.5969
20
0.7818
10
10.6064
20
0.7913
10
10.6160
20
0.8199
10
10.6350
20
0.8390
10
10.6350
20
0.8485
10
10.6446
20
0.8580
10
10.6541
20
0.8867
10
10.6732
20
0.9057
10
10.6827
20
0.9343
10
10.7018
20
0.9534
10
10.7113
20
0.9820
0
LWPOLYLINE
8
LOGO
90
33
70
1
10
10.5159
20
0.4529
10
10.4920
20
0.4195
10
10.4920
20
0.3909
10
10.4825
20
0.3814
10
10.4825
20
0.3242
10
10.4920
20
0.3146
10
10.4920
20
0.2765
10
10.5111
20
0.2479
10
10.5111
20
0.2288
10
10.5206
20
0.2193
10
10.5206
20
0.2097
10
10.5921
20
0.1382
10
10.6207
20
0.1287
10
10.6398
20
0.1096
10
10.6970
20
0.1096
10
10.7018
20
0.1144
10
10.6875
20
0.1287
10
10.6779
20
0.1287
10
10.6493
20
0.1573
10
10.6350
20
0.1621
10
10.6350
20
0.1716
10
10.5874
20
0.2193
10
10.5874
20
0.2288
10
10.5683
20
0.2479
10
10.5683
20
0.2574
10
10.5588
20
0.2669
10
10.5588
20
0.2860
10
10.5492
20
0.2956
10
10.5492
20
0.3146
10
10.5397
20
0.3242
10
10.5397
20
0.3718
10
10.5302
20
0.3814
10
10.5302
20
0.4481
0
LWPOLYLINE
8
LOGO
90
122
70
1
10
4.3856
20
0.9963
10
4.3999
20
0.9820
10
4.3999
20
0.9725
10
4.4190
20
0.9534
10
4.4190
20
0.9439
10
4.4380
20
0.9248
10
4.4380
20
0.9057
10
4.4571
20
0.8867
10
4.4666
20
0.8580
10
4.4857
20
0.8390
10
4.4952
20
0.8104
10
4.5143
20
0.7913
10
4.5143
20
0.7722
10
4.5238
20
0.7627
10
4.5238
20
0.7532
10
4.5429
20
0.7341
10
4.5429
20
0.7246
10
4.5620
20
0.7055
10
4.5620
20
0.6864
10
4.5810
20
0.6674
10
4.5906
20
0.6388
10
4.6192
20
0.6102
10
4.6192
20
0.5911
10
4.6287
20
0.5816
10
4.6287
20
0.5720
10
4.6382
20
0.5625
10
4.6382
20
0.5530
10
4.6478
20
0.5434
10
4.6478
20
0.5339
10
4.6573
20
0.5244
10
4.6573
20
0.5148
10
4.6859
20
0.4672
10
4.6859
20
0.4481
10
4.6954
20
0.4386
10
4.6954
20
0.4290
10
4.7050
20
0.4195
10
4.7050
20
0.4004
10
4.7145
20
0.3909
10
4.7145
20
0.2765
10
4.7050
20
0.2669
10
4.7050
20
0.2479
10
4.6954
20
0.2383
10
4.6954
20
0.2193
10
4.6859
20
0.2097
10
4.6859
20
0.2002
10
4.6764
20
0.1907
10
4.6668
20
0.1621
10
4.6478
20
0.1430
10
4.6478
20
0.1335
10
4.6049
20
0.0906
10
4.5953
20
0.0906
10
4.5667
20
0.0620
10
4.5572
20
0.0620
10
4.5381
20
0.0429
10
4.5286
20
0.0429
10
4.4809
20
0.0143
10
4.4428
20
0.0143
10
4.4333
20
0.0048
10
4.3284
20
0.0048
10
4.3188
20
0.0143
10
4.2902
20
0.0143
10
4.2807
20
0.0238
10
4.2616
20
0.0238
10
4.2521
20
0.0334
10
4.2426
20
0.0334
10
4.1949
20
0.0715
10
4.1663
20
0.0810
10
4.1520
20
0.0953
10
4.1520
20
0.1049
10
4.1377
20
0.1096
10
4.1234
20
0.1239
10
4.1234
20
0.1335
10
4.1139
20
0.1430
10
4.1043
20
0.1716
10
4.0853
20
0.1907
10
4.0853
20
0.2097
10
4.0662
20
0.2383
10
4.0662
20
0.2669
10
4.0567
20
0.2765
10
4.0567
20
0.3623
10
4.0662
20
0.3718
10
4.0662
20
0.4195
10
4.0757
20
0.4290
10
4.0757
20
0.4481
10
4.0948
20
0.4672
10
4.0948
20
0.4862
10
4.1043
20
0.4958
10
4.1043
20
0.5053
10
4.1139
20
0.5148
10
4.1139
20
0.5244
10
4.1234
20
0.5339
10
4.1234
20
0.5434
10
4.1329
20
0.5530
10
4.1329
20
0.5625
10
4.1425
20
0.5720
10
4.1425
20
0.5816
10
4.1520
20
0.5911
10
4.1615
20
0.6197
10
4.1901
20
0.6483
10
4.1901
20
0.6578
10
4.1997
20
0.6674
10
4.1997
20
0.6769
10
4.2092
20
0.6864
10
4.2092
20
0.6960
10
4.2187
20
0.7055
10
4.2283
20
0.7341
10
4.2473
20
0.7532
10
4.2473
20
0.7627
10
4.2569
20
0.7722
10
4.2569
20
0.7818
10
4.2664
20
0.7913
10
4.2759
20
0.8199
10
4.2950
20
0.8390
10
4.3045
20
0.8676
10
4.3236
20
0.8867
10
4.3236
20
0.8962
10
4.3331
20
0.9057
10
4.3331
20
0.9153
10
4.3427
20
0.9248
10
4.3427
20
0.9343
10
4.3522
20
0.9439
10
4.3618
20
0.9725
0
LWPOLYLINE
8
LOGO
90
32
70
1
10
4.1854
20
0.4529
10
4.1615
20
0.4195
10
4.1615
20
0.2860
10
4.1711
20
0.2765
10
4.1711
20
0.2479
10
4.1806
20
0.2383
10
4.1901
20
0.2097
10
4.2187
20
0.1811
10
4.2187
20
0.1716
10
4.2426
20
0.1478
10
4.2521
20
0.1478
10
4.2998
20
0.1096
10
4.3188
20
0.1096
10
4.3284
20
0.1001
10
4.3475
20
0.1001
10
4.3522
20
0.1144
10
4.3379
20
0.1192
10
4.3236
20
0.1335
10
4.3236
20
0.1430
10
4.3093
20
0.1478
10
4.2664
20
0.1907
10
4.2664
20
0.2002
10
4.2473
20
0.2193
10
4.2473
20
0.2288
10
4.2283
20
0.2479
10
4.2283
20
0.2574
10
4.2187
20
0.2669
10
4.2187
20
0.2860
10
4.2092
20
0.2956
10
4.2092
20
0.3242
10
4.1997
20
0.3337
10
4.1997
20
0.4481
0
LWPOLYLINE
8
LOGO
90
191
70
1
10
7.2553
20
1.9306
10
7.3125
20
1.9306
10
7.3220
20
1.9211
10
7.3316
20
1.9211
10
7.3554
20
1.8972
10
7.3554
20
1.8877
10
7.3506
20
1.8829
10
7.3220
20
1.8829
10
7.3125
20
1.8734
10
7.2839
20
1.8734
10
7.2744
20
1.8639
10
7.2458
20
1.8639
10
7.2362
20
1.8543
10
7.2076
20
1.8543
10
7.1981
20
1.8448
10
7.1790
20
1.8448
10
7.1695
20
1.8353
10
7.1504
20
1.8353
10
7.1313
20
1.8162
10
7.1027
20
1.8067
10
7.0503
20
1.7542
10
7.0503
20
1.7447
10
7.0408
20
1.7352
10
7.0408
20
1.6780
10
7.0503
20
1.6684
10
7.0503
20
1.6589
10
7.0932
20
1.6160
10
7.1027
20
1.6160
10
7.1218
20
1.5969
10
7.1313
20
1.5969
10
7.1409
20
1.5874
10
7.1504
20
1.5874
10
7.1981
20
1.5588
10
7.2267
20
1.5588
10
7.2362
20
1.5493
10
7.2553
20
1.5493
10
7.2648
20
1.5397
10
7.2839
20
1.5397
10
7.2934
20
1.5302
10
7.3316
20
1.5302
10
7.3411
20
1.5207
10
7.3888
20
1.5207
10
7.3983
20
1.5111
10
7.4841
20
1.5111
10
7.4936
20
1.5016
10
7.5985
20
1.5016
10
7.6080
20
1.4921
10
7.7415
20
1.4921
10
7.7510
20
1.5016
10
7.8845
20
1.5016
10
7.8941
20
1.5111
10
7.9417
20
1.5111
10
7.9513
20
1.5207
10
7.9894
20
1.5207
10
7.9989
20
1.5302
10
8.0466
20
1.5302
10
8.0561
20
1.5397
10
8.0752
20
1.5397
10
8.0847
20
1.5493
10
8.1038
20
1.5493
10
8.1133
20
1.5588
10
8.1419
20
1.5588
10
8.1610
20
1.5779
10
8.1801
20
1.5779
10
8.2087
20
1.6065
10
8.2182
20
1.6065
10
8.2373
20
1.6255
10
8.2468
20
1.6255
10
8.2516
20
1.6398
10
8.2706
20
1.6589
10
8.2706
20
1.6684
10
8.2802
20
1.6780
10
8.2802
20
1.7352
10
8.2706
20
1.7447
10
8.2706
20
1.7542
10
8.2277
20
1.7971
10
8.2182
20
1.7971
10
8.1991
20
1.8162
10
8.1848
20
1.8210
10
8.1848
20
1.8305
10
8.2087
20
1.8543
10
8.2182
20
1.8543
10
8.2468
20
1.8734
10
8.3135
20
1.8734
10
8.3421
20
1.8543
10
8.3612
20
1.8543
10
8.3707
20
1.8448
10
8.3898
20
1.8448
10
8.3994
20
1.8353
10
8.4089
20
1.8353
10
8.4280
20
1.8162
10
8.4470
20
1.8162
10
8.4566
20
1.8067
10
8.4661
20
1.8067
10
8.4852
20
1.7876
10
8.4947
20
1.7876
10
8.4995
20
1.7733
10
8.5138
20
1.7590
10
8.5281
20
1.7542
10
8.5281
20
1.7447
10
8.5376
20
1.7352
10
8.5376
20
1.7066
10
8.5471
20
1.6970
10
8.5471
20
1.6780
10
8.5376
20
1.6684
10
8.5376
20
1.6494
10
8.5281
20
1.6398
10
8.5281
20
1.6303
10
8.5138
20
1.6160
10
8.5042
20
1.6160
10
8.4995
20
1.6017
10
8.4852
20
1.5874
10
8.4756
20
1.5874
10
8.4470
20
1.5588
10
8.4280
20
1.5588
10
8.4184
20
1.5493
10
8.4089
20
1.5493
10
8.3898
20
1.5302
10
8.3707
20
1.5302
10
8.3421
20
1.5111
10
8.3231
20
1.5111
10
8.3135
20
1.5016
10
8.2945
20
1.5016
10
8.2849
20
1.4921
10
8.2563
20
1.4921
10
8.2277
20
1.4730
10
8.1896
20
1.4730
10
8.1801
20
1.4635
10
8.1324
20
1.4635
10
8.1229
20
1.4539
10
8.0752
20
1.4539
10
8.0657
20
1.4444
10
8.0275
20
1.4444
10
8.0180
20
1.4348
10
7.9513
20
1.4348
10
7.9417
20
1.4253
10
7.8369
20
1.4253
10
7.8273
20
1.4158
10
7.5127
20
1.4158
10
7.5032
20
1.4253
10
7.3888
20
1.4253
10
7.3792
20
1.4348
10
7.3030
20
1.4348
10
7.2934
20
1.4444
10
7.2458
20
1.4444
10
7.2362
20
1.4539
10
7.1885
20
1.4539
10
7.1790
20
1.4635
10
7.1504
20
1.4635
10
7.1409
20
1.4730
10
7.1123
20
1.4730
10
7.1027
20
1.4825
10
7.0837
20
1.4825
10
7.0741
20
1.4921
10
7.0455
20
1.4921
10
7.0360
20
1.5016
10
7.0074
20
1.5016
10
6.9597
20
1.5302
10
6.9407
20
1.5302
10
6.9216
20
1.5493
10
6.9025
20
1.5493
10
6.8930
20
1.5588
10
6.8644
20
1.5683
10
6.8453
20
1.5874
10
6.8358
20
1.5874
10
6.7834
20
1.6398
10
6.7834
20
1.6494
10
6.7738
20
1.6589
10
6.7738
20
1.7161
10
6.7834
20
1.7256
10
6.7834
20
1.7352
10
6.8358
20
1.7876
10
6.8453
20
1.7876
10
6.8739
20
1.8162
10
6.8930
20
1.8162
10
6.9025
20
1.8257
10
6.9121
20
1.8257
10
6.9597
20
1.8543
10
6.9788
20
1.8543
10
6.9883
20
1.8639
10
7.0074
20
1.8639
10
7.0169
20
1.8734
10
7.0360
20
1.8734
10
7.0455
20
1.8829
10
7.0741
20
1.8829
10
7.0837
20
1.8925
10
7.1123
20
1.8925
10
7.1409
20
1.9115
10
7.1885
20
1.9115
10
7.1981
20
1.9211
10
7.2458
20
1.9211
0
LWPOLYLINE
8
LOGO
90
56
70
1
10
0.0572
20
2.5408
10
0.2669
20
2.5408
10
0.2908
20
2.5169
10
0.2908
20
2.4788
10
0.2765
20
2.4645
10
0.2574
20
2.4645
10
0.2479
20
2.4550
10
0.1716
20
2.4550
10
0.1478
20
2.4311
10
0.1382
20
2.4025
10
0.1478
20
2.3930
10
0.1478
20
2.3835
10
0.1716
20
2.3596
10
0.7436
20
2.3596
10
0.7484
20
2.3549
10
0.7484
20
2.2881
10
0.7389
20
2.2786
10
0.7389
20
2.2595
10
0.7484
20
2.2500
10
0.7484
20
2.1737
10
0.7579
20
2.1642
10
0.7579
20
2.1547
10
0.7436
20
2.1404
10
0.4100
20
2.1404
10
0.3861
20
2.1165
10
0.3861
20
2.0975
10
0.3957
20
2.0879
10
0.3957
20
2.0689
10
0.4100
20
2.0546
10
0.4195
20
2.0546
10
0.4290
20
2.0450
10
0.5720
20
2.0450
10
0.5863
20
2.0307
10
0.5863
20
1.9830
10
0.5530
20
1.9592
10
0.5244
20
1.9592
10
0.5148
20
1.9687
10
0.4958
20
1.9687
10
0.4862
20
1.9592
10
0.0477
20
1.9592
10
0.0381
20
1.9687
10
0.0286
20
1.9687
10
0.0143
20
1.9830
10
0.0143
20
2.0498
10
-0.0048
20
2.0784
10
-0.0048
20
2.2881
10
0.0048
20
2.2977
10
0.0048
20
2.3453
10
0.0143
20
2.3549
10
0.0143
20
2.4216
10
0.0238
20
2.4311
10
0.0238
20
2.4502
10
0.0334
20
2.4597
10
0.0334
20
2.4788
10
0.0429
20
2.4883
10
0.0429
20
2.5169
0
LWPOLYLINE
8
LOGO
90
55
70
1
10
3.8994
20
1.6637
10
3.9280
20
1.6446
10
3.9566
20
1.6446
10
3.9852
20
1.6255
10
4.0042
20
1.6255
10
4.0138
20
1.6160
10
4.0328
20
1.6160
10
4.0424
20
1.6065
10
4.0519
20
1.6065
10
4.0614
20
1.5969
10
4.0805
20
1.5969
10
4.0900
20
1.5874
10
4.0996
20
1.5969
10
4.1091
20
1.5874
10
4.1377
20
1.5874
10
4.1472
20
1.5779
10
4.1949
20
1.5779
10
4.2235
20
1.5588
10
4.2616
20
1.5588
10
4.2712
20
1.5493
10
4.3951
20
1.5493
10
4.4047
20
1.5397
10
4.5953
20
1.5397
10
4.6049
20
1.5493
10
4.6144
20
1.5493
10
4.6287
20
1.5350
10
4.6287
20
1.5064
10
4.6192
20
1.4968
10
4.6192
20
1.4205
10
4.6096
20
1.4110
10
4.6096
20
1.3824
10
4.6001
20
1.3729
10
4.6001
20
1.3347
10
4.5906
20
1.3252
10
4.5906
20
1.2680
10
4.5810
20
1.2585
10
4.5810
20
1.2489
10
4.5763
20
1.2442
10
3.8231
20
1.2442
10
3.8183
20
1.2489
10
3.8183
20
1.2680
10
3.8279
20
1.2775
10
3.8279
20
1.3443
10
3.8374
20
1.3538
10
3.8374
20
1.3919
10
3.8469
20
1.4015
10
3.8469
20
1.4587
10
3.8565
20
1.4682
10
3.8565
20
1.4968
10
3.8660
20
1.5064
10
3.8660
20
1.5731
10
3.8755
20
1.5826
10
3.8755
20
1.6112
10
3.8851
20
1.6208
10
3.8851
20
1.6398
0
LWPOLYLINE
8
LOGO
90
96
70
1
10
2.4311
20
2.6266
10
2.9460
20
2.6266
10
2.9603
20
2.6123
10
2.9603
20
2.5741
10
2.9460
20
2.5598
10
2.8792
20
2.5598
10
2.8697
20
2.5503
10
2.8506
20
2.5503
10
2.8363
20
2.5360
10
2.8363
20
2.4597
10
2.8602
20
2.4359
10
2.8792
20
2.4359
10
2.8888
20
2.4264
10
2.8983
20
2.4359
10
3.0032
20
2.4359
10
3.0127
20
2.4264
10
3.0985
20
2.4264
10
3.1080
20
2.4359
10
3.1319
20
2.4121
10
3.1319
20
2.3739
10
3.1176
20
2.3501
10
2.5169
20
2.3501
10
2.4931
20
2.3167
10
2.4931
20
2.2595
10
2.5265
20
2.2262
10
2.5360
20
2.2262
10
2.5455
20
2.2166
10
2.6028
20
2.2166
10
2.6123
20
2.2071
10
2.6218
20
2.2071
10
2.6361
20
2.1833
10
2.6361
20
2.1451
10
2.6314
20
2.1404
10
2.5932
20
2.1404
10
2.5837
20
2.1308
10
2.1928
20
2.1308
10
2.1880
20
2.1356
10
2.1880
20
2.1547
10
2.2166
20
2.1833
10
2.2166
20
2.1928
10
2.2309
20
2.2071
10
2.2405
20
2.2071
10
2.2500
20
2.2166
10
2.2595
20
2.2071
10
2.2691
20
2.2166
10
2.3072
20
2.2166
10
2.3167
20
2.2262
10
2.3263
20
2.2262
10
2.3310
20
2.2405
10
2.3501
20
2.2595
10
2.3501
20
2.2977
10
2.3358
20
2.3120
10
2.3310
20
2.3072
10
2.3310
20
2.2691
10
2.3072
20
2.2452
10
2.2691
20
2.2452
10
2.2643
20
2.2500
10
2.2834
20
2.2691
10
2.2834
20
2.2786
10
2.2929
20
2.2881
10
2.2929
20
2.3072
10
2.3072
20
2.3120
10
2.3215
20
2.3263
10
2.3215
20
2.3549
10
2.3310
20
2.3644
10
2.3310
20
2.3835
10
2.3692
20
2.4407
10
2.3692
20
2.4597
10
2.3882
20
2.4883
10
2.3882
20
2.5074
10
2.4025
20
2.5312
10
2.6600
20
2.5312
10
2.6838
20
2.5074
10
2.6838
20
2.4693
10
2.6600
20
2.4550
10
2.4788
20
2.4550
10
2.4645
20
2.4407
10
2.4693
20
2.4264
10
2.6600
20
2.4264
10
2.6695
20
2.4359
10
2.6790
20
2.4359
10
2.7029
20
2.4597
10
2.7029
20
2.4693
10
2.7124
20
2.4788
10
2.7124
20
2.5169
10
2.7029
20
2.5265
10
2.7029
20
2.5360
10
2.6886
20
2.5503
10
2.6695
20
2.5503
10
2.6600
20
2.5598
10
2.4502
20
2.5598
10
2.4216
20
2.5408
10
2.4168
20
2.5455
10
2.4168
20
2.5932
10
2.4264
20
2.6028
10
2.4264
20
2.6218
0
LWPOLYLINE
8
LOGO
90
124
70
1
10
4.5667
20
2.1499
10
4.7193
20
2.1499
10
4.7336
20
2.1356
10
4.7336
20
2.1070
10
4.7193
20
2.0832
10
4.5953
20
2.0832
10
4.5858
20
2.0927
10
4.5286
20
2.0927
10
4.5191
20
2.0832
10
4.4714
20
2.0832
10
4.4619
20
2.0736
10
4.4333
20
2.0736
10
4.4237
20
2.0641
10
4.3665
20
2.0641
10
4.3570
20
2.0546
10
4.2902
20
2.0546
10
4.2807
20
2.0450
10
4.2426
20
2.0450
10
4.2330
20
2.0355
10
4.2140
20
2.0355
10
4.2044
20
2.0260
10
4.1854
20
2.0260
10
4.1758
20
2.0164
10
4.1568
20
2.0164
10
4.1472
20
2.0069
10
4.1377
20
2.0069
10
4.1282
20
1.9973
10
4.1186
20
1.9973
10
4.1091
20
1.9878
10
4.0805
20
1.9783
10
4.0614
20
1.9592
10
4.0519
20
1.9592
10
4.0185
20
1.9258
10
4.0185
20
1.9163
10
4.0090
20
1.9068
10
4.0090
20
1.8877
10
3.9995
20
1.8782
10
3.9995
20
1.8591
10
4.0090
20
1.8496
10
4.0090
20
1.8305
10
4.0281
20
1.8114
10
4.0281
20
1.8019
10
4.0424
20
1.7876
10
4.0519
20
1.7876
10
4.0805
20
1.7590
10
4.0900
20
1.7590
10
4.0996
20
1.7495
10
4.1091
20
1.7495
10
4.1568
20
1.7209
10
4.1758
20
1.7209
10
4.1854
20
1.7113
10
4.2140
20
1.7113
10
4.2235
20
1.7018
10
4.2426
20
1.7018
10
4.2521
20
1.6923
10
4.2807
20
1.6923
10
4.2902
20
1.6827
10
4.3570
20
1.6827
10
4.3665
20
1.6732
10
4.4142
20
1.6732
10
4.4237
20
1.6637
10
4.5000
20
1.6637
10
4.5095
20
1.6541
10
4.6430
20
1.6541
10
4.6478
20
1.6494
10
4.6478
20
1.6017
10
4.6239
20
1.5779
10
4.5000
20
1.5779
10
4.4905
20
1.5874
10
4.3570
20
1.5874
10
4.3475
20
1.5969
10
4.2330
20
1.5969
10
4.2235
20
1.6065
10
4.1949
20
1.6065
10
4.1854
20
1.6160
10
4.1377
20
1.6160
10
4.1282
20
1.6255
10
4.1091
20
1.6255
10
4.0996
20
1.6351
10
4.0710
20
1.6351
10
4.0614
20
1.6446
10
4.0424
20
1.6446
10
4.0328
20
1.6541
10
4.0138
20
1.6541
10
4.0042
20
1.6637
10
3.9661
20
1.6637
10
3.9375
20
1.6827
10
3.9184
20
1.6827
10
3.8946
20
1.7066
10
3.8946
20
1.7161
10
3.9041
20
1.7256
10
3.9041
20
1.7638
10
3.9137
20
1.7733
10
3.9137
20
1.8210
10
3.9232
20
1.8305
10
3.9232
20
1.8782
10
3.9327
20
1.8877
10
3.9327
20
1.9258
10
3.9423
20
1.9354
10
3.9423
20
1.9926
10
3.9518
20
2.0021
10
3.9518
20
2.0116
10
3.9756
20
2.0355
10
3.9852
20
2.0355
10
3.9947
20
2.0450
10
4.0138
20
2.0450
10
4.0233
20
2.0546
10
4.0424
20
2.0546
10
4.0710
20
2.0736
10
4.0996
20
2.0736
10
4.1091
20
2.0832
10
4.1377
20
2.0832
10
4.1472
20
2.0927
10
4.1758
20
2.0927
10
4.1854
20
2.1022
10
4.2235
20
2.1022
10
4.2330
20
2.1118
10
4.2998
20
2.1118
10
4.3093
20
2.1213
10
4.3665
20
2.1213
10
4.3761
20
2.1308
10
4.4237
20
2.1308
10
4.4333
20
2.1404
10
4.5572
20
2.1404
0
LWPOLYLINE
8
LOGO
90
119
70
1
10
7.3602
20
1.8543
10
7.4174
20
1.8543
10
7.4460
20
1.8257
10
7.4603
20
1.8210
10
7.4555
20
1.8162
10
7.4364
20
1.8162
10
7.4269
20
1.8067
10
7.4078
20
1.8067
10
7.3983
20
1.7971
10
7.3697
20
1.7971
10
7.3602
20
1.7876
10
7.3506
20
1.7876
10
7.3411
20
1.7781
10
7.3125
20
1.7685
10
7.2887
20
1.7447
10
7.2887
20
1.7352
10
7.2791
20
1.7256
10
7.2791
20
1.6970
10
7.2982
20
1.6780
10
7.3030
20
1.6637
10
7.3125
20
1.6637
10
7.3411
20
1.6446
10
7.3602
20
1.6446
10
7.3697
20
1.6351
10
7.3983
20
1.6351
10
7.4078
20
1.6255
10
7.4364
20
1.6255
10
7.4460
20
1.6160
10
7.4841
20
1.6160
10
7.4936
20
1.6065
10
7.5413
20
1.6065
10
7.5508
20
1.5969
10
7.7796
20
1.5969
10
7.7892
20
1.6065
10
7.8369
20
1.6065
10
7.8464
20
1.6160
10
7.8941
20
1.6160
10
7.9036
20
1.6255
10
7.9322
20
1.6255
10
7.9799
20
1.6541
10
7.9989
20
1.6541
10
8.0323
20
1.6875
10
8.0323
20
1.7352
10
8.0085
20
1.7590
10
7.9942
20
1.7638
10
7.9942
20
1.7828
10
7.9989
20
1.7876
10
8.0180
20
1.7876
10
8.0275
20
1.7971
10
8.0657
20
1.7971
10
8.0752
20
1.8067
10
8.1324
20
1.8067
10
8.1419
20
1.7971
10
8.1610
20
1.7971
10
8.1705
20
1.7876
10
8.1991
20
1.7781
10
8.2325
20
1.7447
10
8.2325
20
1.7352
10
8.2420
20
1.7256
10
8.2420
20
1.6875
10
8.2325
20
1.6780
10
8.2325
20
1.6684
10
8.1991
20
1.6351
10
8.1896
20
1.6351
10
8.1610
20
1.6065
10
8.1419
20
1.6065
10
8.1324
20
1.5969
10
8.1038
20
1.5969
10
8.0943
20
1.5874
10
8.0657
20
1.5874
10
8.0561
20
1.5779
10
8.0371
20
1.5779
10
8.0275
20
1.5683
10
7.9989
20
1.5683
10
7.9894
20
1.5588
10
7.9513
20
1.5588
10
7.9417
20
1.5493
10
7.8655
20
1.5493
10
7.8559
20
1.5397
10
7.7320
20
1.5397
10
7.7224
20
1.5302
10
7.5985
20
1.5302
10
7.5890
20
1.5397
10
7.4650
20
1.5397
10
7.4555
20
1.5493
10
7.3983
20
1.5493
10
7.3888
20
1.5588
10
7.3411
20
1.5588
10
7.3316
20
1.5683
10
7.3030
20
1.5683
10
7.2934
20
1.5779
10
7.2744
20
1.5779
10
7.2648
20
1.5874
10
7.2362
20
1.5874
10
7.2267
20
1.5969
10
7.2076
20
1.5969
10
7.1790
20
1.6160
10
7.1599
20
1.6160
10
7.1504
20
1.6255
10
7.1409
20
1.6255
10
7.1218
20
1.6446
10
7.1123
20
1.6446
10
7.0789
20
1.6780
10
7.0694
20
1.7066
10
7.0789
20
1.7161
10
7.0884
20
1.7447
10
7.1027
20
1.7495
10
7.1313
20
1.7781
10
7.1409
20
1.7781
10
7.1504
20
1.7876
10
7.1599
20
1.7876
10
7.2076
20
1.8162
10
7.2362
20
1.8162
10
7.2458
20
1.8257
10
7.2744
20
1.8257
10
7.2839
20
1.8353
10
7.3030
20
1.8353
10
7.3125
20
1.8448
10
7.3506
20
1.8448
0
LWPOLYLINE
8
LOGO
90
79
70
1
10
4.5191
20
2.0546
10
4.7097
20
2.0546
10
4.7145
20
2.0498
10
4.7145
20
2.0116
10
4.7002
20
1.9973
10
4.4809
20
1.9973
10
4.4714
20
1.9878
10
4.4237
20
1.9878
10
4.4142
20
1.9783
10
4.3761
20
1.9783
10
4.3665
20
1.9687
10
4.3475
20
1.9687
10
4.3188
20
1.9497
10
4.2998
20
1.9497
10
4.2569
20
1.9068
10
4.2569
20
1.8591
10
4.2998
20
1.8162
10
4.3093
20
1.8162
10
4.3379
20
1.7971
10
4.3570
20
1.7971
10
4.3665
20
1.7876
10
4.4047
20
1.7876
10
4.4142
20
1.7781
10
4.4714
20
1.7781
10
4.4809
20
1.7685
10
4.5572
20
1.7685
10
4.5667
20
1.7590
10
4.6144
20
1.7590
10
4.6239
20
1.7685
10
4.6525
20
1.7685
10
4.6668
20
1.7542
10
4.6668
20
1.7352
10
4.6573
20
1.7256
10
4.6573
20
1.6970
10
4.6525
20
1.6923
10
4.4905
20
1.6923
10
4.4809
20
1.7018
10
4.4047
20
1.7018
10
4.3951
20
1.7113
10
4.3379
20
1.7113
10
4.3284
20
1.7209
10
4.2712
20
1.7209
10
4.2616
20
1.7304
10
4.2426
20
1.7304
10
4.2330
20
1.7399
10
4.2140
20
1.7399
10
4.2044
20
1.7495
10
4.1854
20
1.7495
10
4.1758
20
1.7590
10
4.1568
20
1.7590
10
4.1377
20
1.7781
10
4.1282
20
1.7781
10
4.1186
20
1.7876
10
4.1091
20
1.7876
10
4.0900
20
1.8067
10
4.0805
20
1.8067
10
4.0471
20
1.8400
10
4.0471
20
1.8496
10
4.0376
20
1.8591
10
4.0471
20
1.8686
10
4.0471
20
1.8972
10
4.0996
20
1.9497
10
4.1186
20
1.9497
10
4.1663
20
1.9783
10
4.1854
20
1.9783
10
4.1949
20
1.9878
10
4.2140
20
1.9878
10
4.2235
20
1.9973
10
4.2426
20
1.9973
10
4.2521
20
2.0069
10
4.2807
20
2.0069
10
4.2902
20
2.0164
10
4.3188
20
2.0164
10
4.3284
20
2.0260
10
4.3665
20
2.0260
10
4.3761
20
2.0355
10
4.4237
20
2.0355
10
4.4333
20
2.0450
10
4.5095
20
2.0450
0
LWPOLYLINE
8
LOGO
90
31
70
1
10
2.7362
20
1.8353
10
3.0318
20
1.8353
10
3.0365
20
1.8305
10
3.0365
20
1.7828
10
3.0270
20
1.7733
10
3.0270
20
1.7161
10
3.0175
20
1.7066
10
3.0175
20
1.6875
10
3.0079
20
1.6780
10
3.0079
20
1.5922
10
2.9936
20
1.5779
10
2.4407
20
1.5779
10
2.4168
20
1.5922
10
2.4168
20
1.6017
10
2.4073
20
1.6112
10
2.4168
20
1.6208
10
2.4168
20
1.6303
10
2.4311
20
1.6446
10
2.4502
20
1.6446
10
2.4597
20
1.6541
10
2.7744
20
1.6541
10
2.7982
20
1.6780
10
2.7982
20
1.7161
10
2.7744
20
1.7399
10
2.7648
20
1.7399
10
2.7553
20
1.7495
10
2.7076
20
1.7495
10
2.6933
20
1.7638
10
2.6933
20
1.8114
10
2.7076
20
1.8257
10
2.7267
20
1.8257
0
LWPOLYLINE
8
LOGO
90
39
70
1
10
7.4746
20
1.7876
10
7.6080
20
1.7876
10
7.6176
20
1.7781
10
7.6557
20
1.7781
10
7.6652
20
1.7685
10
7.9227
20
1.7685
10
7.9322
20
1.7590
10
7.9513
20
1.7590
10
7.9608
20
1.7495
10
7.9894
20
1.7399
10
8.0037
20
1.7256
10
8.0037
20
1.7161
10
7.9799
20
1.6923
10
7.9608
20
1.6923
10
7.9513
20
1.6827
10
7.9322
20
1.6827
10
7.9036
20
1.6637
10
7.8845
20
1.6637
10
7.8750
20
1.6541
10
7.8464
20
1.6541
10
7.8369
20
1.6446
10
7.7796
20
1.6446
10
7.7701
20
1.6351
10
7.5794
20
1.6351
10
7.5699
20
1.6446
10
7.4936
20
1.6446
10
7.4841
20
1.6541
10
7.4460
20
1.6541
10
7.4364
20
1.6637
10
7.3983
20
1.6637
10
7.3697
20
1.6827
10
7.3506
20
1.6827
10
7.3173
20
1.7161
10
7.3506
20
1.7495
10
7.3602
20
1.7495
10
7.3697
20
1.7590
10
7.3888
20
1.7590
10
7.4174
20
1.7781
10
7.4650
20
1.7781
0
LWPOLYLINE
8
LOGO
90
26
70
1
10
2.7458
20
1.4730
10
2.9746
20
1.4730
10
2.9793
20
1.4682
10
2.9793
20
1.4205
10
2.9698
20
1.4110
10
2.9698
20
1.3919
10
2.9603
20
1.3824
10
2.9603
20
1.3538
10
2.9507
20
1.3443
10
2.9507
20
1.2775
10
2.9269
20
1.2442
10
2.2977
20
1.2442
10
2.2929
20
1.2489
10
2.2929
20
1.2775
10
2.3167
20
1.3014
10
2.8506
20
1.3014
10
2.8602
20
1.3109
10
2.8697
20
1.3109
10
2.8840
20
1.3347
10
2.8840
20
1.3633
10
2.8602
20
1.3872
10
2.8506
20
1.3872
10
2.8411
20
1.3967
10
2.7458
20
1.3967
10
2.7219
20
1.4205
10
2.7219
20
1.4492
0
LWPOLYLINE
8
LOGO
90
32
70
1
10
4.5381
20
1.9687
10
4.6907
20
1.9687
10
4.7050
20
1.9544
10
4.7050
20
1.9354
10
4.6954
20
1.9258
10
4.6954
20
1.8877
10
4.6859
20
1.8782
10
4.6859
20
1.8210
10
4.6621
20
1.7876
10
4.5953
20
1.7876
10
4.5858
20
1.7971
10
4.5477
20
1.7971
10
4.5381
20
1.8067
10
4.4809
20
1.8067
10
4.4714
20
1.8162
10
4.4142
20
1.8162
10
4.4047
20
1.8257
10
4.3665
20
1.8257
10
4.3570
20
1.8353
10
4.3379
20
1.8353
10
4.3284
20
1.8448
10
4.2998
20
1.8543
10
4.2855
20
1.8782
10
4.2855
20
1.8877
10
4.3093
20
1.9115
10
4.3188
20
1.9115
10
4.3665
20
1.9401
10
4.3856
20
1.9401
10
4.3951
20
1.9497
10
4.4428
20
1.9497
10
4.4523
20
1.9592
10
4.5286
20
1.9592
0
LWPOLYLINE
8
LOGO
90
13
70
1
10
14.2246
20
3.7707
10
14.2436
20
3.7707
10
14.2579
20
3.7564
10
14.2579
20
3.3273
10
14.2532
20
3.3226
10
14.2246
20
3.3226
10
14.2198
20
3.3273
10
14.2198
20
3.4417
10
14.2103
20
3.4513
10
14.2103
20
3.4894
10
14.2198
20
3.4989
10
14.2103
20
3.5085
10
14.2103
20
3.7564
0
LWPOLYLINE
8
LOGO
90
8
70
1
10
14.9968
20
3.6753
10
15.0159
20
3.6753
10
15.0206
20
3.6705
10
15.0206
20
3.1748
10
15.0159
20
3.1700
10
14.9873
20
3.1700
10
14.9825
20
3.1748
10
14.9825
20
3.6610
0
LWPOLYLINE
8
LOGO
90
8
70
1
10
13.9481
20
3.5418
10
13.9576
20
3.5418
10
13.9814
20
3.5180
10
13.9814
20
3.1748
10
13.9767
20
3.1700
10
13.9385
20
3.1700
10
13.9338
20
3.1748
10
13.9338
20
3.5180
0
LWPOLYLINE
8
LOGO
90
8
70
1
10
14.7489
20
3.5895
10
14.7680
20
3.5895
10
14.7728
20
3.5847
10
14.7728
20
3.1748
10
14.7680
20
3.1700
10
14.7489
20
3.1700
10
14.7442
20
3.1748
10
14.7442
20
3.5847
0
LWPOLYLINE
8
LOGO
90
9
70
1
10
14.5106
20
3.9137
10
14.5296
20
3.9137
10
14.5439
20
3.8898
10
14.5344
20
3.8803
10
14.5344
20
3.5275
10
14.5296
20
3.5228
10
14.5106
20
3.5228
10
14.5058
20
3.5275
10
14.5058
20
3.9089
0
LWPOLYLINE
8
LOGO
90
8
70
1
10
2.3358
20
1.4730
10
2.4407
20
1.4730
10
2.4645
20
1.4492
10
2.4645
20
1.4205
10
2.4407
20
1.3967
10
2.3263
20
1.3967
10
2.3120
20
1.4110
10
2.3120
20
1.4492
0
LWPOLYLINE
8
LOGO
90
10
70
1
10
0.0572
20
1.8639
10
0.1811
20
1.8639
10
0.2050
20
1.8400
10
0.2050
20
1.8210
10
0.1811
20
1.7876
10
0.0763
20
1.7876
10
0.0620
20
1.8114
10
0.0620
20
1.8305
10
0.0524
20
1.8400
10
0.0524
20
1.8591
0
LWPOLYLINE
8
LOGO
90
11
70
1
10
0.7627
20
2.0450
10
0.7818
20
2.0450
10
0.7961
20
2.0307
10
0.7961
20
2.0212
10
0.8151
20
2.0021
10
0.8151
20
1.9926
10
0.8247
20
1.9830
10
0.8199
20
1.9687
10
0.7627
20
1.9687
10
0.7484
20
1.9830
10
0.7484
20
2.0307
0
ENDSEC
0
EOF
